<?xml version="1.0" encoding="utf-8"?>
<!-- Generator: Adobe Illustrator 16.0.0, SVG Export Plug-In . SVG Version: 6.00 Build 0)  -->
<!DOCTYPE svg PUBLIC "-//W3C//DTD SVG 1.1//EN" "http://www.w3.org/Graphics/SVG/1.1/DTD/svg11.dtd">
<svg version="1.1" id="Layer_1" xmlns="http://www.w3.org/2000/svg" xmlns:xlink="http://www.w3.org/1999/xlink" x="0px" y="0px"
	 width="137.895px" height="53.25px" viewBox="0 0 137.895 53.25" enable-background="new 0 0 137.895 53.25" xml:space="preserve">
<g>
	<circle fill="#9D1C20" cx="27.942" cy="26.378" r="22.12"/>
	<path fill-rule="evenodd" clip-rule="evenodd" fill="#005643" d="M66.757,12.406c2.207,0.031,4.54-0.063,6.667,0.047
		c0,9.126,0,18.253,0,27.379c-2.238,0-4.476,0-6.714,0c0-9.096,0-18.189,0-27.284C66.706,12.48,66.702,12.414,66.757,12.406z"/>
	<path fill-rule="evenodd" clip-rule="evenodd" fill="#005643" d="M78.248,12.406c2.127,0,4.961,0,7.328,0
		c0.367,0,0.803-0.063,0.994,0c0.148,0.048,0.183,0.176,0.33,0.33c0.039,0.041,0.057,0.103,0.096,0.143
		c0.037,0.04,0.057,0.102,0.094,0.142c0.129,0.133,0.291,0.468,0.426,0.662c0.012,0.017,0.088,0.032,0.095,0.047
		c0.011,0.024-0.015,0.073,0,0.095c0.011,0.018,0.087,0.032,0.095,0.048c0.01,0.023-0.015,0.072,0,0.094
		c0.012,0.018,0.088,0.032,0.094,0.048c0.012,0.023-0.014,0.073,0,0.095c0.066,0.095,0.182,0.16,0.236,0.236
		c0.033,0.044,0.014,0.059,0.048,0.095c0.038,0.04,0.058,0.102,0.095,0.142c0.049,0.05,0.162,0.271,0.236,0.378
		c0.121,0.176,0.238,0.368,0.378,0.567c0.013,0.017,0.089,0.032,0.095,0.048c0.012,0.023-0.015,0.072,0,0.095
		c0.012,0.018,0.088,0.031,0.095,0.047c0.011,0.023-0.015,0.073,0,0.095c0.063,0.091,0.176,0.152,0.237,0.236
		c0.031,0.045,0.012,0.06,0.047,0.095c0.038,0.04,0.057,0.103,0.094,0.142c0.039,0.04,0.057,0.103,0.095,0.142
		c0.038,0.04,0.057,0.103,0.095,0.143c0.133,0.139,0.282,0.454,0.426,0.661c0.012,0.018,0.088,0.033,0.094,0.048
		c0.012,0.024-0.014,0.072,0,0.095c0.012,0.018,0.089,0.031,0.096,0.047c0.01,0.024-0.016,0.073,0,0.095
		c0.012,0.017,0.088,0.032,0.094,0.048c0.012,0.023-0.014,0.072,0,0.094c0.012,0.018,0.088,0.032,0.095,0.048
		c0.011,0.023-0.015,0.073,0,0.095c0.061,0.083,0.173,0.145,0.237,0.236c0.031,0.047,0.061,0.141,0.094,0.188
		c0.157,0.23,0.376,0.585,0.567,0.852c0.012,0.017,0.089,0.032,0.095,0.047c0.094,0.209,0.273,0.441,0.426,0.662
		c0.133,0.193,0.247,0.379,0.379,0.567c0.256,0.371,0.561,0.736,0.756,1.135c0.652-0.719,1.236-1.507,1.844-2.27
		c1.789-2.241,3.612-4.541,5.438-6.809c2.476,0,4.949,0,7.424,0c0.121-0.003,0.059,0.035,0.048,0.094
		c-0.498,0.529-0.94,1.104-1.419,1.655c-0.238,0.275-0.517,0.531-0.756,0.804c-0.062,0.07-0.085,0.172-0.143,0.236
		c-0.129,0.148-0.33,0.288-0.473,0.474c-0.024,0.032-0.018,0.108-0.047,0.142c-0.063,0.072-0.173,0.116-0.236,0.189
		c-0.061,0.068-0.082,0.166-0.143,0.236c-0.112,0.13-0.264,0.247-0.378,0.378c-0.118,0.136-0.214,0.288-0.331,0.426
		c-0.222,0.259-0.459,0.518-0.709,0.804c-0.116,0.133-0.264,0.247-0.379,0.378c-0.031,0.036-0.02,0.106-0.047,0.143
		c-0.103,0.134-0.33,0.309-0.473,0.473c-0.057,0.065-0.08,0.166-0.143,0.236c-0.238,0.272-0.518,0.528-0.756,0.804
		c-0.118,0.137-0.213,0.29-0.331,0.426c-0.113,0.131-0.266,0.248-0.378,0.378c-0.063,0.072-0.074,0.159-0.143,0.236
		c-0.117,0.136-0.336,0.295-0.473,0.473c-0.024,0.032-0.018,0.109-0.047,0.143c-0.115,0.132-0.262,0.243-0.379,0.378
		c-0.117,0.136-0.211,0.288-0.33,0.426c-0.239,0.274-0.52,0.527-0.758,0.804c-0.119,0.139-0.211,0.29-0.33,0.426
		c-0.116,0.133-0.264,0.247-0.379,0.378c-0.031,0.036-0.02,0.105-0.047,0.143c-0.103,0.134-0.33,0.309-0.473,0.473
		c-0.057,0.065-0.081,0.166-0.143,0.236c-0.232,0.266-0.525,0.486-0.709,0.804c2.037,2.669,4.121,5.358,6.194,8.038
		c0.169,0.219,0.343,0.426,0.521,0.662c0.311,0.413,0.681,0.925,1.04,1.371c0.126,0.157,0.282,0.333,0.426,0.521
		c0.028,0.036,0.017,0.102,0.048,0.142c0.031,0.041,0.11,0.055,0.141,0.095c0.168,0.215,0.369,0.544,0.568,0.804
		c0.167,0.219,0.338,0.419,0.52,0.662c0.297,0.395,0.706,0.893,1.041,1.324c0.027,0.036,0.07,0.063,0.094,0.095
		c0.066,0.087,0.143,0.211,0.236,0.331c0.031,0.038,0.136,0.112,0.096,0.189c-2.354,0-4.8,0-7.282,0c-0.374,0-0.846,0.066-1.04,0
		c-0.16-0.056-0.072-0.043-0.143-0.143c-0.012-0.017-0.088-0.032-0.094-0.047c-0.086-0.19-0.279-0.49-0.426-0.709
		c-0.15-0.224-0.257-0.375-0.426-0.615c-0.137-0.192-0.273-0.382-0.426-0.614c-0.043-0.065-0.053-0.124-0.095-0.189
		c-0.012-0.019-0.087-0.032-0.095-0.048c-0.146-0.323-0.445-0.669-0.662-0.992c-0.193-0.29-0.402-0.633-0.614-0.946
		c-0.036-0.054-0.056-0.128-0.095-0.188c-0.012-0.019-0.088-0.032-0.095-0.048c-0.011-0.023,0.015-0.074,0-0.095
		c-0.069-0.097-0.172-0.143-0.236-0.236c-0.032-0.047-0.062-0.141-0.095-0.188c-0.034-0.051-0.061-0.09-0.094-0.143
		c-0.035-0.054-0.057-0.128-0.096-0.189c-0.012-0.018-0.086-0.031-0.094-0.047c-0.145-0.318-0.443-0.677-0.662-0.993
		c-0.74-1.073-1.529-2.332-2.27-3.404c-0.131,0.044-0.205,0.185-0.284,0.284c-0.261,0.329-0.579,0.717-0.851,1.087
		c-0.102,0.138-0.203,0.308-0.332,0.473c-0.129,0.168-0.236,0.268-0.378,0.473c-0.151,0.221-0.417,0.501-0.614,0.757
		c-1.7,2.213-3.483,4.538-5.249,6.763c-2.554,0-5.106,0-7.66,0c-0.242-0.031,0.042-0.184,0.047-0.189
		c0.387-0.5,0.882-1.038,1.324-1.561c1.412-1.666,2.909-3.359,4.351-5.06c2.011-2.372,4.176-4.854,6.241-7.234
		c-0.045-0.189-0.225-0.29-0.331-0.426c-0.031-0.041-0.017-0.104-0.047-0.142c-0.056-0.073-0.199-0.179-0.283-0.284
		c-0.06-0.073-0.089-0.167-0.143-0.236c-0.063-0.081-0.13-0.114-0.189-0.189c-0.094-0.118-0.15-0.202-0.236-0.331
		c-0.063-0.094-0.23-0.247-0.33-0.378c-0.027-0.035-0.018-0.104-0.048-0.142c-0.105-0.133-0.272-0.247-0.378-0.379
		c-0.032-0.039-0.019-0.104-0.047-0.142c-0.057-0.072-0.201-0.178-0.285-0.284c-0.104-0.133-0.181-0.293-0.283-0.425
		c-0.057-0.073-0.137-0.122-0.189-0.189c-0.104-0.135-0.207-0.271-0.33-0.426c-0.028-0.034-0.071-0.063-0.096-0.095
		c-0.025-0.034-0.016-0.104-0.047-0.142c-0.105-0.132-0.272-0.246-0.378-0.378c-0.032-0.04-0.019-0.104-0.048-0.143
		c-0.025-0.033-0.064-0.057-0.094-0.094c-0.357-0.463-0.846-1.01-1.23-1.514c-0.025-0.033-0.018-0.106-0.047-0.142
		c-0.045-0.055-0.145-0.086-0.188-0.142c-0.032-0.041-0.019-0.104-0.048-0.143c-0.055-0.072-0.199-0.178-0.283-0.283
		c-0.061-0.076-0.078-0.154-0.143-0.236c-0.135-0.176-0.354-0.401-0.52-0.615c-0.084-0.107-0.156-0.209-0.236-0.33
		c-0.088-0.132-0.299-0.313-0.426-0.474c-0.031-0.04-0.018-0.104-0.047-0.142c-0.025-0.033-0.066-0.057-0.096-0.095
		c-0.225-0.292-0.54-0.664-0.803-0.993c-0.879-1.096-1.734-2.203-2.602-3.31C78.311,12.506,78.225,12.502,78.248,12.406z"/>
	<g>
		<g>
			<path fill-rule="evenodd" clip-rule="evenodd" fill="#FAA31A" d="M52.713,26.969c0.023-0.414,0.231-0.844,0.236-1.182
				c0.004-0.2-0.101-0.456-0.142-0.71c-0.085-0.531-0.18-1.012-0.236-1.466c-0.07-0.567-0.091-0.994-0.188-1.418
				c-0.125-0.539-0.289-1.125-0.379-1.561c-0.028-0.138-0.019-0.287-0.047-0.379c-0.06-0.188-0.178-0.329-0.236-0.473
				c-0.145-0.35,0.08-0.867,0-1.229c-0.041-0.182-0.218-0.306-0.332-0.473c-0.027-0.041-0.024-0.105-0.047-0.142
				c-0.088-0.143-0.203-0.229-0.236-0.378c-0.033-0.156,0.037-0.475,0-0.615c-0.04-0.152-0.185-0.266-0.283-0.426
				c-0.029-0.046-0.023-0.104-0.048-0.142c-0.018-0.028-0.075-0.063-0.095-0.095c-0.104-0.172-0.152-0.33-0.236-0.473
				c-0.098-0.166-0.231-0.302-0.331-0.426c-0.069-0.087-0.101-0.141-0.142-0.236c-0.082-0.195-0.063-0.443-0.143-0.662
				c-0.033-0.096-0.131-0.17-0.188-0.283c-0.162-0.318-0.296-0.711-0.474-0.946c-0.112-0.147-0.296-0.268-0.426-0.426
				c-0.134-0.163-0.246-0.351-0.378-0.52c-0.154-0.198-0.357-0.446-0.473-0.615c-0.002-0.003-0.041-0.04-0.047-0.047
				c-0.113-0.118-0.156-0.278-0.237-0.378c-0.216-0.268-0.547-0.44-0.757-0.71c-0.057-0.072-0.068-0.177-0.095-0.236
				c-0.007-0.016-0.083-0.028-0.095-0.047c-0.036-0.06-0.009-0.133-0.047-0.189c-0.102-0.152-0.262-0.198-0.378-0.331
				c-0.073-0.083-0.11-0.212-0.189-0.284c-0.179-0.161-0.438-0.226-0.614-0.378c-0.185-0.158-0.311-0.383-0.473-0.567
				c-0.035-0.04-0.105-0.056-0.143-0.095c-0.053-0.056-0.043-0.125-0.095-0.188c-0.032-0.04-0.109-0.055-0.142-0.095
				c-0.051-0.064-0.047-0.145-0.095-0.189c-0.09-0.084-0.261-0.156-0.378-0.236c-0.111-0.075-0.182-0.139-0.236-0.189
				c-0.096-0.089-0.204-0.124-0.284-0.189c-0.139-0.111-0.263-0.186-0.378-0.283c-0.293-0.246-0.529-0.517-0.805-0.757
				c-0.049-0.044-0.126-0.04-0.188-0.095c-0.088-0.077-0.175-0.194-0.237-0.236c-0.048-0.031-0.056-0.063-0.095-0.094
				c-0.252-0.21-0.578-0.282-0.898-0.426c-0.594-0.268-1.225-0.586-1.75-0.852c-0.123-0.063-0.25-0.167-0.33-0.189
				c-0.201-0.054-0.424,0.021-0.615-0.047c-0.014-0.005-0.066-0.079-0.095-0.095c-0.144-0.083-0.265-0.163-0.378-0.236
				c-0.27-0.175-0.438-0.331-0.756-0.378c-0.133-0.02-0.209-0.014-0.332-0.048c-0.242-0.066-0.517-0.209-0.709-0.283
				c-0.275-0.106-0.726-0.144-0.993-0.189c-0.351-0.06-0.746-0.143-1.04-0.188c-0.438-0.07-0.647-0.298-0.993-0.379
				c-0.27-0.063-0.569-0.021-0.851-0.047c-0.58-0.054-1.13-0.108-1.656-0.189c-0.264-0.041-0.498-0.149-0.756-0.189
				c-0.563-0.087-1.176,0.056-1.75-0.047c-0.284-0.051-0.522-0.283-0.804-0.284c-0.044,0-0.085,0.032-0.142,0.048
				c-0.171,0.046-0.434,0.084-0.662,0.142c-0.251,0.063-0.493,0.196-0.662,0.189c-0.224-0.01-0.438-0.225-0.662-0.236
				c-0.08-0.005-0.199,0.071-0.33,0.095c-0.111,0.019-0.268,0.028-0.379,0.047c-0.5,0.082-1.033,0.129-1.513,0.236
				c-0.542,0.121-1.162,0.405-1.608,0.567c-0.242,0.088-0.496,0.149-0.709,0.189c-0.404,0.074-0.868,0.073-1.182,0.188
				c-0.168,0.062-0.354,0.226-0.521,0.331c-0.176,0.112-0.331,0.246-0.52,0.331c-0.255,0.115-0.566,0.173-0.852,0.284
				C17,4.396,16.66,4.713,16.066,4.651c-0.226,0.2-0.432,0.417-0.662,0.614c-0.057,0.05-0.125,0.044-0.188,0.095
				c-0.201,0.158-0.3,0.387-0.521,0.473c-0.102,0.04-0.266,0.022-0.378,0.048c-0.113,0.025-0.228,0.044-0.331,0.094
				c-0.34,0.165-0.596,0.643-0.898,0.898c-0.293,0.249-0.691,0.438-1.041,0.662c-0.167,0.107-0.346,0.227-0.52,0.331
				c-0.107,0.064-0.293,0.152-0.331,0.189c-0.04,0.038-0.039,0.015-0.095,0.047c-0.135,0.08-0.192,0.187-0.236,0.284
				c-0.006,0.015-0.082,0.03-0.095,0.047c-0.054,0.078-0.087,0.206-0.142,0.284c-0.058,0.081-0.125,0.147-0.189,0.236
				c-0.061,0.086-0.126,0.215-0.189,0.284c-0.076,0.084-0.22,0.135-0.33,0.235c-0.098,0.09-0.188,0.201-0.283,0.284
				c-0.158,0.137-0.355,0.274-0.474,0.378c-0.067,0.061-0.147,0.099-0.188,0.143c-0.166,0.174-0.229,0.442-0.379,0.567
				c-0.059,0.049-0.203,0.054-0.283,0.095c-0.092,0.045-0.146,0.119-0.237,0.142c-0.171,0.326-0.409,0.793-0.661,1.04
				c-0.068,0.066-0.152,0.061-0.189,0.095c-0.223,0.203-0.053,0.89-0.143,1.182c-0.025,0.084-0.084,0.113-0.142,0.189
				c-0.38,0.505-0.749,0.935-1.04,1.466c-0.217,0.094-0.444,0.147-0.567,0.284c-0.037,0.041-0.04,0.183-0.095,0.283
				c-0.053,0.099-0.17,0.18-0.189,0.236c-0.068,0.212-0.066,0.578-0.094,0.898c-0.027,0.316-0.089,0.636-0.096,0.898
				c-0.004,0.207,0.07,0.52,0.048,0.615c-0.036,0.154-0.229,0.324-0.378,0.473c-0.184,0.183-0.318,0.226-0.379,0.473
				c-0.055,0.229,0.057,0.555,0,0.852c-0.033,0.175-0.217,0.356-0.236,0.52c-0.005,0.042,0.037,0.113,0.048,0.189
				c0.058,0.442,0.124,0.839,0.095,1.324c-0.011,0.174-0.012,0.428-0.047,0.567c-0.017,0.061-0.109,0.122-0.143,0.188
				c-0.047,0.093-0.057,0.207-0.095,0.284c-0.079,0.159-0.204,0.292-0.236,0.473c-0.054,0.3-0.021,0.664-0.048,0.993
				C3.461,24.943,3.49,25.3,3.395,25.598c-0.045,0.137-0.14,0.245-0.189,0.331c-0.113,0.196-0.236,0.374-0.379,0.567
				c0.189,0.37,0.242,0.914,0.332,1.324c0.059,0.269,0.156,0.393,0.236,0.567c0.16,0.349,0.159,0.904,0.189,1.371
				c0.055,0.871,0.108,1.677,0.188,2.411c0.05,0.453,0.122,0.651,0.237,0.946c0.047,0.12,0.062,0.225,0.094,0.331
				c0.006,0.018,0.085,0.07,0.095,0.095c0.056,0.146,0.083,0.318,0.142,0.473c0.176,0.458,0.366,0.844,0.567,1.276
				c0.134,0.287,0.345,0.561,0.426,0.852c0.063,0.226,0.021,0.479,0.095,0.709c0.082,0.253,0.385,0.531,0.566,0.852
				c0.127,0.222,0.216,0.502,0.332,0.756c0.131,0.289,0.289,0.723,0.426,0.946c0.198,0.323,0.355,0.601,0.52,0.898
				c0.178,0.321,0.263,0.432,0.52,0.614c0.268,0.189,0.418,0.358,0.615,0.567c0.213,0.226,0.518,0.492,0.662,0.709
				c0.197,0.298,0.51,0.497,0.757,0.71c0.185,0.158,0.468,0.357,0.567,0.521c0.062,0.1,0.143,0.127,0.189,0.188
				c0.029,0.038,0.016,0.103,0.047,0.142c0.045,0.055,0.145,0.089,0.189,0.143c0.029,0.035,0.021,0.108,0.047,0.142
				c0.077,0.101,0.193,0.162,0.283,0.236c0.146,0.118,0.262,0.234,0.379,0.331c0.146,0.119,0.262,0.231,0.379,0.331
				c0.207,0.177,0.385,0.422,0.566,0.567c0.053,0.042,0.162,0.047,0.236,0.095c0.021,0.013,0.026,0.078,0.048,0.095
				c0.038,0.028,0.107,0.024,0.142,0.047c0.223,0.147,0.407,0.26,0.615,0.378c0.067,0.039,0.117,0.105,0.189,0.143
				c0.141,0.073,0.34,0.104,0.473,0.188c0.18,0.116,0.266,0.294,0.426,0.426c0.143,0.119,0.35,0.23,0.52,0.331
				c0.361,0.216,0.731,0.432,1.135,0.615c0.486,0.222,1.041,0.394,1.514,0.614c0.063,0.029,0.115,0.105,0.188,0.142
				c0.103,0.052,0.206,0.045,0.284,0.095c0.184,0.118,0.297,0.319,0.426,0.426c0.072,0.061,0.139,0.042,0.236,0.095
				c0.479,0.261,1.273,0.496,1.797,0.709c0.24,0.098,0.222,0.121,0.426,0.095c0.743-0.097,1.162,0.02,1.654,0.189
				c0.195,0.066,0.397,0.163,0.567,0.188c0.462,0.069,0.977,0.018,1.466,0.048c0.522,0.031,1.04,0.001,1.514,0.047
				c0.119,0.012,0.238,0.07,0.378,0.095c0.147,0.026,0.351,0.012,0.473,0.047c0.247,0.071,0.419,0.259,0.662,0.331
				c0.306-0.131,0.382-0.238,0.71-0.283c0.367-0.051,0.729,0.033,1.087,0.047c0.768,0.031,1.476-0.063,2.175-0.095
				c0.394-0.018,0.777,0.014,1.135-0.047c0.205-0.035,0.401-0.134,0.615-0.189c0.727-0.188,1.611-0.422,2.27-0.614
				c0.568-0.166,1.07-0.379,1.561-0.567c0.22-0.085,0.451-0.196,0.615-0.236c0.156-0.038,0.365,0.005,0.52-0.048
				c0.018-0.006,0.074-0.081,0.095-0.094c0.046-0.029,0.092-0.018,0.142-0.048c0.164-0.099,0.308-0.241,0.426-0.331
				c0.041-0.031,0.096-0.016,0.143-0.047c0.039-0.028,0.055-0.112,0.094-0.143c0.182-0.14,0.428-0.271,0.567-0.378
				c0.032-0.024,0.058-0.066,0.095-0.095c0.193-0.145,0.243-0.149,0.473-0.236c0.357-0.136,0.676-0.294,0.945-0.473
				c0.133-0.088,0.252-0.152,0.379-0.236c0.051-0.034,0.092-0.109,0.143-0.143c0.076-0.049,0.162-0.047,0.236-0.094
				c0.056-0.036,0.08-0.104,0.141-0.143c0.076-0.046,0.184-0.054,0.236-0.094c0.335-0.258,0.528-0.699,0.805-0.805
				c0.172-0.064,0.367,0.001,0.52-0.047c0.385-0.448,0.816-0.948,1.23-1.324c0.031-0.028,0.11-0.023,0.142-0.047
				c0.04-0.031,0.056-0.107,0.095-0.142c0.107-0.098,0.277-0.203,0.33-0.284c0.031-0.046,0.066-0.057,0.096-0.095
				c0.158-0.201,0.279-0.428,0.425-0.614c0.017-0.021,0.075-0.026,0.095-0.048c0.035-0.037,0.015-0.099,0.047-0.142
				c0.017-0.021,0.076-0.026,0.096-0.047c0.033-0.037,0.015-0.101,0.047-0.143c0.042-0.054,0.145-0.088,0.188-0.142
				c0.03-0.035,0.022-0.108,0.048-0.142c0.084-0.11,0.3-0.271,0.378-0.331c0.036-0.028,0.106-0.017,0.142-0.048
				c0.123-0.105,0.218-0.254,0.332-0.378c0.258-0.281,0.641-0.579,0.756-0.898c0.055-0.151,0.088-0.262,0.143-0.378
				c0.059-0.127,0.136-0.245,0.188-0.331c0.046-0.074,0.06-0.13,0.095-0.189c0.102-0.176,0.25-0.332,0.331-0.425
				c0.048-0.057,0.052-0.143,0.095-0.189c0.08-0.09,0.205-0.157,0.283-0.236c0.18-0.184,0.314-0.408,0.567-0.521
				c0.058-0.475,0.358-0.823,0.567-1.229c0.098-0.188,0.18-0.408,0.284-0.614c0.11-0.22,0.276-0.407,0.331-0.615
				c0.082-0.316,0.006-0.687,0.094-0.993c0.021-0.074,0.099-0.199,0.143-0.283c0.201-0.39,0.393-0.88,0.52-1.229
				c0.094-0.256,0.168-0.474,0.237-0.662c0.091-0.249,0.162-0.433,0.188-0.71c0.045-0.463,0.08-0.849,0.143-1.276
				c0.077-0.526,0.225-1.108,0.236-1.655c0.008-0.358-0.076-0.685-0.095-1.04C52.743,27.765,52.691,27.357,52.713,26.969z
				 M47.891,27.253c0.006,0.137-0.008,0.334,0,0.473c0.013,0.266,0.096,0.538,0.094,0.804c-0.004,0.41-0.127,0.892-0.189,1.324
				c-0.031,0.229-0.068,0.436-0.094,0.661c-0.023,0.214-0.006,0.471-0.047,0.662c-0.037,0.168-0.174,0.355-0.237,0.521
				c-0.035,0.092-0.06,0.2-0.095,0.284c-0.089,0.219-0.169,0.527-0.283,0.804c-0.072,0.173-0.193,0.307-0.236,0.473
				c-0.077,0.295-0.006,0.62-0.095,0.898c-0.021,0.065-0.101,0.163-0.142,0.236c-0.018,0.03-0.021,0.108-0.047,0.142
				c-0.015,0.019-0.086,0.03-0.096,0.048c-0.086,0.16-0.113,0.33-0.188,0.473c-0.165,0.315-0.401,0.554-0.474,0.898
				c0.006,0.146-0.231,0.168-0.283,0.284c-0.008,0.018,0.015,0.081,0,0.094c-0.035,0.033-0.109,0.013-0.142,0.048
				c-0.025,0.026-0.023,0.069-0.048,0.095c-0.215,0.225-0.48,0.568-0.662,0.898c-0.104,0.189-0.171,0.379-0.283,0.567
				c-0.012,0.02,0.016,0.079,0,0.095c-0.016,0.015-0.081-0.017-0.095,0c-0.025,0.029-0.024,0.068-0.048,0.094
				c-0.068,0.078-0.188,0.175-0.283,0.284c-0.137,0.156-0.227,0.313-0.426,0.473c-0.105,0.084-0.232,0.141-0.33,0.236
				c-0.096,0.094-0.148,0.22-0.236,0.331c-0.045,0.056-0.09,0.075-0.143,0.142c-0.039,0.05-0.059,0.142-0.094,0.189
				c-0.123,0.161-0.236,0.286-0.379,0.473c-0.012,0.016-0.088,0.033-0.094,0.048c-0.057,0.123-0.111,0.122-0.237,0.236
				c-0.109,0.1-0.208,0.207-0.331,0.331c-0.055,0.054-0.086,0.138-0.143,0.188c-0.032,0.031-0.106,0.021-0.141,0.048
				c-0.168,0.128-0.375,0.433-0.568,0.614c-0.194-0.037-0.242,0.073-0.425,0.048c-0.286,0.253-0.522,0.512-0.804,0.709
				c-0.176,0.123-0.372,0.257-0.568,0.379c-0.035,0.022-0.1,0.019-0.142,0.047c-0.065,0.044-0.118,0.152-0.188,0.189
				c-0.063,0.032-0.164,0.02-0.236,0.047c-0.08,0.03-0.115,0.065-0.189,0.095c-0.117,0.046-0.264,0.078-0.379,0.142
				c-0.23,0.128-0.411,0.356-0.614,0.521c-0.091,0.072-0.226,0.16-0.331,0.236c-0.107,0.077-0.24,0.197-0.331,0.236
				c-0.204,0.088-0.444,0.074-0.661,0.142c-0.324,0.099-0.641,0.263-0.947,0.378c-0.485,0.185-0.967,0.39-1.465,0.521
				c-0.184,0.049-0.374,0.048-0.568,0.095c-0.329,0.08-0.648,0.227-0.992,0.283c-0.365,0.062-0.777,0.028-1.182,0.048
				c-0.368,0.018-0.721,0.094-1.088,0.095c-0.38,0.001-0.758-0.102-1.183-0.048c-0.118,0.015-0.212,0.05-0.331,0.095
				c-0.086,0.033-0.193,0.096-0.283,0.095c-0.149-0.001-0.359-0.165-0.615-0.236c-0.186-0.052-0.459-0.12-0.662-0.142
				c-0.727-0.078-1.602,0.044-2.27-0.048c-0.336-0.046-0.613-0.243-0.898-0.283c-0.251-0.035-0.576-0.036-0.852,0
				c-0.075,0.01-0.108,0.06-0.188,0.047c-0.024-0.004-0.078-0.089-0.095-0.095c-0.379-0.114-0.795-0.313-1.182-0.473
				c-0.066-0.027-0.123-0.069-0.189-0.095c-0.088-0.032-0.189-0.021-0.236-0.047c-0.2-0.114-0.322-0.35-0.521-0.473
				c-0.099-0.062-0.253-0.086-0.378-0.143c-0.125-0.056-0.216-0.139-0.332-0.188c-0.258-0.112-0.518-0.176-0.756-0.284
				c-0.339-0.154-0.638-0.374-0.993-0.567c-0.099-0.054-0.249-0.086-0.331-0.142c-0.168-0.114-0.302-0.307-0.473-0.426
				c-0.234-0.162-0.508-0.231-0.757-0.378c-0.052-0.031-0.085-0.105-0.142-0.143c-0.069-0.044-0.132-0.057-0.189-0.094
				c-0.055-0.035-0.13-0.057-0.189-0.095c-0.018-0.012-0.031-0.088-0.047-0.095c-0.133-0.061-0.197-0.15-0.331-0.283
				c-0.312-0.312-0.817-0.588-1.087-0.993c-0.047-0.07-0.154-0.136-0.236-0.237c-0.087-0.105-0.107-0.178-0.236-0.283
				c-0.154-0.125-0.38-0.314-0.568-0.473c-0.037-0.032-0.055-0.114-0.094-0.143c-0.046-0.031-0.105-0.01-0.143-0.047
				c-0.034-0.034-0.065-0.106-0.094-0.142c-0.122-0.149-0.319-0.379-0.474-0.567c-0.133-0.164-0.265-0.328-0.473-0.473
				c-0.11-0.077-0.247-0.096-0.331-0.189c-0.037-0.042-0.135-0.33-0.189-0.426c-0.131-0.229-0.287-0.429-0.425-0.709
				c-0.097-0.195-0.183-0.4-0.284-0.615c-0.126-0.267-0.273-0.645-0.473-0.945c-0.07-0.106-0.17-0.157-0.236-0.331
				s-0.038-0.375-0.095-0.567c-0.068-0.229-0.222-0.467-0.331-0.709c-0.245-0.547-0.508-1.167-0.757-1.797
				c-0.099-0.251-0.101-0.359-0.142-0.757c-0.013-0.124-0.08-0.22-0.095-0.331c-0.073-0.537-0.067-1.025-0.095-1.607
				c-0.011-0.244,0-0.569-0.047-0.805c-0.043-0.212-0.221-0.398-0.284-0.614c-0.022-0.077-0.03-0.188-0.047-0.284
				C7.996,27.166,8,26.999,7.934,26.78c-0.071-0.236-0.139-0.236,0-0.473c0.031-0.053,0.059-0.128,0.095-0.188
				c0.062-0.103,0.196-0.198,0.237-0.331c0.037-0.128,0.028-0.321,0.047-0.474c0.041-0.357,0.089-0.756,0-1.182
				c0.301-0.411,0.528-0.761,0.52-1.466C8.83,22.534,8.76,22.38,8.737,22.241c-0.019-0.12-0.055-0.312-0.047-0.426
				c0.015-0.229,0.148-0.295,0.188-0.52c0.067-0.369-0.088-0.679,0.096-0.898c0.109-0.133,0.414-0.31,0.473-0.521
				c0.097-0.354,0.004-0.964,0.047-1.324c0.043-0.368,0.098-0.707,0.331-0.992c0.056-0.068,0.016-0.094,0.095-0.143
				c0.08-0.05,0.283-0.105,0.378-0.189c0.035-0.03,0.056-0.132,0.095-0.188c0.012-0.017,0.088-0.032,0.095-0.048
				c0.096-0.213,0.298-0.441,0.473-0.662c0.091-0.114,0.202-0.188,0.236-0.283c0.095-0.268-0.053-0.547,0.048-0.852
				c0.068-0.211,0.322-0.317,0.473-0.52c0.031-0.043,0.014-0.061,0.047-0.095c0.039-0.04,0.057-0.103,0.095-0.142
				c0.045-0.047,0.132-0.25,0.188-0.379c0.149-0.056,0.252-0.159,0.426-0.188c0.086-0.172,0.196-0.337,0.332-0.474
				c0.145-0.146,0.353-0.241,0.52-0.378c0.078-0.064,0.154-0.165,0.236-0.236c0.197-0.171,0.344-0.368,0.52-0.614
				c0.092-0.127,0.172-0.282,0.284-0.379c0.098-0.083,0.284-0.151,0.426-0.236c0.345-0.207,0.784-0.444,1.136-0.709
				c0.102-0.077,0.242-0.168,0.33-0.284c0.092-0.12,0.261-0.421,0.426-0.521c0.061-0.036,0.123-0.014,0.189-0.047
				c0.019-0.01,0.082-0.092,0.094-0.095c0.125-0.028,0.254,0.051,0.379,0c0.166-0.066,0.404-0.325,0.567-0.473
				c0.083-0.075,0.19-0.158,0.284-0.236c0.093-0.079,0.152-0.201,0.236-0.236c0.141-0.06,0.369,0.001,0.52-0.048
				c0.145-0.046,0.264-0.209,0.426-0.283c0.078-0.036,0.189-0.012,0.283-0.047c0.082-0.031,0.125-0.072,0.189-0.095
				c0.156-0.056,0.315-0.09,0.426-0.143c0.297-0.141,0.52-0.422,0.804-0.52c0.353-0.122,0.787-0.091,1.183-0.189
				c0.275-0.068,0.543-0.19,0.803-0.284c0.788-0.281,1.67-0.393,2.602-0.614c0.205,0.074,0.363,0.185,0.567,0.189
				c0.159,0.003,0.379-0.093,0.567-0.142c0.232-0.062,0.408-0.12,0.662-0.143c0.01-0.054,0.047-0.026,0.047,0
				c0.174,0.019,0.275,0.149,0.426,0.189c0.41,0.109,0.882-0.011,1.371,0.047c0.203,0.024,0.393,0.146,0.615,0.189
				c0.322,0.064,0.688,0.06,1.04,0.095c0.164,0.017,0.353,0.031,0.521,0.047c0.162,0.016,0.344,0.019,0.473,0.048
				c0.223,0.051,0.387,0.218,0.614,0.283c0.116,0.033,0.297,0.025,0.426,0.048c0.136,0.022,0.249,0.07,0.378,0.095
				c0.259,0.048,0.561,0.035,0.805,0.094c0.201,0.049,0.416,0.176,0.614,0.236c0.113,0.035,0.228,0.07,0.331,0.095
				c0.135,0.032,0.293,0.015,0.378,0.048c0.138,0.053,0.253,0.203,0.378,0.283c0.136,0.086,0.297,0.187,0.426,0.236
				c0.294,0.114,0.529,0.098,0.805,0.236c0.074,0.038,0.167,0.105,0.236,0.143c0.461,0.246,1.145,0.527,1.607,0.804
				c0.08,0.047,0.137,0.045,0.189,0.095c0.038,0.036,0.055,0.107,0.094,0.142c0.046,0.038,0.131,0.039,0.189,0.095
				c0.039,0.036,0.055,0.108,0.095,0.142c0.056,0.046,0.14,0.049,0.189,0.095c0.038,0.036,0.054,0.107,0.095,0.142
				c0.055,0.047,0.129,0.039,0.188,0.095c0.038,0.036,0.055,0.108,0.095,0.142c0.049,0.041,0.136,0.044,0.189,0.095
				c0.087,0.082,0.146,0.142,0.283,0.236c0.018,0.012,0.033,0.088,0.047,0.095c0.113,0.051,0.242,0.141,0.379,0.236
				c0.304,0.214,0.566,0.496,0.852,0.804c0.025,0.027,0.074,0.068,0.094,0.095c0.018,0.022,0.025,0.123,0.048,0.142
				c0.146,0.127,0.366,0.151,0.521,0.284c0.014,0.012,0.033,0.08,0.047,0.095c0.057,0.059,0.254,0.234,0.331,0.331
				c0.112,0.139,0.167,0.33,0.284,0.473c0.174,0.214,0.434,0.347,0.614,0.567c0.106,0.129,0.185,0.294,0.284,0.426
				c0.196,0.26,0.389,0.519,0.615,0.804c0.031,0.041,0.011,0.106,0.046,0.142c0.034,0.034,0.105,0.015,0.142,0.048
				c0.146,0.131,0.25,0.392,0.379,0.614c0.072,0.125,0.188,0.266,0.236,0.378c0.098,0.226,0.091,0.49,0.189,0.71
				c0.038,0.085,0.077,0.104,0.142,0.189c0.092,0.12,0.144,0.223,0.236,0.378c0.16,0.268,0.359,0.614,0.567,0.898
				c0.019,0.222-0.074,0.299-0.047,0.473c0.018,0.113,0.068,0.081,0.142,0.189c0.048,0.069,0.055,0.179,0.095,0.236
				c0.106,0.153,0.256,0.243,0.283,0.378c0.045,0.216-0.088,0.539-0.047,0.852c0.029,0.218,0.178,0.402,0.236,0.614
				c0.045,0.164,0.051,0.375,0.095,0.567c0.038,0.17,0.101,0.353,0.142,0.521c0.082,0.341,0.194,0.717,0.236,1.04
				c0.021,0.16-0.014,0.35,0,0.521c0.047,0.555,0.286,1.127,0.284,1.654c-0.002,0.328-0.171,0.636-0.188,0.946
				C47.834,26.958,47.883,27.106,47.891,27.253z"/>
		</g>
	</g>
	<g>
		<g>
			<path fill-rule="evenodd" clip-rule="evenodd" fill="#FAA31A" d="M41.79,25.74c-0.042-0.223-0.043-0.426-0.094-0.567
				c-0.05-0.138-0.301-0.438-0.379-0.567c-0.044-0.072-0.062-0.2-0.095-0.236c-0.146-0.161-0.469-0.264-0.615-0.379
				c-0.199-0.156-0.295-0.343-0.52-0.473c-0.331-0.19-0.521-0.227-0.945-0.283c-0.353-0.047-0.924-0.013-1.183-0.095
				c-0.347-0.11-0.751,0.052-1.135,0.047c-0.22-0.002-0.427-0.089-0.662-0.095c-0.116-0.002-0.294,0.038-0.425,0.048
				c-0.157,0.012-0.314,0.034-0.474,0.047c-0.8,0.065-1.685,0.033-2.317,0c-0.164-0.008-0.367-0.056-0.473-0.047
				c-0.156,0.013-0.295,0.128-0.473,0.142c-0.186,0.015-0.459-0.008-0.566-0.095c-0.015-0.011,0.007-0.077,0-0.095
				c-0.008-0.017-0.085-0.026-0.096-0.047c-0.117-0.226-0.072-0.477-0.094-0.756c-0.08-0.988,0.024-2.213,0-3.027
				c-0.012-0.347-0.096-0.72-0.096-1.087c0-0.54,0.069-1.273,0.048-1.607c-0.021-0.323-0.093-0.727-0.095-1.041
				c-0.002-0.324,0.084-0.542,0.047-0.851c-0.013-0.116-0.094-0.264-0.141-0.426c-0.053-0.176-0.05-0.383-0.096-0.473
				c-0.094-0.187-0.328-0.307-0.52-0.473c-0.209-0.182-0.364-0.372-0.567-0.474c-0.374-0.186-0.823-0.244-1.324-0.378
				c-0.091-0.085-0.375,0.133-0.473,0.142c-0.224,0.021-0.382-0.163-0.662-0.142c-0.058,0.004-0.165,0.1-0.284,0.142
				c-0.163,0.058-0.376,0.096-0.426,0.142c-0.078,0.076-0.154,0.101-0.236,0.143c-0.379,0.195-0.399,0.253-0.662,0.567
				c-0.125,0.151-0.295,0.284-0.378,0.426c-0.038,0.066-0.048,0.177-0.095,0.283c-0.078,0.182-0.158,0.337-0.236,0.521
				c-0.107,0.251-0.186,0.599-0.189,0.851c-0.002,0.247,0.089,0.499,0.096,0.757c0.006,0.292-0.103,0.594-0.096,0.898
				c0.006,0.242,0.082,0.474,0.096,0.709c0.033,0.62-0.088,1.131-0.096,1.608c-0.006,0.439,0.095,0.933,0.096,1.276
				c0,0.153-0.055,0.271-0.048,0.426c0.026,0.597,0.113,1.198,0,1.749c-0.372,0.328-0.875,0.276-1.371,0.284
				c-0.222,0.004-0.569,0.047-0.709,0.047c-0.179,0-0.489-0.097-0.662-0.095c-0.206,0.003-0.409,0.099-0.614,0.095
				c-0.159-0.002-0.318-0.073-0.474-0.095c-0.524-0.069-0.917,0.011-1.419,0.048c-0.264,0.02-0.529,0.002-0.803,0
				c-0.43-0.004-0.881-0.057-1.184,0c-0.117,0.021-0.232,0.033-0.33,0.047c-0.234,0.035-0.508,0.048-0.662,0.095
				c-0.166,0.051-0.324,0.204-0.521,0.284c-0.221,0.09-0.505,0.099-0.661,0.188c-0.148,0.085-0.248,0.253-0.379,0.379
				c-0.133,0.128-0.243,0.257-0.426,0.331c-0.051,0.374-0.32,0.578-0.378,0.898c-0.038,0.212-0.012,0.558,0,0.851
				c0.017,0.431,0.051,0.831,0.142,1.04c0.143,0.331,0.318,0.684,0.473,0.946c0.033,0.056,0.102,0.074,0.143,0.142
				c0.051,0.086,0.053,0.195,0.094,0.236c0.238,0.237,0.625,0.192,0.71,0.521c0.292-0.082,0.481,0.111,0.709,0.189
				c0.229,0.077,0.557,0.179,0.757,0.188c0.338,0.018,0.705-0.142,1.088-0.142c0.225,0,0.588,0.096,0.898,0.095
				c0.28-0.001,0.617-0.095,0.945-0.095c0.25,0,0.501,0.101,0.756,0.095c0.412-0.01,0.818-0.123,1.23-0.095
				c0.107,0.007,0.252-0.001,0.283,0c0.112,0.003,0.209,0.05,0.331,0.048c0.427-0.01,1.559-0.101,1.749,0
				c0.015,0.007,0.112,0.088,0.143,0.142c0.045,0.08-0.039,0.091,0,0.188c0.061,0.154,0.17,0.307,0.189,0.426
				c0.076,0.489-0.009,1.055-0.048,1.561c-0.04,0.521-0.13,1.031-0.095,1.561c0.017,0.25,0.088,0.491,0.095,0.757
				c0.005,0.219-0.033,0.445-0.048,0.662c-0.012,0.18-0.004,0.349,0,0.52c0.008,0.232,0.041,0.438,0.048,0.662
				c0.008,0.243-0.056,0.479-0.048,0.709c0.006,0.119,0.077,0.245,0.096,0.379c0.059,0.444,0.101,0.888,0.236,1.182
				c0.062,0.135,0.143,0.187,0.188,0.236c0.032,0.034,0.016,0.107,0.048,0.142c0.055,0.061,0.127,0.091,0.189,0.143
				c0.113,0.097,0.281,0.17,0.425,0.283c0.149,0.118,0.316,0.307,0.427,0.379c0.233,0.155,0.379,0.239,0.662,0.331
				c0.398,0.13,0.58,0.032,1.086,0c0.299-0.02,0.641,0.029,0.852,0c0.313-0.044,0.596-0.311,0.804-0.426
				c0.115-0.063,0.245-0.063,0.284-0.095c0.063-0.049,0.117-0.189,0.189-0.283c0.272-0.361,0.576-0.718,0.709-1.136
				c0.08-0.255,0.191-0.514,0.236-0.756c0.098-0.534-0.027-0.946-0.047-1.514c-0.014-0.372-0.039-0.759-0.048-1.135
				c-0.007-0.294,0.058-0.574,0.048-0.851c-0.01-0.248-0.099-0.472-0.096-0.71c0.004-0.282,0.072-0.559,0.096-0.851
				c0.011-0.152-0.02-0.319,0-0.473c0.018-0.148,0.09-0.285,0.094-0.426c0.004-0.095-0.037-0.228-0.047-0.331
				c-0.054-0.539-0.08-0.856,0.236-1.183c0.285,0.036,0.561-0.025,0.852-0.047c0.293-0.021,0.599-0.034,0.898-0.047
				c0.455-0.021,0.944,0.018,1.418,0c0.141-0.006,0.333-0.056,0.473-0.048c0.273,0.016,0.521,0.139,0.805,0.142
				c0.359,0.004,0.978-0.152,1.323-0.142c0.269,0.009,0.533,0.094,0.804,0.095c0.518,0.002,1.324-0.054,1.655-0.142
				c0.294-0.079,0.785-0.368,1.04-0.521c0.332-0.198,0.315-0.201,0.473-0.521c0.129-0.259,0.215-0.427,0.332-0.662
				c0.156-0.315,0.186-0.433,0.236-0.851C41.893,26.368,41.858,26.097,41.79,25.74z M39.852,26.828
				c-0.035,0.059-0.153,0.143-0.236,0.236c-0.236,0.269-0.299,0.258-0.757,0.378c-0.167,0.044-0.355,0.121-0.521,0.143
				c-0.416,0.054-0.869,0.041-1.229,0.047c-0.787,0.012-1.58-0.029-2.364,0c-0.437,0.017-0.825-0.044-1.183-0.047
				c-0.377-0.004-0.748,0.047-1.135,0.047c-0.396,0-0.845-0.06-1.277,0c-0.191,0.026-0.417,0.15-0.662,0.236
				c-0.238,0.084-0.533,0.123-0.661,0.236c-0.029,0.026-0.021,0.113-0.047,0.142c-0.015,0.016-0.087,0.032-0.095,0.048
				c-0.07,0.125-0.081,0.305-0.143,0.473c-0.158,0.438-0.115,1.278-0.142,1.986c-0.021,0.563-0.052,1.121-0.048,1.655
				c0.011,1.171,0.123,2.355,0.048,3.404c-0.029,0.408-0.151,0.821-0.284,1.182c-0.066,0.183-0.098,0.389-0.189,0.521
				c-0.084,0.123-0.287,0.291-0.377,0.331c-0.076,0.033-0.53,0.114-0.662,0.095c-0.369-0.056-0.564-0.473-0.756-0.804
				c-0.217-0.372-0.309-0.932-0.332-1.608c-0.047-1.337-0.047-2.796-0.047-3.972c0-0.346,0.031-0.664,0.047-0.993
				c0.031-0.688,0.045-1.244-0.189-1.892c-0.172-0.475-0.188-0.633-0.709-0.851c-0.064-0.027-0.196-0.063-0.283-0.095
				c-0.48-0.18-1.508-0.117-2.033-0.142c-0.361-0.018-0.688,0.048-0.994,0.047c-0.721-0.002-1.404-0.046-2.08-0.047
				c-0.354-0.001-0.729,0.096-1.088,0.094c-0.203-0.001-0.449-0.076-0.709-0.094c-0.406-0.028-0.756-0.021-1.088-0.095
				c-0.357-0.08-0.846-0.263-1.087-0.521c-0.048-0.05-0.165-0.146-0.189-0.189c-0.06-0.108-0.067-0.145-0.095-0.283
				c-0.019-0.096-0.059-0.247-0.047-0.331c0.057-0.439,0.422-0.56,0.756-0.709c0.103-0.046,0.152-0.116,0.237-0.143
				c0.161-0.049,0.382-0.029,0.614-0.094c0.066-0.019,0.137-0.082,0.236-0.095c0.295-0.039,0.632-0.033,0.945-0.048
				c1.002-0.045,2.02-0.035,3.074-0.047c0.904-0.01,1.838,0.134,2.742,0.047c0.379-0.036,0.792-0.155,1.182-0.283
				c0.264-0.086,0.337-0.133,0.475-0.379c0.011-0.021,0.089-0.078,0.094-0.094c0.033-0.111,0.047-0.259,0.094-0.379
				c0.191-0.478,0.143-1.38,0.143-2.223c0-0.607,0.037-1.24,0.047-1.797c0.007-0.398-0.053-0.839-0.047-1.276
				c0.002-0.211,0.002-0.403,0-0.614c-0.008-1.091,0.008-2.215,0.473-2.979c0.033-0.055,0.01-0.055,0.047-0.095
				c0.096-0.1,0.234-0.341,0.474-0.426c0.134-0.047,0.644-0.07,0.804,0c0.193,0.086,0.375,0.486,0.52,0.757
				c0.307,0.569,0.217,1.827,0.236,2.648c0.019,0.747-0.02,1.521,0,2.316c0.004,0.148,0.052,0.284,0.048,0.426
				c-0.007,0.257-0.085,0.528-0.095,0.804c-0.021,0.546-0.082,1.202,0,1.797c0.023,0.174,0.143,0.438,0.236,0.709
				c0.174,0.503,0.161,0.682,0.662,0.852c0.059,0.02,0.156,0.021,0.236,0.048c0.955,0.313,2.838,0.109,4.066,0.142
				c0.598,0.016,1.154,0.041,1.703,0.047c0.152,0.002,0.309-0.053,0.473-0.047c0.346,0.012,0.904,0,1.371,0.047
				c0.211,0.021,0.391,0.107,0.567,0.143c0.452,0.088,0.792,0.064,1.088,0.33c0.093,0.084,0.249,0.274,0.283,0.426
				C40.059,26.267,39.973,26.623,39.852,26.828z"/>
		</g>
	</g>
	<g>
		<g>
			<path fill-rule="evenodd" clip-rule="evenodd" fill="#005643" d="M131.443,15.763c-1.581-1.982-3.817-3.385-6.855-3.926
				c-4.072-0.725-7.935,0.302-10.403,1.986c-0.05,0.035-0.145,0.064-0.188,0.095c-0.165,0.113-0.316,0.29-0.426,0.378
				c-0.063,0.05-0.132,0.048-0.189,0.095c-0.133,0.108-0.253,0.228-0.379,0.284c-0.012,0.006-0.033,0.083-0.047,0.095
				c-0.17,0.144-0.326,0.243-0.473,0.378c-0.287,0.265-0.578,0.589-0.803,0.852c-0.039,0.045-0.09,0.081-0.143,0.142
				c-0.042,0.048-0.051,0.137-0.096,0.188c-0.083,0.098-0.201,0.183-0.283,0.284c-0.281,0.351-0.605,0.786-0.804,1.135
				c-0.112,0.198-0.239,0.359-0.331,0.521c-0.036,0.063-0.012,0.127-0.047,0.188c-0.03,0.054-0.108,0.079-0.143,0.143
				c-0.063,0.117-0.125,0.252-0.189,0.378c-0.514,1.023-0.964,2.226-1.182,3.452c-0.012,0.067-0.082,0.13-0.094,0.188
				c-0.16,0.773-0.238,1.642-0.284,2.507c-0.142,2.654,0.378,5.283,1.323,7.424c1.751,3.96,5.276,6.818,9.931,7.707
				c1.232,0.235,2.777,0.31,4.161,0.237c1.531-0.081,3-0.432,4.209-0.757c0.43-0.116,0.871-0.232,1.276-0.378
				c0.412-0.149,0.841-0.326,1.183-0.474c0.184-0.079,0.408-0.171,0.566-0.236c0.998-0.41,1.822-1.016,2.791-1.419
				c-0.078-0.325-0.309-0.564-0.473-0.851c-0.043-0.073-0.05-0.156-0.096-0.236c-0.236-0.413-0.533-0.921-0.756-1.277
				c-0.1-0.158-0.157-0.284-0.236-0.426c-0.041-0.072-0.103-0.119-0.143-0.188c-0.078-0.136-0.1-0.365-0.283-0.426
				c-1.381,0.712-3.034,1.39-4.871,1.702c-1.772,0.302-3.824,0.113-5.201-0.283c-0.863-0.249-1.623-0.589-2.27-0.993
				c-0.084-0.053-0.145-0.124-0.236-0.189c-0.074-0.052-0.215-0.09-0.283-0.142c-0.067-0.05-0.123-0.135-0.189-0.189
				c-0.373-0.301-0.805-0.665-1.088-0.993c-0.029-0.034-0.021-0.108-0.047-0.142c-0.031-0.04-0.111-0.054-0.143-0.095
				c-0.029-0.037-0.023-0.107-0.047-0.142c-0.092-0.133-0.207-0.222-0.284-0.331c-0.183-0.258-0.337-0.54-0.473-0.804
				c-0.565-1.1-0.917-2.474-0.946-4.02c6.305,0,12.609,0,18.915,0C134.598,22.23,133.607,18.474,131.443,15.763z M127.709,23.091
				c-4.083,0-8.165,0-12.248,0c0.139-2.092,0.855-3.84,1.893-5.106c0.035-0.044,0.099-0.086,0.142-0.142
				c0.19-0.254,0.494-0.552,0.804-0.757c0.045-0.029,0.11-0.09,0.189-0.142c0.044-0.029,0.109-0.09,0.189-0.142
				c0.918-0.61,2.07-1.152,3.734-1.04c0.336,0.021,0.662,0.1,0.993,0.188c0.558,0.149,1.024,0.319,1.466,0.615
				c0.129,0.085,0.321,0.257,0.473,0.378c0.219,0.174,0.365,0.291,0.568,0.52C126.998,18.7,127.76,20.692,127.709,23.091z"/>
		</g>
	</g>
	<g>
		<g>
			<path fill-rule="evenodd" clip-rule="evenodd" fill="#FAA31A" d="M22.403,16.614c-0.034-0.155-0.005-0.314-0.048-0.426
				c-0.041-0.104-0.19-0.201-0.283-0.331c-0.035-0.048-0.059-0.137-0.095-0.188c-0.278-0.401-0.585-0.839-0.898-0.993
				c-0.212-0.104-0.405-0.14-0.614-0.236c-0.256-0.119-0.541-0.338-0.758-0.379c-0.299-0.056-0.613,0.02-0.898,0.048
				c-0.03,0.003-0.063-0.001-0.094,0c-0.607,0.021-0.896,0.147-1.277,0.378c-0.067,0.041-0.164,0.098-0.235,0.142
				c-0.294,0.183-0.563,0.504-0.804,0.71c-0.09,0.075-0.207,0.145-0.237,0.188c-0.091,0.133-0.095,0.38-0.188,0.567
				c-0.014,0.026-0.074,0.059-0.095,0.095c-0.06,0.104-0.101,0.165-0.142,0.236c-0.121,0.208-0.074,0.628-0.096,0.898
				c-0.041,0.537-0.051,0.935,0.096,1.324c0.025,0.071,0.102,0.109,0.142,0.189c0.044,0.087,0.056,0.22,0.095,0.283
				c0.076,0.128,0.212,0.234,0.33,0.379c0.107,0.129,0.215,0.303,0.332,0.425c0.476,0.504,0.858,0.698,1.607,0.898
				c0.118,0.032,0.285,0.066,0.426,0.095c0.361,0.075,0.423,0.057,0.709,0c0.409-0.081,0.936-0.132,1.182-0.283
				c0.158-0.097,0.218-0.172,0.332-0.236c0.078-0.045,0.137-0.062,0.188-0.095c0.187-0.119,0.337-0.24,0.474-0.331
				c0.17-0.114,0.158-0.112,0.235-0.236c0.075-0.121,0.165-0.222,0.237-0.331c0.101-0.153,0.268-0.331,0.33-0.473
				c0.07-0.16,0.086-0.401,0.143-0.615c0.059-0.227,0.141-0.454,0.142-0.614C22.641,17.422,22.458,16.868,22.403,16.614z
				 M18.715,19.167c-0.477-0.114-1.138-0.655-1.277-1.135c-0.07-0.242-0.104-0.661-0.047-0.946c0.016-0.079,0.093-0.17,0.143-0.283
				c0.043-0.102,0.084-0.27,0.094-0.284c0.016-0.021,0.119-0.029,0.143-0.047c0.07-0.055,0.185-0.211,0.283-0.284
				c0.075-0.056,0.156-0.091,0.236-0.142c0.217-0.136,0.331-0.18,0.757-0.189c0.011,0,0.048-0.057,0.095-0.047
				c0.246,0.05,0.578,0.173,0.804,0.283c0.098,0.049,0.226,0.087,0.236,0.095c0.042,0.034,0.043,0.125,0.095,0.189
				c0.089,0.111,0.306,0.251,0.378,0.426c0.053,0.127,0.021,0.276,0.048,0.425c0.029,0.156,0.096,0.275,0.094,0.379
				C20.775,18.497,19.799,19.426,18.715,19.167z"/>
		</g>
	</g>
	<g>
		<g>
			<path fill-rule="evenodd" clip-rule="evenodd" fill="#FAA31A" d="M40.607,17.276c-0.045-0.376-0.102-0.567-0.188-0.804
				c-0.044-0.117-0.052-0.231-0.095-0.331c-0.105-0.251-0.337-0.499-0.473-0.662c-0.23-0.275-0.545-0.691-0.709-0.804
				c-0.041-0.028-0.106-0.025-0.143-0.048c-0.193-0.12-0.385-0.202-0.709-0.283c-0.213-0.054-0.494-0.124-0.709-0.142
				c-0.202-0.017-0.51,0.064-0.757,0.047c-0.13-0.009-0.371-0.147-0.378-0.047c-0.26,0.086-0.488,0.188-0.709,0.283
				c-0.092,0.04-0.178,0.098-0.284,0.142c-0.128,0.055-0.231,0.034-0.331,0.095c-0.047,0.028-0.166,0.215-0.189,0.236
				c-0.034,0.032-0.105,0.016-0.142,0.048c-0.14,0.125-0.328,0.334-0.473,0.52c-0.079,0.102-0.192,0.332-0.236,0.379
				c-0.17,0.177-0.21,0.327-0.284,0.567c-0.179,0.576-0.209,1.162-0.095,1.749c0.041,0.206,0.081,0.444,0.142,0.615
				c0.072,0.2,0.176,0.29,0.284,0.473c0.072,0.12,0.118,0.27,0.189,0.378c0.16,0.244,0.394,0.519,0.521,0.615
				c0.096,0.072,0.422,0.219,0.52,0.283c0.113,0.075,0.216,0.147,0.331,0.189c0.307,0.111,0.991,0.145,1.372,0.189
				c0.184,0.021,0.385,0.051,0.52,0.047c0.473-0.012,0.553-0.133,0.898-0.283c0.217-0.096,0.529-0.176,0.662-0.284
				c0.174-0.142,0.389-0.271,0.52-0.378c0.172-0.14,0.322-0.302,0.379-0.426c0.006-0.015,0.082-0.031,0.094-0.047
				c0.188-0.261,0.274-0.432,0.332-0.757c0.068-0.399,0.184-0.792,0.188-1.088C40.658,17.615,40.629,17.449,40.607,17.276z
				 M38.764,17.938c-0.015,0.189-0.052,0.329-0.142,0.52c-0.044,0.095-0.122,0.261-0.142,0.284
				c-0.021,0.024-0.115,0.027-0.143,0.047c-0.066,0.052-0.174,0.17-0.283,0.236c-0.318,0.195-0.478,0.275-1.041,0.236
				c-0.262-0.018-0.445-0.069-0.613-0.142c-0.1-0.042-0.186-0.076-0.285-0.142c-0.113-0.075-0.326-0.287-0.425-0.473
				c-0.149-0.284-0.339-0.782-0.236-1.229c0.082-0.357,0.189-0.531,0.378-0.757s0.489-0.438,0.898-0.52
				c0.133-0.027,0.393-0.036,0.662,0c0.373,0.049,0.529,0.047,0.757,0.236c0.038,0.031,0.048,0.063,0.095,0.094
				c0.053,0.035,0.176,0.157,0.236,0.237c0.033,0.042,0.012,0.104,0.047,0.142c0.066,0.071,0.125,0.181,0.189,0.378
				c0.088,0.269,0.079,0.347,0.047,0.71c-0.003,0.036,0.06,0.049,0.047,0.094C38.809,17.902,38.768,17.896,38.764,17.938z"/>
		</g>
	</g>
	<g>
		<g>
			<path fill-rule="evenodd" clip-rule="evenodd" fill="#FAA31A" d="M40.372,34.393c-0.051-0.184-0.074-0.39-0.142-0.567
				c-0.053-0.137-0.176-0.284-0.237-0.426c-0.017-0.039,0.013-0.101,0-0.142c-0.005-0.018-0.085-0.071-0.095-0.095
				c-0.044-0.101-0.055-0.226-0.094-0.283c-0.053-0.079-0.237-0.227-0.284-0.284c-0.026-0.031-0.063-0.114-0.095-0.142
				c-0.038-0.033-0.157-0.044-0.236-0.095c-0.076-0.049-0.119-0.105-0.189-0.142c-0.148-0.077-0.313-0.137-0.473-0.189
				c-0.613-0.201-1.102-0.309-1.891-0.283c-0.271,0.008-0.606-0.008-0.805,0.047c-0.238,0.066-0.439,0.278-0.662,0.426
				c-0.221,0.146-0.439,0.29-0.709,0.426c-0.093,0.486-0.412,0.76-0.615,1.087c-0.076,0.123-0.201,0.266-0.236,0.379
				c-0.053,0.179-0.038,0.509-0.047,0.756c-0.01,0.302-0.037,0.652,0,0.898c0.031,0.206,0.17,0.41,0.236,0.615
				c0.08,0.245,0.127,0.474,0.143,0.709c0.182,0.15,0.316,0.333,0.52,0.521c0.17,0.156,0.395,0.379,0.567,0.473
				c0.156,0.085,0.383,0.11,0.614,0.189c0.377,0.128,0.68,0.255,1.135,0.283c0.236,0.015,0.434,0.017,0.615,0
				c0.234-0.021,0.447-0.12,0.709-0.189c0.253-0.065,0.553-0.09,0.757-0.188c0.167-0.081,0.284-0.239,0.426-0.379
				c0.224-0.218,0.449-0.443,0.614-0.661c0.031-0.042,0.016-0.097,0.048-0.143c0.026-0.038,0.116-0.053,0.142-0.095
				c0.043-0.069,0.096-0.19,0.143-0.283c0.116-0.235,0.146-0.365,0.188-0.614c0.021-0.129,0.035-0.237,0.048-0.332
				C40.543,35.076,40.492,34.834,40.372,34.393z M38.67,35.481c-0.018,0.143-0.082,0.232-0.143,0.331
				c-0.092,0.148-0.199,0.357-0.331,0.52c-0.178,0.221-0.661,0.459-1.134,0.473c-0.393,0.012-0.744-0.091-0.993-0.235
				c-0.13-0.075-0.249-0.129-0.331-0.237c-0.026-0.033-0.018-0.106-0.048-0.142c-0.065-0.077-0.175-0.113-0.189-0.142
				c-0.029-0.059-0.063-0.248-0.094-0.379c-0.058-0.249-0.138-0.606-0.048-0.992c0.052-0.222,0.174-0.27,0.236-0.379
				c0.113-0.195,0.105-0.361,0.379-0.52c0.148-0.087,0.346-0.186,0.614-0.236c0.437-0.084,1.126-0.017,1.466,0.188
				c0.02,0.012,0.031,0.088,0.047,0.095c0.219,0.099,0.257,0.258,0.379,0.567C38.617,34.741,38.736,34.932,38.67,35.481z"/>
		</g>
	</g>
	<g>
		<g>
			<path fill-rule="evenodd" clip-rule="evenodd" fill="#FAA31A" d="M22.545,34.724c-0.066-0.362-0.152-0.637-0.236-0.852
				c-0.106-0.271-0.248-0.416-0.379-0.567c-0.043-0.051-0.059-0.147-0.094-0.188c-0.207-0.236-0.564-0.483-0.805-0.662
				c-0.101-0.075-0.207-0.194-0.283-0.236c-0.094-0.052-0.277-0.085-0.426-0.143c-0.146-0.057-0.303-0.159-0.426-0.188
				c-0.344-0.083-1.029-0.067-1.276,0c-0.268,0.072-0.663,0.147-0.851,0.236c-0.225,0.106-0.472,0.223-0.662,0.331
				c-0.291,0.165-0.627,0.375-0.757,0.52c-0.015,0.018,0.009,0.074,0,0.095c-0.007,0.016-0.083,0.03-0.095,0.048
				c-0.015,0.021,0.011,0.07,0,0.095c-0.008,0.017-0.084,0.027-0.095,0.047c-0.079,0.143-0.103,0.389-0.188,0.614
				c-0.038,0.098-0.103,0.191-0.143,0.284c-0.104,0.243-0.167,0.404-0.189,0.709c-0.02,0.283,0.039,0.634,0.048,0.946
				c0.003,0.12-0.058,0.225-0.048,0.331c0.021,0.211,0.153,0.496,0.189,0.567c0.034,0.066,0.014,0.125,0.048,0.188
				c0.276,0.522,0.83,0.715,1.134,1.229c0.423,0.063,0.682,0.379,1.041,0.473c0.137,0.036,0.354,0.016,0.52,0.048
				c0.168,0.032,0.347,0.141,0.474,0.142c0.037,0.001,0.173-0.07,0.284-0.094c0.262-0.058,0.428-0.104,0.614-0.143
				c0.237-0.05,0.329-0.082,0.425-0.142c0.047-0.029,0.089-0.018,0.143-0.048c0.217-0.118,0.336-0.246,0.52-0.33
				c0.105-0.049,0.253-0.045,0.332-0.095c0.029-0.019,0.092-0.099,0.142-0.143c0.142-0.124,0.281-0.292,0.378-0.378
				c0.018-0.016,0.078,0.016,0.095,0s-0.014-0.075,0-0.095c0.049-0.068,0.063-0.123,0.095-0.188
				c0.068-0.146,0.184-0.278,0.236-0.379c0.17-0.323,0.154-0.974,0.236-1.371c0.024-0.116,0.094-0.262,0.095-0.331
				C22.641,34.985,22.564,34.834,22.545,34.724z M20.417,36.379c-0.032,0.027-0.065,0.02-0.095,0.047
				c-0.189,0.183-0.725,0.495-1.088,0.521c-0.175,0.012-0.496-0.048-0.709-0.095c-0.176-0.039-0.438-0.234-0.614-0.378
				c-0.161-0.132-0.321-0.274-0.378-0.379c-0.036-0.063-0.02-0.118-0.048-0.188c-0.014-0.035-0.091-0.123-0.095-0.143
				c-0.035-0.17-0.017-0.828,0.047-1.04c0.024-0.079,0.133-0.181,0.189-0.284c0.07-0.127,0.121-0.309,0.143-0.33
				c-0.003,0.002,0.129-0.025,0.236-0.095c0.094-0.063,0.185-0.165,0.33-0.236c0.164-0.08,0.375-0.125,0.662-0.143
				c0.496-0.03,0.891,0.131,1.23,0.426c0.379,0.33,0.523,0.636,0.52,1.183C20.745,35.599,20.668,36.163,20.417,36.379z"/>
		</g>
	</g>
</g>
</svg>
