<?xml version="1.0" encoding="utf-8"?>
<!-- Generator: Adobe Illustrator 16.0.0, SVG Export Plug-In . SVG Version: 6.00 Build 0)  -->
<!DOCTYPE svg PUBLIC "-//W3C//DTD SVG 1.1//EN" "http://www.w3.org/Graphics/SVG/1.1/DTD/svg11.dtd">
<svg version="1.1" id="Layer_1" xmlns="http://www.w3.org/2000/svg" xmlns:xlink="http://www.w3.org/1999/xlink" x="0px" y="0px"
	 width="183.066px" height="38.75px" viewBox="0 0 183.066 38.75" enable-background="new 0 0 183.066 38.75" xml:space="preserve">
<g>
	<path fill-rule="evenodd" clip-rule="evenodd" fill="#DD1F26" d="M10.239,19.604c-1.004-1.592-1.222-3.709-1.222-5.334
		c0-5.531,4.94-10.2,10.089-10.2h16.133l-6.26,6.316h-9.982C14.983,10.386,10.13,14.454,10.239,19.604L10.239,19.604z
		 M16.392,15.076c0.414-1.331,1.713-3.032,2.936-3.927c-2.336,0-4.965,1.113-6.972,3.927H16.392L16.392,15.076z M19.62,11.936
		c-0.916,0.808-1.92,2.028-2.432,3.141h4.842C21.519,13.964,20.515,12.743,19.62,11.936L19.62,11.936z M11.952,15.895
		c-0.6,1.08-0.895,2.302-1.004,3.523h4.527c0-1.222,0.219-2.443,0.62-3.523H11.952L11.952,15.895z M16.882,15.895
		c-0.402,1.08-0.589,2.302-0.697,3.523h6.85c-0.109-1.222-0.295-2.443-0.697-3.523H16.882L16.882,15.895z M26.776,15.076
		c-1.92-2.813-4.55-3.927-6.851-3.927c1.188,0.895,2.411,2.596,2.923,3.927H26.776L26.776,15.076z M23.144,15.895
		c0.414,1.08,0.6,2.302,0.6,3.523h4.527c-0.076-1.222-0.383-2.443-1.004-3.523H23.144L23.144,15.895z M12.355,24.349
		c2.007,2.934,4.636,3.938,6.972,3.938c-1.223-0.927-2.521-2.629-2.936-3.938H12.355L12.355,24.349z M19.62,27.577
		c0.895-0.807,1.898-2.116,2.41-3.229h-4.842C17.7,25.461,18.704,26.771,19.62,27.577L19.62,27.577z M16.096,23.65
		c-0.401-1.222-0.62-2.422-0.62-3.523h-4.527c0.109,1.188,0.404,2.411,1.004,3.523H16.096L16.096,23.65z M22.337,23.65
		c0.402-1.112,0.588-2.335,0.697-3.523h-6.85c0.108,1.188,0.295,2.411,0.697,3.523H22.337L22.337,23.65z M22.849,24.349
		c-0.512,1.309-1.734,3.011-2.923,3.938c2.301,0,4.931-1.004,6.851-3.938H22.849L22.849,24.349z M27.267,23.65
		c0.621-1.112,0.928-2.335,1.004-3.523h-4.527c0,1.102-0.186,2.302-0.6,3.523H27.267L27.267,23.65z M28.979,19.712
		c0.109,5.345-4.723,9.381-8.76,9.381h-9.98l-6.262,6.24h16.134c5.149,0,10.089-4.636,10.089-10.166
		c0-1.625-0.195-3.742-1.221-5.346V19.712L28.979,19.712z"/>
	<path fill-rule="evenodd" clip-rule="evenodd" fill="#DD1F26" d="M76.143,28.266c-4.192,0-7.194-2.518-7.194-6.458
		c0-3.891,3.111-6.479,7.194-6.479s7.192,2.571,7.192,6.479C83.335,25.748,80.309,28.266,76.143,28.266L76.143,28.266z
		 M147.815,15.629v12.376h-4.182l-0.063-1.247h-0.091c-0.464,0.417-1.43,1.521-4.125,1.521c-2.99,0-5.611-2.599-5.611-6.474
		c0-3.595,2.324-6.464,5.887-6.464c2.422,0,3.412,1.066,3.783,1.408h0.111l0.043-1.12H147.815L147.815,15.629z M115.538,15.634
		v12.378h-4.184l-0.063-1.249h-0.09c-0.465,0.418-1.43,1.521-4.125,1.521c-2.991,0-5.611-2.6-5.611-6.472
		c0-3.596,2.324-6.466,5.886-6.466c2.423,0,3.413,1.068,3.784,1.409h0.111l0.041-1.122H115.538L115.538,15.634z M95.222,15.644
		h4.314V28.03h-4.314V15.644L95.222,15.644z M118.315,28.001V10.548h4.297v5.981h0.047c0.303-0.189,1.695-1.188,3.736-1.188
		c3.348,0,5.807,2.688,5.807,6.249c0,4.447-2.727,6.687-5.832,6.687c-2.35,0-3.541-1.093-3.836-1.411h-0.068l-0.063,1.135H118.315
		L118.315,28.001z M76.143,25.169c1.749,0,2.776-1.533,2.776-3.361c0-1.852-0.979-3.385-2.776-3.385
		c-1.879,0-2.778,1.533-2.778,3.385C73.364,23.636,74.396,25.169,76.143,25.169L76.143,25.169z M93.134,24.638
		c-0.211,0.059-0.791,0.209-1.19,0.209c-0.873,0-1.825-0.408-1.825-1.922v-4.184h2.706V15.63h-2.706v-3.986h-4.307v3.986h-1.883
		v3.111h1.883v4.896c0,2.691,1.25,4.622,4.436,4.622c0.924,0,1.772-0.124,2.356-0.234L93.134,24.638L93.134,24.638z M44.175,27.552
		c1.203,0.365,3.033,0.7,4.974,0.7c3.674,0,7.341-1.302,7.341-5.336c0-5.536-7.634-4.77-7.634-6.976c0-1.13,1.173-1.373,2.324-1.373
		c1.594,0,3.612,0.765,4.062,0.947l0.347-3.813c-1.113-0.38-2.806-0.595-4.394-0.595c-3.627,0-7.207,1.416-7.207,5.01
		c0,5.438,7.613,4.304,7.613,7.159c0,1.097-1.096,1.514-2.494,1.514c-1.922,0-3.729-0.961-4.51-1.31L44.175,27.552L44.175,27.552z
		 M138.302,21.69c0,2.048,1.143,3.326,2.622,3.326c1.34,0,2.646-1.254,2.646-3.156c0-1.918-1.157-3.23-2.646-3.23
		C139.384,18.63,138.302,20.005,138.302,21.69L138.302,21.69z M106.024,21.698c0,2.045,1.143,3.324,2.621,3.324
		c1.34,0,2.646-1.254,2.646-3.156c0-1.917-1.157-3.229-2.646-3.229C107.105,18.638,106.024,20.011,106.024,21.698L106.024,21.698z
		 M67.852,15.825c-0.322-0.09-1.505-0.496-3.071-0.496c-3.879,0-6.785,2.428-6.785,6.471c0,3.674,2.609,6.471,6.612,6.471
		c1.704,0,2.958-0.455,3.244-0.541l-0.21-3.609c-0.332,0.15-1.191,0.642-2.18,0.642c-1.737,0-3.007-1.229-3.007-2.962
		c0-1.818,1.358-2.989,3.057-2.989c0.958,0,1.811,0.446,2.13,0.604L67.852,15.825L67.852,15.825z M166.161,28.013h4.293v-5.729
		h0.046l3.813,5.729h4.779l-4.604-6.561l4.486-5.8h-4.773l-3.702,5.103h-0.046V10.563h-4.293V28.013L166.161,28.013z
		 M150.601,28.012h4.189v-6.394c0-1.499,0.992-2.523,2.263-2.523c1.45,0,2.272,0.942,2.272,2.523v6.394h4.19V20.56
		c0-2.805-1.806-5.206-5.12-5.206c-2.214,0-3.365,1.202-3.891,1.676h-0.088l-0.042-1.371h-3.774V28.012L150.601,28.012z
		 M97.382,9.374c-1.33,0-2.42,1.09-2.42,2.419c0,1.326,1.09,2.417,2.42,2.417c1.325,0,2.416-1.091,2.416-2.417
		C99.798,10.464,98.707,9.374,97.382,9.374L97.382,9.374z M127.745,21.813c0-1.655-0.944-3.126-2.588-3.126
		c-1.447,0-2.611,1.236-2.611,3.126c0,1.832,0.955,3.136,2.611,3.136C126.653,24.948,127.745,23.705,127.745,21.813L127.745,21.813z
		"/>
</g>
</svg>
