<?xml version="1.0" encoding="utf-8"?>
<!-- Generator: Adobe Illustrator 16.0.0, SVG Export Plug-In . SVG Version: 6.00 Build 0)  -->
<!DOCTYPE svg PUBLIC "-//W3C//DTD SVG 1.1//EN" "http://www.w3.org/Graphics/SVG/1.1/DTD/svg11.dtd">
<svg version="1.1" id="Layer_1" xmlns="http://www.w3.org/2000/svg" xmlns:xlink="http://www.w3.org/1999/xlink" x="0px" y="0px"
	 width="192.58px" height="36.5px" viewBox="0 0 192.58 36.5" enable-background="new 0 0 192.58 36.5" xml:space="preserve">
<g>
	<polygon fill-rule="evenodd" clip-rule="evenodd" fill="#005C43" points="174.332,1.863 175.125,1.787 175.955,1.863
		177.239,2.051 177.994,2.24 178.675,2.542 179.203,2.881 179.618,3.222 180.298,4.014 180.826,4.958 181.242,6.054 181.506,7.261
		181.506,34.977 172.18,34.977 172.18,11.98 171.84,11.189 171.16,10.584 170.404,10.169 169.536,10.056 168.781,10.169
		167.913,10.697 167.422,11.34 166.969,12.209 166.969,34.977 157.605,34.977 157.605,2.656 166.969,2.656 166.969,5.789
		168.178,4.769 168.934,4.09 169.461,3.599 170.141,3.222 170.934,2.806 171.877,2.391 172.973,2.051 174.332,1.863 	"/>
	<polygon fill-rule="evenodd" clip-rule="evenodd" fill="#005C43" points="76.424,2.656 76.424,27.803 83.107,27.803 83.107,34.977
		66.945,34.977 66.945,2.656 76.424,2.656 	"/>
	<polygon fill-rule="evenodd" clip-rule="evenodd" fill="#005C43" points="117.24,2.656 120.828,23.271 124.791,2.656
		132.117,2.656 125.963,34.977 111.954,34.977 107.234,2.656 117.24,2.656 	"/>
	<polygon fill-rule="evenodd" clip-rule="evenodd" fill="#005C43" points="152.395,2.656 152.395,9.83 144.615,9.83 144.615,15.721
		152.395,15.721 152.395,21.912 144.615,21.912 144.615,27.803 152.395,27.803 152.395,34.977 135.213,34.977 135.213,2.656
		152.395,2.656 	"/>
	<polygon fill-rule="evenodd" clip-rule="evenodd" fill="#005C43" points="38.891,15.795 38.891,21.988 27.902,21.988
		27.902,15.795 38.891,15.795 	"/>
	<polygon fill-rule="evenodd" clip-rule="evenodd" fill="#005C43" points="60.791,2.656 60.791,9.83 52.861,9.83 52.861,15.721
		60.791,15.721 60.791,21.912 52.861,21.912 52.861,27.803 60.791,27.803 60.791,34.977 43.535,34.977 43.535,2.656 60.791,2.656
		"/>
	<polygon fill-rule="evenodd" clip-rule="evenodd" fill="#005C43" points="103.723,2.656 103.723,9.83 95.832,9.83 95.832,15.721
		103.723,15.721 103.723,21.912 95.832,21.912 95.832,27.803 103.723,27.803 103.723,34.977 86.43,34.977 86.43,2.656
		103.723,2.656 	"/>
	<polygon fill-rule="evenodd" clip-rule="evenodd" fill="#F4752A" points="2,10.357 13.026,10.357 15.518,7.601 16.877,6.318
		18.578,4.958 20.05,3.939 21.898,2.806 2,2.806 2,10.357 	"/>
	<path fill-rule="evenodd" clip-rule="evenodd" fill="#EE2728" d="M26.166,2.523c-6.141,1.535-12.136,7.483-13.959,11.848
		c-3.885,8.826-3.214,20.674-3.214,20.674s6.716-0.049,9.546-0.049c-0.107-8.383-0.049-13.574,1.15-17.65
		c1.199-4.078,6.477-6.764,6.477-6.764V2.523L26.166,2.523z"/>
	<path fill-rule="evenodd" clip-rule="evenodd" fill="#005C43" d="M184.189,31.406c0-1.775,1.338-3.113,3.053-3.113
		c1.696,0,3.035,1.338,3.035,3.113c0,1.805-1.339,3.133-3.035,3.133C185.527,34.539,184.189,33.211,184.189,31.406L184.189,31.406z
		 M187.242,35.164c2.043,0,3.788-1.588,3.788-3.758c0-2.152-1.745-3.738-3.788-3.738c-2.062,0-3.807,1.586-3.807,3.738
		C183.436,33.576,185.181,35.164,187.242,35.164L187.242,35.164z M186.449,31.703h0.754l1.14,1.873h0.734l-1.229-1.902
		c0.635-0.078,1.12-0.416,1.12-1.189c0-0.854-0.505-1.23-1.526-1.23h-1.646v4.322h0.654V31.703L186.449,31.703z M186.449,31.148
		v-1.338h0.893c0.455,0,0.941,0.098,0.941,0.635c0,0.664-0.495,0.703-1.051,0.703H186.449L186.449,31.148z"/>
</g>
</svg>
