<?xml version="1.0" encoding="utf-8"?>
<!-- Generator: Adobe Illustrator 16.0.0, SVG Export Plug-In . SVG Version: 6.00 Build 0)  -->
<!DOCTYPE svg PUBLIC "-//W3C//DTD SVG 1.1//EN" "http://www.w3.org/Graphics/SVG/1.1/DTD/svg11.dtd">
<svg version="1.1" id="Layer_1" xmlns="http://www.w3.org/2000/svg" xmlns:xlink="http://www.w3.org/1999/xlink" x="0px" y="0px"
	 width="197px" height="58.25px" viewBox="0 0 197 58.25" enable-background="new 0 0 197 58.25" xml:space="preserve">
<g>
	<g>
		<path fill-rule="evenodd" clip-rule="evenodd" fill="#0B2448" d="M28.543,18.484c-2.957,0-5.532,1.049-7.631,3.146
			c-2.098,2.099-3.148,4.674-3.148,7.63c0,3.053,1.051,5.532,3.148,7.63c2.099,2.194,4.674,3.244,7.631,3.244
			c2.956,0,5.531-1.05,7.629-3.244c2.099-2.098,3.148-4.577,3.148-7.63c0-2.956-1.05-5.531-3.148-7.63
			C34.074,19.533,31.499,18.484,28.543,18.484L28.543,18.484z"/>
		<path fill-rule="evenodd" clip-rule="evenodd" fill="#0B2448" d="M28.543,16.576V4.271c-4.388,0-8.489,1.145-12.305,3.243v18.694
			c0.668-2.766,2.194-5.055,4.388-6.771C23.011,17.529,25.586,16.576,28.543,16.576L28.543,16.576z"/>
		<path fill-rule="evenodd" clip-rule="evenodd" fill="#0B2448" d="M25.871,41.851c-2.86-0.668-5.149-2.193-6.866-4.482
			c-1.908-2.289-2.767-4.864-2.767-7.821H3.553c0,4.388,1.145,8.489,3.339,12.304H25.871L25.871,41.851z"/>
		<path fill-rule="evenodd" clip-rule="evenodd" fill="#0B2448" d="M40.941,32.504c-0.668,2.767-2.098,5.056-4.387,6.867
			s-4.96,2.766-7.917,2.766V54.25c4.388,0,8.489-1.049,12.304-3.242V32.504L40.941,32.504z"/>
		<path fill-rule="evenodd" clip-rule="evenodd" fill="#0B2448" d="M53.531,29.166c0-4.388-1.145-8.488-3.338-12.304H31.689
			c2.862,0.667,5.15,2.193,6.867,4.387c1.906,2.385,2.767,4.96,2.767,7.917H53.531L53.531,29.166z"/>
		<polygon fill-rule="evenodd" clip-rule="evenodd" fill="#0B2448" points="59.255,17.529 59.255,32.027 63.642,32.027
			63.642,17.529 59.255,17.529 		"/>
		<polygon fill-rule="evenodd" clip-rule="evenodd" fill="#0B2448" points="86.627,17.529 82.145,17.529 82.145,28.021
			82.145,28.021 73.656,17.529 66.789,17.529 66.789,32.027 71.271,32.027 71.271,21.44 71.271,21.44 79.665,32.027 86.627,32.027
			86.627,17.529 		"/>
		<path fill-rule="evenodd" clip-rule="evenodd" fill="#0B2448" d="M93.972,23.252v-2.289h7.916c0.858,0,1.335,0.382,1.335,1.145
			c0,0.764-0.477,1.145-1.335,1.145H93.972L93.972,23.252z M93.972,26.209h8.011c1.05,0,1.622,0.478,1.622,1.239
			c0,0.764-0.572,1.05-1.622,1.05h-8.011V26.209L93.972,26.209z M105.513,24.684v-0.096c0.763-0.191,1.239-0.477,1.526-0.858
			c0.477-0.478,0.667-1.335,0.667-2.48c0-1.335-0.478-2.288-1.335-2.957c-0.858-0.571-2.193-0.763-4.006-0.763H89.488v14.498h14.308
			c1.431,0,2.479-0.191,3.147-0.668c0.763-0.668,1.239-1.717,1.239-3.147c0-1.144-0.19-2.003-0.571-2.479
			C107.133,25.16,106.466,24.778,105.513,24.684L105.513,24.684z"/>
		<path fill-rule="evenodd" clip-rule="evenodd" fill="#0B2448" d="M129.07,17.529h-4.388v8.394c0,0.859-0.286,1.525-0.571,1.907
			c-0.382,0.477-1.146,0.668-2.004,0.668h-4.387c-0.954,0-1.525-0.191-2.002-0.668c-0.383-0.382-0.479-1.048-0.479-1.907v-8.394
			h-4.482v9.348c0,1.812,0.477,3.147,1.431,4.006c0.954,0.953,2.48,1.335,4.483,1.335h6.484c2.004,0,3.53-0.382,4.483-1.335
			c0.954-0.858,1.431-2.194,1.431-4.006V17.529L129.07,17.529z"/>
		<path fill-rule="evenodd" clip-rule="evenodd" fill="#0B2448" d="M136.414,24.588v-3.529c2.353,0,4.705,0,7.059,0
			c1.193,0,2.002,0.203,2.002,1.526c0,0.159,0,0.318,0,0.477c0,1.05-0.571,1.526-1.621,1.526H136.414L136.414,24.588z
			 M136.414,28.307h7.059c0.668,0,1.145,0.097,1.431,0.382c0.286,0.287,0.382,0.858,0.382,1.622v1.717h4.481v-2.48
			c0-1.049-0.189-1.907-0.667-2.385c-0.382-0.38-0.953-0.667-1.717-0.857c0.954-0.191,1.621-0.668,2.004-1.24
			c0.285-0.573,0.477-1.335,0.477-2.385v-0.858c0-1.43-0.286-2.479-0.859-3.146c-0.764-0.859-1.907-1.146-3.529-1.146h-13.543
			v14.498h4.482V28.307L136.414,28.307z"/>
		<path fill-rule="evenodd" clip-rule="evenodd" fill="#0B2448" d="M162.262,22.967l-4.482-0.191c-0.286,0-0.572-0.19-0.668-0.381
			c-0.096-0.097-0.19-0.382-0.19-0.668c0-0.764,0.572-1.145,1.717-1.145h4.96c0.953,0,1.621,0.096,1.907,0.286
			c0.19,0.19,0.286,0.572,0.286,1.239h4.482v-0.477c0-1.526-0.286-2.575-0.953-3.146c-0.764-0.859-2.385-1.24-4.674-1.24h-6.295
			c-2.574,0-4.291,0.477-5.055,1.335c-0.572,0.667-0.859,1.813-0.859,3.339c0,1.049,0.096,1.716,0.287,2.288
			c0.096,0.572,0.477,0.954,0.953,1.335c0.953,0.572,2.957,0.858,6.295,0.858l5.341,0.19c0.382,0,0.668,0.192,0.765,0.382
			l0.189,0.764c0,0.477-0.189,0.858-0.572,1.05l-1.334,0.19h-5.533l-1.431-0.287c-0.286-0.19-0.477-0.667-0.477-1.43h-4.483v1.048
			c0,1.527,0.477,2.576,1.336,3.147c0.764,0.479,2.289,0.764,4.387,0.764h5.438c2.957,0,4.959-0.285,5.817-0.858
			c0.572-0.285,0.954-0.763,1.145-1.335c0.191-0.572,0.286-1.431,0.286-2.385c0-1.145-0.095-1.907-0.382-2.479
			c-0.19-0.669-0.667-1.146-1.239-1.431C168.176,23.157,165.887,22.967,162.262,22.967L162.262,22.967z"/>
		<polygon fill-rule="evenodd" clip-rule="evenodd" fill="#0B2448" points="185.725,17.529 179.906,17.529 171.99,32.027
			177.046,32.027 178.285,29.452 180.002,26.305 182.863,20.868 185.725,26.305 180.002,26.305 178.285,29.452 187.441,29.452
			188.777,32.027 193.736,32.027 185.725,17.529 		"/>
		<path fill-rule="evenodd" clip-rule="evenodd" fill="#0B2448" d="M95.826,43.463v-1.137l4.107-0.007v3.599
			c-0.63,0.503-1.28,0.881-1.951,1.136c-0.671,0.253-1.359,0.38-2.064,0.38c-0.953,0-1.82-0.203-2.598-0.612
			c-0.779-0.407-1.366-0.999-1.764-1.769c-0.398-0.772-0.596-1.636-0.596-2.589c0-0.944,0.197-1.825,0.594-2.643
			c0.393-0.819,0.962-1.428,1.703-1.825c0.74-0.395,1.594-0.594,2.561-0.594c0.701,0,1.335,0.113,1.902,0.341
			c0.566,0.227,1.012,0.542,1.332,0.949c0.323,0.406,0.567,0.935,0.736,1.588l-1.158,0.318c-0.146-0.495-0.328-0.884-0.542-1.166
			c-0.218-0.282-0.526-0.508-0.929-0.677c-0.4-0.17-0.847-0.256-1.334-0.256c-0.588,0-1.096,0.09-1.523,0.269
			c-0.429,0.179-0.771,0.413-1.036,0.705c-0.262,0.291-0.466,0.609-0.612,0.96c-0.246,0.599-0.371,1.249-0.371,1.951
			c0,0.865,0.15,1.588,0.447,2.171c0.299,0.583,0.732,1.014,1.302,1.297c0.569,0.282,1.172,0.424,1.812,0.424
			c0.559,0,1.1-0.108,1.629-0.322c0.53-0.213,0.93-0.44,1.203-0.685v-1.807H95.826L95.826,43.463z"/>
		<path fill-rule="evenodd" clip-rule="evenodd" fill="#0B2448" d="M101.662,47.269v-7.027h1.07v1.064
			c0.273-0.497,0.526-0.827,0.76-0.985c0.229-0.158,0.485-0.239,0.763-0.239c0.401,0,0.809,0.129,1.224,0.384l-0.41,1.107
			c-0.289-0.174-0.58-0.26-0.872-0.26c-0.262,0-0.495,0.079-0.702,0.234c-0.208,0.158-0.355,0.375-0.443,0.653
			c-0.133,0.422-0.198,0.885-0.198,1.389v3.68H101.662L101.662,47.269z"/>
		<path fill-rule="evenodd" clip-rule="evenodd" fill="#0B2448" d="M110.793,47.269v-1.032c-0.548,0.795-1.291,1.19-2.23,1.19
			c-0.414,0-0.803-0.079-1.16-0.237c-0.36-0.158-0.627-0.359-0.801-0.599c-0.176-0.241-0.299-0.535-0.368-0.884
			c-0.048-0.234-0.071-0.604-0.071-1.113v-4.353h1.189v3.896c0,0.624,0.025,1.041,0.072,1.258c0.076,0.314,0.234,0.559,0.477,0.739
			c0.244,0.178,0.545,0.267,0.901,0.267s0.69-0.091,1.005-0.273s0.535-0.434,0.664-0.748c0.131-0.315,0.197-0.774,0.197-1.373
			v-3.766h1.189v7.027H110.793L110.793,47.269z"/>
		<path fill-rule="evenodd" clip-rule="evenodd" fill="#0B2448" d="M113.726,49.961v-9.72h1.084v0.913
			c0.255-0.357,0.544-0.626,0.867-0.805c0.321-0.178,0.712-0.269,1.17-0.269c0.601,0,1.13,0.156,1.588,0.463
			c0.461,0.31,0.807,0.745,1.04,1.308c0.234,0.563,0.352,1.18,0.352,1.85c0,0.719-0.129,1.367-0.389,1.943
			c-0.258,0.576-0.633,1.017-1.125,1.323c-0.492,0.305-1.01,0.459-1.551,0.459c-0.398,0-0.753-0.084-1.068-0.251
			c-0.316-0.167-0.574-0.38-0.777-0.635v3.42H113.726L113.726,49.961z M114.803,43.795c0,0.903,0.184,1.571,0.549,2.005
			c0.366,0.432,0.811,0.648,1.33,0.648c0.529,0,0.982-0.224,1.36-0.673c0.377-0.447,0.567-1.141,0.567-2.08
			c0-0.897-0.186-1.565-0.554-2.013c-0.368-0.445-0.809-0.669-1.319-0.669c-0.508,0-0.957,0.237-1.348,0.712
			S114.803,42.891,114.803,43.795L114.803,43.795z"/>
		<path fill-rule="evenodd" clip-rule="evenodd" fill="#0B2448" d="M120.818,43.754c0-1.301,0.361-2.266,1.086-2.892
			c0.604-0.519,1.34-0.781,2.209-0.781c0.967,0,1.758,0.316,2.369,0.951c0.614,0.633,0.92,1.507,0.92,2.622
			c0,0.906-0.136,1.617-0.406,2.135c-0.271,0.52-0.667,0.922-1.184,1.208c-0.52,0.287-1.085,0.43-1.699,0.43
			c-0.982,0-1.777-0.314-2.385-0.946C121.121,45.85,120.818,44.941,120.818,43.754L120.818,43.754z M122.042,43.754
			c0,0.901,0.196,1.574,0.589,2.021c0.394,0.449,0.889,0.673,1.482,0.673c0.592,0,1.084-0.226,1.477-0.675
			c0.392-0.45,0.588-1.137,0.588-2.058c0-0.87-0.196-1.529-0.592-1.977c-0.395-0.447-0.885-0.671-1.473-0.671
			c-0.594,0-1.089,0.224-1.482,0.669C122.238,42.182,122.042,42.854,122.042,43.754L122.042,43.754z"/>
		<polygon fill-rule="evenodd" clip-rule="evenodd" fill="#0B2448" points="132.783,47.269 132.783,37.567 139.328,37.567
			139.328,38.713 134.068,38.713 134.068,41.717 138.619,41.717 138.619,42.861 134.068,42.861 134.068,47.269 132.783,47.269 		"/>
		<path fill-rule="evenodd" clip-rule="evenodd" fill="#0B2448" d="M140.848,38.938v-1.371h1.193v1.371H140.848L140.848,38.938z
			 M140.848,47.269v-7.027h1.193v7.027H140.848L140.848,47.269z"/>
		<path fill-rule="evenodd" clip-rule="evenodd" fill="#0B2448" d="M143.854,47.269v-7.027h1.071v0.999
			c0.518-0.773,1.262-1.159,2.235-1.159c0.425,0,0.813,0.077,1.168,0.229c0.356,0.153,0.621,0.353,0.798,0.601
			c0.178,0.246,0.3,0.54,0.372,0.879c0.043,0.221,0.065,0.607,0.065,1.158v4.321h-1.192v-4.276c0-0.483-0.046-0.847-0.138-1.088
			c-0.093-0.239-0.258-0.432-0.492-0.574c-0.238-0.145-0.514-0.217-0.832-0.217c-0.508,0-0.943,0.163-1.314,0.483
			c-0.367,0.323-0.551,0.933-0.551,1.834v3.838H143.854L143.854,47.269z"/>
		<path fill-rule="evenodd" clip-rule="evenodd" fill="#0B2448" d="M155.977,46.401c-0.442,0.375-0.867,0.639-1.273,0.795
			c-0.408,0.153-0.848,0.23-1.314,0.23c-0.772,0-1.363-0.188-1.779-0.564c-0.414-0.378-0.622-0.861-0.622-1.446
			c0-0.346,0.077-0.659,0.235-0.943c0.155-0.285,0.361-0.514,0.614-0.685c0.255-0.172,0.54-0.303,0.858-0.392
			c0.232-0.061,0.584-0.121,1.057-0.178c0.963-0.115,1.672-0.251,2.125-0.411c0.005-0.163,0.008-0.267,0.008-0.31
			c0-0.485-0.113-0.829-0.34-1.025c-0.303-0.271-0.756-0.404-1.354-0.404c-0.561,0-0.974,0.097-1.243,0.294
			c-0.266,0.196-0.463,0.544-0.592,1.043l-1.162-0.16c0.105-0.497,0.279-0.901,0.521-1.206c0.242-0.308,0.594-0.545,1.053-0.71
			c0.458-0.164,0.988-0.248,1.594-0.248c0.602,0,1.087,0.072,1.462,0.212c0.375,0.143,0.651,0.319,0.829,0.533
			c0.176,0.215,0.298,0.483,0.37,0.812c0.038,0.203,0.06,0.569,0.06,1.098v1.588c0,1.108,0.024,1.809,0.076,2.101
			c0.05,0.293,0.151,0.576,0.301,0.845h-1.245C156.092,47.022,156.011,46.733,155.977,46.401L155.977,46.401z M155.877,43.74
			c-0.434,0.179-1.082,0.328-1.944,0.452c-0.489,0.069-0.838,0.148-1.039,0.236c-0.203,0.089-0.361,0.218-0.47,0.39
			c-0.11,0.169-0.167,0.356-0.167,0.563c0,0.319,0.122,0.583,0.362,0.796c0.238,0.21,0.591,0.316,1.054,0.316
			c0.458,0,0.868-0.1,1.225-0.301s0.62-0.477,0.788-0.824c0.129-0.27,0.191-0.667,0.191-1.19V43.74L155.877,43.74z"/>
		<path fill-rule="evenodd" clip-rule="evenodd" fill="#0B2448" d="M158.929,47.269v-7.027H160v0.999
			c0.517-0.773,1.262-1.159,2.236-1.159c0.424,0,0.813,0.077,1.167,0.229c0.356,0.153,0.622,0.353,0.798,0.601
			c0.178,0.246,0.301,0.54,0.372,0.879c0.043,0.221,0.065,0.607,0.065,1.158v4.321h-1.192v-4.276c0-0.483-0.044-0.847-0.138-1.088
			c-0.093-0.239-0.258-0.432-0.492-0.574c-0.237-0.145-0.514-0.217-0.832-0.217c-0.508,0-0.943,0.163-1.314,0.483
			c-0.367,0.323-0.551,0.933-0.551,1.834v3.838H158.929L158.929,47.269z"/>
		<path fill-rule="evenodd" clip-rule="evenodd" fill="#0B2448" d="M171.051,44.693l1.171,0.153
			c-0.127,0.807-0.454,1.439-0.983,1.896c-0.525,0.456-1.174,0.685-1.941,0.685c-0.96,0-1.735-0.314-2.318-0.942
			c-0.584-0.628-0.878-1.529-0.878-2.703c0-0.759,0.126-1.424,0.377-1.992c0.253-0.569,0.636-0.996,1.149-1.281
			c0.514-0.284,1.073-0.427,1.676-0.427c0.764,0,1.391,0.194,1.873,0.581c0.485,0.386,0.797,0.933,0.936,1.644l-1.16,0.179
			c-0.109-0.472-0.305-0.826-0.584-1.066c-0.28-0.236-0.619-0.356-1.017-0.356c-0.601,0-1.089,0.215-1.464,0.646
			c-0.375,0.43-0.563,1.109-0.563,2.04c0,0.944,0.182,1.631,0.545,2.06c0.361,0.428,0.833,0.642,1.416,0.642
			c0.468,0,0.855-0.145,1.17-0.432C170.77,45.73,170.968,45.29,171.051,44.693L171.051,44.693z"/>
		<path fill-rule="evenodd" clip-rule="evenodd" fill="#0B2448" d="M173.247,38.938v-1.371h1.192v1.371H173.247L173.247,38.938z
			 M173.247,47.269v-7.027h1.192v7.027H173.247L173.247,47.269z"/>
		<path fill-rule="evenodd" clip-rule="evenodd" fill="#0B2448" d="M181.063,45.005l1.23,0.151
			c-0.194,0.721-0.553,1.278-1.077,1.676c-0.526,0.396-1.197,0.595-2.013,0.595c-1.027,0-1.842-0.316-2.443-0.949
			c-0.604-0.632-0.904-1.52-0.904-2.663c0-1.184,0.305-2.101,0.913-2.753c0.61-0.653,1.397-0.98,2.369-0.98
			c0.94,0,1.708,0.321,2.302,0.96c0.596,0.64,0.895,1.541,0.895,2.699c0,0.072-0.002,0.179-0.007,0.318h-5.24
			c0.043,0.772,0.263,1.364,0.655,1.773c0.393,0.411,0.881,0.616,1.468,0.616c0.437,0,0.809-0.115,1.118-0.346
			C180.637,45.875,180.881,45.509,181.063,45.005L181.063,45.005z M177.152,43.078h3.924c-0.053-0.589-0.203-1.034-0.45-1.328
			c-0.38-0.458-0.872-0.688-1.474-0.688c-0.548,0-1.009,0.183-1.381,0.549C177.398,41.977,177.193,42.467,177.152,43.078
			L177.152,43.078z"/>
		<path fill-rule="evenodd" clip-rule="evenodd" fill="#0B2448" d="M183.777,47.269v-7.027h1.07v1.064
			c0.273-0.497,0.526-0.827,0.76-0.985c0.229-0.158,0.484-0.239,0.763-0.239c0.401,0,0.809,0.129,1.225,0.384l-0.411,1.107
			c-0.289-0.174-0.58-0.26-0.872-0.26c-0.263,0-0.495,0.079-0.702,0.234c-0.209,0.158-0.355,0.375-0.443,0.653
			c-0.133,0.422-0.199,0.885-0.199,1.389v3.68H183.777L183.777,47.269z"/>
		<path fill-rule="evenodd" clip-rule="evenodd" fill="#0B2448" d="M187.859,43.754c0-1.301,0.36-2.266,1.086-2.892
			c0.603-0.519,1.339-0.781,2.209-0.781c0.967,0,1.757,0.316,2.369,0.951c0.614,0.633,0.92,1.507,0.92,2.622
			c0,0.906-0.137,1.617-0.407,2.135c-0.271,0.52-0.667,0.922-1.184,1.208c-0.52,0.287-1.085,0.43-1.698,0.43
			c-0.982,0-1.777-0.314-2.386-0.946C188.162,45.85,187.859,44.941,187.859,43.754L187.859,43.754z M189.082,43.754
			c0,0.901,0.197,1.574,0.59,2.021c0.394,0.449,0.889,0.673,1.482,0.673c0.592,0,1.084-0.226,1.477-0.675
			c0.391-0.45,0.588-1.137,0.588-2.058c0-0.87-0.197-1.529-0.592-1.977c-0.396-0.447-0.886-0.671-1.473-0.671
			c-0.594,0-1.089,0.224-1.482,0.669C189.279,42.182,189.082,42.854,189.082,43.754L189.082,43.754z"/>
	</g>
</g>
</svg>
