<?xml version="1.0" encoding="utf-8"?>
<!-- Generator: Adobe Illustrator 16.0.0, SVG Export Plug-In . SVG Version: 6.00 Build 0)  -->
<!DOCTYPE svg PUBLIC "-//W3C//DTD SVG 1.1//EN" "http://www.w3.org/Graphics/SVG/1.1/DTD/svg11.dtd">
<svg version="1.1" id="Layer_1" xmlns="http://www.w3.org/2000/svg" xmlns:xlink="http://www.w3.org/1999/xlink" x="0px" y="0px"
	 width="175.125px" height="34.375px" viewBox="0 0 175.125 34.375" enable-background="new 0 0 175.125 34.375"
	 xml:space="preserve">
<g>
	<polygon fill-rule="evenodd" clip-rule="evenodd" fill="#DE1F26" points="0.73,0.992 49.88,0.992 49.88,33.396 0.73,33.396
		0.73,0.992 	"/>
	<path fill-rule="evenodd" clip-rule="evenodd" fill="#FFFFFF" d="M29.974,11.188c-0.357,0.254-0.529,0.559-0.516,0.912
		c-0.194,2.762-0.26,5.521-0.094,8.281l-0.222,1.313c-0.036,0.412,0.028,0.826,0.312,1.248c0.152,0.174,0.191-0.084,0.129-0.18
		c-0.354-0.842-0.197-1.15,0.121-1.119c0.07,0.479,0.162,0.598,0.277,0.359c0.104-0.443,0.049-1.016-0.094-1.66
		c0.58-2.238,0.272-3.449,0.811-6.689c0.097-0.133,0.193-0.213,0.29,0.08c0.089,0.949,0.087,1.943-0.004,2.982
		c-1.468,6.258-0.028,6.355,0.251,10.092c-0.31,1.479,0.445,3.33,0.486,5.191c-0.391,0.445-0.56,0.908-0.547,1.398l4.745,0.021
		c-0.196-0.15,0.04-0.299-0.593-0.465c-0.541-0.127-1.521-0.605-1.475-1.135c0.951-3.291,0.319-3.947,0.92-6.26
		c0.68-2.617,1.191-5.305,0.204-8.641c-0.05-1.082,0.047-2.188,0.266-3.314l1.233-1.135c0.12-0.73,0.008-1.412-2.521-2.276
		l-0.101-0.661c0.376,0.024,0.662,0.063,0.702-0.359c-0.053-0.216,0.029-0.432,0.043-0.647c-0.048-0.298,0.623,0.111-0.145-0.894
		c0.185-1.894-1.82-1.487-2.266-1.274c-0.874,0.53-0.846,1.635,0.004,2.64c0.104,0.488,0.065,0.904-0.1,1.292
		C31.361,10.438,30.66,10.77,29.974,11.188L29.974,11.188z M32.77,20.885c0.087-0.051,0.164-0.039,0.239,0
		c-0.088,1.623-0.031,3.232,0.139,4.791c-0.271,2.131-0.264,4.141-0.15,6.311c-0.205,0.502-0.377,0.498-0.514-0.01
		c0.138-2.848,0.142-3.607,0.08-5.619C32.672,24.797,32.772,22.488,32.77,20.885L32.77,20.885z"/>
	<path fill-rule="evenodd" clip-rule="evenodd" fill="#FFFFFF" d="M36.614,12.883l-1.074,0.744c-0.104,0.953-0.068,1.865,0.063,2.75
		c-0.231,1.783,0.235,2.457,0.354,3.875c0.065,1.301,0.048,1.176-0.101,1.664c0.092,0.213,0.217-0.012,0.309-0.137l0.07-0.217
		c0.49,0.102,0.135,0.916-0.064,1.289c-0.063,0.1,0.002,0.256,0.115,0.123c0.257-0.5,0.453-0.861,0.39-1.373l-0.239-1.363
		c0.271-1.254,0.283-2.551,0.151-3.873C36.732,15.244,36.704,14.072,36.614,12.883L36.614,12.883z"/>
	<path fill-rule="evenodd" clip-rule="evenodd" fill="#FFFFFF" d="M36.909,12.783l0.025,1.592c0.085,0.105-0.086-0.1,0.001,0
		c0.532,0.613,1.114,1.135,1.731,1.594c1.097,1.424,1.902,1.57,2.989,2.488c0.967,0.873,0.865,0.799,1.106,1.25
		c0.215,0.084,0.145-0.162,0.12-0.316l-0.103-0.201c0.418-0.277,0.742,0.551,0.865,0.955c0.027,0.115,0.182,0.18,0.17,0.006
		c-0.173-0.535-0.289-0.93-0.695-1.246l-1.134-0.795c-0.694-1.078-1.604-2.006-2.632-2.846
		C38.663,14.367,37.815,13.561,36.909,12.783L36.909,12.783z"/>
	<path fill-rule="evenodd" clip-rule="evenodd" fill="#FFFFFF" d="M36.425,11.158l0.551,1.135c0.133,0.016,0.135-0.008,0.267,0
		c0.81,0.057,1.591,0.016,2.351-0.098c1.783,0.232,2.456-0.234,3.874-0.354c1.301-0.066,1.176-0.047,1.665,0.102
		c0.212-0.094-0.012-0.217-0.139-0.311l-0.215-0.068c0.1-0.49,0.916-0.135,1.287,0.063c0.102,0.063,0.256,0,0.125-0.115
		c-0.501-0.256-0.861-0.453-1.373-0.389l-1.363,0.24c-1.254-0.271-2.553-0.285-3.873-0.152
		C38.458,11.066,37.614,11.068,36.425,11.158L36.425,11.158z"/>
	<path fill="#0062A2" d="M58.229,26.914c0,1.082,0.268,1.924,0.801,2.527c0.533,0.605,1.274,0.904,2.225,0.904
		c0.953,0,1.695-0.299,2.229-0.904c0.533-0.604,0.8-1.445,0.8-2.527c0-1.084-0.271-1.934-0.813-2.559
		c-0.542-0.621-1.287-0.934-2.237-0.934c-0.92,0-1.649,0.313-2.191,0.941C58.501,24.988,58.229,25.838,58.229,26.914L58.229,26.914z
		 M55.056,32.92V14.004h3.333v6.818c0,0.375-0.013,0.746-0.042,1.117s-0.066,0.729-0.117,1.078c0.571-0.861,1.188-1.486,1.854-1.883
		c0.667-0.395,1.433-0.592,2.296-0.592c1.707,0,3.041,0.563,3.999,1.691c0.954,1.125,1.433,2.699,1.433,4.717
		c0,1.945-0.482,3.504-1.453,4.682c-0.967,1.176-2.242,1.764-3.82,1.764c-0.95,0-1.758-0.176-2.421-0.529
		c-0.667-0.355-1.232-0.908-1.704-1.668l0.025,1.721H55.056L55.056,32.92z M78.71,25.693c-0.096-0.754-0.371-1.326-0.824-1.713
		c-0.45-0.387-1.067-0.58-1.851-0.58c-0.778,0-1.403,0.193-1.87,0.58c-0.471,0.387-0.767,0.959-0.9,1.713H78.71L78.71,25.693z
		 M82.151,27.793h-8.994c0.137,0.861,0.449,1.508,0.941,1.932c0.486,0.43,1.149,0.643,1.986,0.643c0.634,0,1.184-0.121,1.642-0.367
		c0.458-0.242,0.846-0.611,1.154-1.107l2.808,1.398c-0.65,1.055-1.441,1.834-2.366,2.342c-0.929,0.508-2.032,0.764-3.308,0.764
		c-1.938,0-3.471-0.58-4.604-1.734c-1.129-1.154-1.695-2.707-1.695-4.662c0-1.879,0.592-3.424,1.774-4.637
		c1.183-1.211,2.7-1.82,4.55-1.82c1.903,0,3.407,0.566,4.516,1.705c1.104,1.133,1.658,2.682,1.658,4.641
		c0,0.107-0.004,0.221-0.013,0.35C82.192,27.363,82.177,27.547,82.151,27.793L82.151,27.793z M84.784,32.92V20.947h3.403v1.879
		c0.629-0.779,1.3-1.357,2.021-1.729s1.521-0.555,2.399-0.555c0.929,0,1.708,0.158,2.337,0.471s1.129,0.793,1.496,1.434
		c0.18,0.334,0.309,0.713,0.383,1.129c0.08,0.422,0.117,1.08,0.117,1.971v0.379v6.994h-3.479V27c0-1.471-0.171-2.445-0.512-2.916
		c-0.343-0.471-0.93-0.707-1.759-0.707c-0.479,0-0.921,0.1-1.325,0.299c-0.4,0.201-0.737,0.48-1.004,0.846
		c-0.213,0.287-0.367,0.613-0.457,0.98c-0.098,0.365-0.143,0.92-0.143,1.67v0.475v5.273H84.784L84.784,32.92z M109.063,26.914
		c0-1.076-0.271-1.926-0.813-2.551c-0.537-0.629-1.271-0.941-2.188-0.941c-0.945,0-1.688,0.313-2.229,0.934
		c-0.541,0.625-0.813,1.475-0.813,2.559c0,1.082,0.267,1.924,0.8,2.527c0.533,0.605,1.271,0.904,2.216,0.904
		c0.959,0,1.705-0.299,2.233-0.904C108.801,28.838,109.063,27.996,109.063,26.914L109.063,26.914z M112.237,32.92h-3.37l0.05-1.721
		c-0.471,0.76-1.037,1.313-1.703,1.668c-0.662,0.354-1.471,0.529-2.421,0.529c-1.587,0-2.866-0.592-3.841-1.771
		c-0.971-1.18-1.459-2.736-1.459-4.674c0-2.018,0.48-3.592,1.434-4.717c0.959-1.129,2.287-1.691,3.986-1.691
		c0.889,0,1.668,0.201,2.338,0.596c0.671,0.4,1.237,0.996,1.691,1.783v-1.975h3.295V32.92L112.237,32.92z M118.458,32.92
		l-4.871-11.973h4.017l2.024,6.225c0.162,0.504,0.296,0.975,0.392,1.404c0.096,0.432,0.167,0.854,0.208,1.27
		c0.096-0.629,0.196-1.162,0.292-1.6c0.101-0.441,0.212-0.838,0.342-1.195l2.041-6.104h3.954l-4.92,11.973H118.458L118.458,32.92z
		 M128.181,16.031c0-0.553,0.2-1.033,0.6-1.428c0.396-0.4,0.875-0.6,1.43-0.6c0.558,0,1.041,0.195,1.445,0.59
		c0.404,0.396,0.604,0.875,0.604,1.438c0,0.559-0.2,1.043-0.604,1.438c-0.404,0.4-0.888,0.6-1.445,0.6
		c-0.555,0-1.033-0.203-1.43-0.611C128.381,17.053,128.181,16.574,128.181,16.031L128.181,16.031z M128.489,32.92V20.947h3.466
		V32.92H128.489L128.489,32.92z M144.312,26.914c0-1.076-0.271-1.926-0.813-2.551c-0.537-0.629-1.271-0.941-2.188-0.941
		c-0.945,0-1.688,0.309-2.229,0.922c-0.541,0.615-0.813,1.465-0.813,2.545c0,1.082,0.267,1.934,0.801,2.541
		c0.532,0.611,1.271,0.916,2.215,0.916c0.959,0,1.705-0.299,2.234-0.904C144.049,28.838,144.312,27.996,144.312,26.914
		L144.312,26.914z M147.485,32.92h-3.369l0.049-1.721c-0.471,0.76-1.037,1.313-1.703,1.668c-0.662,0.354-1.471,0.529-2.42,0.529
		c-1.588,0-2.867-0.592-3.842-1.771c-0.971-1.18-1.458-2.736-1.458-4.674c0-2.025,0.479-3.604,1.434-4.736
		c0.958-1.129,2.286-1.697,3.986-1.697c0.87,0,1.638,0.201,2.296,0.598c0.658,0.398,1.278,1.027,1.854,1.891
		c-0.037-0.291-0.07-0.613-0.092-0.967s-0.029-0.758-0.029-1.217v-6.818h3.295V32.92L147.485,32.92z M159.138,25.693
		c-0.096-0.754-0.37-1.326-0.824-1.713c-0.449-0.387-1.066-0.58-1.85-0.58c-0.779,0-1.404,0.193-1.871,0.58
		c-0.471,0.387-0.767,0.959-0.9,1.713H159.138L159.138,25.693z M162.579,27.793h-8.994c0.138,0.861,0.449,1.508,0.941,1.932
		c0.487,0.43,1.15,0.643,1.986,0.643c0.634,0,1.184-0.121,1.643-0.367c0.457-0.242,0.846-0.611,1.153-1.107l2.808,1.398
		c-0.649,1.055-1.44,1.834-2.365,2.342c-0.93,0.508-2.033,0.764-3.309,0.764c-1.938,0-3.471-0.58-4.604-1.734
		c-1.129-1.154-1.695-2.707-1.695-4.662c0-1.879,0.592-3.424,1.775-4.637c1.183-1.211,2.699-1.82,4.549-1.82
		c1.904,0,3.408,0.566,4.516,1.705c1.104,1.133,1.658,2.682,1.658,4.641c0,0.107-0.004,0.221-0.013,0.35
		C162.62,27.363,162.604,27.547,162.579,27.793L162.579,27.793z M164.042,30.82l2.674-1.379c0.088,0.463,0.329,0.83,0.721,1.096
		c0.388,0.271,0.871,0.404,1.449,0.404c0.571,0,1.018-0.104,1.342-0.313c0.325-0.203,0.488-0.49,0.488-0.857
		c0-0.58-0.58-1.063-1.734-1.455c-0.357-0.119-0.641-0.221-0.854-0.303c-1.408-0.529-2.379-1.063-2.92-1.596
		c-0.541-0.537-0.813-1.201-0.813-1.992c0-1.17,0.458-2.119,1.379-2.84c0.92-0.727,2.133-1.088,3.637-1.088
		c1.074,0,2.004,0.217,2.787,0.645c0.787,0.43,1.357,1.043,1.717,1.83l-2.551,1.27c-0.137-0.445-0.379-0.787-0.72-1.02
		c-0.342-0.23-0.771-0.346-1.283-0.346s-0.925,0.104-1.245,0.316c-0.317,0.213-0.476,0.486-0.476,0.828
		c0,0.596,0.788,1.15,2.366,1.662c0.188,0.055,0.329,0.102,0.43,0.135c1.308,0.428,2.24,0.932,2.795,1.508
		c0.555,0.57,0.829,1.303,0.829,2.188c0,1.191-0.458,2.133-1.379,2.832s-2.162,1.051-3.72,1.051c-1.238,0-2.296-0.23-3.171-0.688
		C164.916,32.246,164.333,31.617,164.042,30.82L164.042,30.82z"/>
	<path fill="#0062A2" d="M63.112,16.482v-2.789h-0.578v-1.629h0.578v-0.5c0-0.609,0.162-1.078,0.491-1.407
		c0.327-0.328,0.798-0.491,1.41-0.491c0.159,0,0.319,0.009,0.479,0.026c0.159,0.016,0.321,0.042,0.483,0.075v1.664
		c-0.023-0.004-0.055-0.006-0.094-0.012c-0.106-0.014-0.177-0.021-0.215-0.021c-0.146,0-0.254,0.039-0.316,0.119
		s-0.094,0.217-0.094,0.414v0.133h0.719v1.629h-0.719v2.789H63.112L63.112,16.482z M69.646,14.26c0,0.189,0.051,0.34,0.152,0.455
		c0.101,0.115,0.234,0.174,0.399,0.174c0.168,0,0.302-0.057,0.401-0.17c0.102-0.115,0.15-0.268,0.15-0.459s-0.051-0.348-0.152-0.465
		c-0.1-0.117-0.234-0.176-0.399-0.176s-0.299,0.061-0.399,0.178C69.696,13.916,69.646,14.07,69.646,14.26L69.646,14.26z
		 M70.817,16.482v-0.666c-0.215,0.285-0.438,0.494-0.671,0.631c-0.233,0.135-0.491,0.203-0.772,0.203
		c-0.514,0-0.938-0.219-1.277-0.654c-0.337-0.436-0.506-0.998-0.506-1.684c0-0.719,0.164-1.297,0.492-1.732
		c0.33-0.438,0.76-0.656,1.291-0.656c0.271,0,0.52,0.059,0.744,0.178c0.224,0.117,0.431,0.301,0.621,0.549v-0.586h2.057v4.418
		H70.817L70.817,16.482z M74.915,16.482v-4.418h2.082v0.621c0.186-0.254,0.393-0.445,0.621-0.572
		c0.227-0.127,0.479-0.189,0.756-0.189c0.043,0,0.074,0,0.096,0c0.021,0.002,0.04,0.006,0.058,0.008v2.146
		c-0.12-0.066-0.229-0.113-0.329-0.146c-0.1-0.031-0.189-0.047-0.273-0.047c-0.273,0-0.485,0.074-0.635,0.223
		s-0.225,0.355-0.225,0.623v1.752H74.915L74.915,16.482z M80.399,16.482v-4.418h2.049v0.621c0.167-0.264,0.353-0.455,0.554-0.578
		c0.202-0.123,0.435-0.184,0.697-0.184c0.31,0,0.567,0.076,0.774,0.225c0.206,0.152,0.373,0.389,0.502,0.711
		c0.168-0.307,0.374-0.541,0.617-0.699c0.244-0.158,0.517-0.236,0.818-0.236c0.434,0,0.779,0.143,1.037,0.428
		c0.258,0.287,0.387,0.674,0.387,1.158v2.973h-2.072v-2.221c0-0.227-0.021-0.377-0.063-0.459c-0.041-0.08-0.111-0.119-0.213-0.119
		c-0.113,0-0.197,0.047-0.254,0.143c-0.055,0.092-0.082,0.238-0.082,0.436v2.221h-2.043v-2.221c0-0.221-0.021-0.371-0.061-0.453
		c-0.043-0.084-0.114-0.125-0.217-0.125c-0.117,0-0.203,0.047-0.258,0.143c-0.056,0.092-0.084,0.238-0.084,0.436v2.221H80.399
		L80.399,16.482z M91.837,14.26c0,0.189,0.051,0.34,0.152,0.455c0.1,0.115,0.234,0.174,0.398,0.174c0.168,0,0.303-0.057,0.402-0.17
		c0.1-0.115,0.149-0.268,0.149-0.459s-0.051-0.348-0.151-0.465s-0.234-0.176-0.4-0.176c-0.164,0-0.299,0.061-0.398,0.178
		C91.888,13.916,91.837,14.07,91.837,14.26L91.837,14.26z M93.009,16.482v-0.666c-0.215,0.285-0.438,0.494-0.672,0.631
		c-0.232,0.135-0.491,0.203-0.773,0.203c-0.513,0-0.938-0.219-1.275-0.654s-0.507-0.998-0.507-1.684
		c0-0.719,0.165-1.297,0.493-1.732c0.33-0.438,0.759-0.656,1.289-0.656c0.273,0,0.521,0.059,0.746,0.178
		c0.223,0.117,0.43,0.301,0.621,0.549v-0.586h2.056v4.418H93.009L93.009,16.482z M100.45,13.953c-0.113-0.1-0.23-0.174-0.35-0.225
		c-0.12-0.049-0.246-0.074-0.377-0.074c-0.218,0-0.39,0.059-0.518,0.174c-0.129,0.115-0.193,0.27-0.193,0.459
		c0,0.182,0.063,0.33,0.188,0.445s0.288,0.174,0.487,0.174c0.125,0,0.252-0.027,0.379-0.084c0.127-0.055,0.254-0.137,0.383-0.246
		v1.758c-0.222,0.107-0.437,0.188-0.644,0.238s-0.409,0.078-0.61,0.078c-0.326,0-0.629-0.057-0.91-0.166
		c-0.278-0.109-0.526-0.271-0.742-0.484c-0.229-0.229-0.402-0.486-0.521-0.775c-0.12-0.289-0.18-0.598-0.18-0.92
		c0-0.227,0.029-0.443,0.087-0.658c0.059-0.211,0.146-0.414,0.263-0.604c0.223-0.363,0.506-0.639,0.85-0.83
		c0.342-0.193,0.728-0.289,1.154-0.289c0.189,0,0.387,0.02,0.594,0.059c0.206,0.039,0.427,0.102,0.66,0.184V13.953L100.45,13.953z
		 M104.655,10.689c0,0.316-0.104,0.566-0.313,0.754c-0.207,0.188-0.488,0.279-0.842,0.279c-0.355,0-0.641-0.092-0.851-0.281
		c-0.212-0.188-0.317-0.439-0.317-0.752c0-0.314,0.104-0.561,0.313-0.742c0.207-0.181,0.494-0.271,0.855-0.271
		c0.358,0,0.641,0.091,0.846,0.271C104.553,10.128,104.655,10.375,104.655,10.689L104.655,10.689z M102.425,16.482v-4.418h2.146
		v4.418H102.425L102.425,16.482z M108.634,14.26c0,0.189,0.051,0.34,0.15,0.455c0.102,0.115,0.236,0.174,0.4,0.174
		c0.168,0,0.303-0.057,0.401-0.17c0.101-0.115,0.15-0.268,0.15-0.459s-0.052-0.348-0.151-0.465c-0.102-0.117-0.235-0.176-0.4-0.176
		c-0.164,0-0.299,0.061-0.4,0.178C108.685,13.916,108.634,14.07,108.634,14.26L108.634,14.26z M109.805,16.482v-0.666
		c-0.214,0.285-0.438,0.494-0.671,0.631c-0.233,0.135-0.492,0.203-0.773,0.203c-0.514,0-0.938-0.219-1.276-0.654
		c-0.337-0.436-0.507-0.998-0.507-1.684c0-0.719,0.166-1.297,0.494-1.732c0.329-0.438,0.758-0.656,1.289-0.656
		c0.273,0,0.521,0.059,0.746,0.178c0.223,0.117,0.43,0.301,0.621,0.549v-0.586h2.055v4.418H109.805L109.805,16.482z M113.438,16.166
		l0.569-1.363c0.236,0.158,0.451,0.279,0.648,0.363s0.365,0.123,0.505,0.123c0.114,0,0.2-0.021,0.26-0.064
		c0.06-0.045,0.091-0.107,0.091-0.188c0-0.109-0.127-0.191-0.381-0.242c-0.085-0.018-0.152-0.031-0.2-0.043
		c-0.417-0.102-0.72-0.254-0.909-0.455s-0.284-0.467-0.284-0.797c0-0.463,0.192-0.844,0.579-1.137s0.891-0.439,1.512-0.439
		c0.311,0,0.606,0.029,0.891,0.086c0.283,0.059,0.549,0.146,0.797,0.264l-0.525,1.328c-0.199-0.133-0.379-0.232-0.538-0.301
		c-0.16-0.066-0.298-0.1-0.414-0.1c-0.098,0-0.175,0.02-0.234,0.061c-0.061,0.043-0.091,0.098-0.091,0.166
		c0,0.109,0.168,0.203,0.504,0.273c0.08,0.016,0.143,0.031,0.188,0.043c0.43,0.102,0.746,0.252,0.949,0.451
		c0.203,0.197,0.304,0.455,0.304,0.775c0,0.496-0.2,0.898-0.599,1.211s-0.926,0.469-1.581,0.469c-0.356,0-0.706-0.041-1.047-0.123
		C114.087,16.447,113.757,16.326,113.438,16.166L113.438,16.166z"/>
</g>
</svg>
