<?xml version="1.0" encoding="utf-8"?>
<!-- Generator: Adobe Illustrator 16.0.0, SVG Export Plug-In . SVG Version: 6.00 Build 0)  -->
<!DOCTYPE svg PUBLIC "-//W3C//DTD SVG 1.1//EN" "http://www.w3.org/Graphics/SVG/1.1/DTD/svg11.dtd">
<svg version="1.1" id="Layer_1" xmlns="http://www.w3.org/2000/svg" xmlns:xlink="http://www.w3.org/1999/xlink" x="0px" y="0px"
	 width="131.5px" height="52.167px" viewBox="0 0 131.5 52.167" enable-background="new 0 0 131.5 52.167" xml:space="preserve">
<g>
	<path fill-rule="evenodd" clip-rule="evenodd" fill="#DD1F26" d="M43.493,38.007c-2.471-11.874-4.941-23.748-7.412-35.622
		c7.566,1.239,12.511,5.165,14.291,12.333C51.847,22.929,49.438,30.679,43.493,38.007L43.493,38.007z M28.78,12.64l4.061,18.451
		H19.157L28.78,12.64L28.78,12.64z M22.599,4.695C16.301,16.878,10.004,29.061,3.708,41.244c-1.729-5.451-3.977-10.516,2.648-22.158
		C10.763,11.771,16.496,7.769,22.599,4.695L22.599,4.695z M15.006,38.905h19.335c0.44,2.045,0.882,4.091,1.323,6.136
		c-3.602,2.351-7.504,4.289-12.234,5.088c-5.1,0.793-9.492,0.105-13.18-2.064L15.006,38.905L15.006,38.905z"/>
	<path fill="#001689" d="M95.958,8.31h1.752v1.729h-1.752V8.31L95.958,8.31z M95.974,11.114l1.745-0.003v8.714l-1.745-0.001V11.114
		L95.974,11.114z M94.234,14.254h-1.729c0-0.447,0.084-1.135-0.123-1.521c-0.091-0.167-0.35-0.25-0.557-0.25
		c-0.191,0-0.533,0.078-0.587,0.261c-0.311,1.073-0.204,4.544-0.003,5.506c0.038,0.181,0.389,0.25,0.576,0.25
		c0.199,0,0.505-0.079,0.568-0.259c0.176-0.492,0.127-1.347,0.139-1.893l1.715-0.03c-0.018,0.889,0.205,2.589-0.409,3.228
		c-0.405,0.421-1.06,0.632-1.966,0.632c-1.014,0-1.598-0.271-1.986-0.813c-0.389-0.543-0.562-1.755-0.562-3.223v-1.295
		c0-1.465,0.075-2.472,0.463-3.012c0.39-0.542,1.091-0.813,2.104-0.813c0.906,0,1.356,0.209,1.76,0.626
		C94.255,12.288,94.234,13.422,94.234,14.254L94.234,14.254z M78.34,12.299c0.262-0.447,0.548-0.711,0.816-0.912
		c0.266-0.201,0.563-0.304,0.893-0.304c0.534,0,1.09,0.22,1.303,0.576c0.214,0.357,0.318,0.895,0.32,1.855l0.014,6.295l-1.719-0.003
		l-0.014-6.014c-0.001-0.354-0.137-1.009-0.716-1.021c-0.736-0.017-0.677,0.393-0.677,1.021v6.027h-1.753v-6.027
		c0-0.559-0.019-1.019-0.776-1.019c-0.692,0-0.613,0.663-0.613,1.019l0.01,6.02H73.66l-0.01-8.584h1.646l0.06,0.988
		c0.241-0.411,0.457-0.643,0.718-0.838c0.258-0.192,0.539-0.289,0.84-0.289c0.382,0,0.695,0.11,0.936,0.332
		C78.086,11.642,78.282,11.889,78.34,12.299L78.34,12.299z M72.632,11.079l-0.001,2.474c-0.354,0-0.708,0.001-1.062,0.001
		c-0.216-0.019-0.326,0.088-0.331,0.317l-0.011,5.956h-1.739L69.48,11.12h1.418l-0.021,1.396c0.309-0.252,0.551-0.809,0.906-1.082
		C72.096,11.192,72.245,11.079,72.632,11.079L72.632,11.079z M68.083,13.516v6.301h-1.711l-0.086-0.761
		c-0.458,0.576-1.146,1.108-1.866,1.108c-1.169,0-1.714-1.479-1.702-2.515c0.014-1.198,0.514-1.977,1.575-2.599
		c0.708-0.415,1.573-0.487,1.694-0.928l0.016-0.48c0.014-0.409,0.084-1.174-0.569-1.174c-0.881,0-0.836,0.675-0.836,1.412h-1.729
		c0-1.8,0.73-2.797,2.681-2.794C67.452,11.091,68.083,12.268,68.083,13.516L68.083,13.516z M66.356,15.549
		c-1.318,0.326-1.763,0.563-1.752,1.902c0.005,0.736,0.092,1.027,0.729,1.017c0.355-0.005,0.849-0.461,1.025-0.747L66.356,15.549
		L66.356,15.549z M56.653,8.313l5.181,0.012l-0.011,2.09h-3.129l-0.009,2.439h2.786l0.003,2.088l-2.782,0.007L58.7,19.82h-2.113
		L56.653,8.313L56.653,8.313z M87.916,13.516v6.301h-1.71l-0.087-0.761c-0.458,0.576-1.146,1.108-1.866,1.108
		c-1.169,0-1.713-1.479-1.701-2.515c0.014-1.198,0.514-1.977,1.575-2.599c0.708-0.415,1.573-0.487,1.693-0.928l0.017-0.48
		c0.014-0.409,0.084-1.174-0.569-1.174c-0.882,0-0.837,0.675-0.837,1.412H82.7c0-1.8,0.732-2.797,2.683-2.794
		C87.286,11.091,87.916,12.268,87.916,13.516L87.916,13.516z M86.19,15.549c-1.318,0.326-1.763,0.563-1.753,1.902
		c0.006,0.736,0.092,1.027,0.729,1.017c0.355-0.005,0.849-0.461,1.025-0.747L86.19,15.549L86.19,15.549z M104.323,13.53v6.301
		h-1.711l-0.087-0.761c-0.458,0.575-1.146,1.107-1.866,1.107c-1.168,0-1.713-1.478-1.701-2.514c0.014-1.198,0.514-1.977,1.575-2.599
		c0.708-0.415,1.572-0.487,1.693-0.928l0.017-0.48c0.014-0.409,0.084-1.174-0.569-1.174c-0.882,0-0.837,0.675-0.837,1.412h-1.729
		c0-1.8,0.731-2.797,2.682-2.794C103.692,11.105,104.323,12.282,104.323,13.53L104.323,13.53z M102.596,15.562
		c-1.318,0.327-1.763,0.563-1.753,1.903c0.006,0.736,0.092,1.027,0.729,1.017c0.355-0.005,0.848-0.461,1.025-0.747L102.596,15.562
		L102.596,15.562z M127.327,8.332h2.103l-0.008,11.473h-2.103L127.327,8.332L127.327,8.332z M124.189,13.576
		c0.011-0.515-0.239-1.132-0.847-1.132c-0.735,0-0.905,0.813-0.893,1.18l0.022,0.622l1.704,0.022L124.189,13.576L124.189,13.576z
		 M125.944,14.85v0.794h-3.458v1.669c0,0.658,0.022,1.205,0.825,1.205c0.834,0,0.895-0.508,0.895-1.205v-0.275h1.734v0.258
		c0,1.62-0.926,2.845-2.531,2.857c-1.604,0.012-2.664-0.933-2.671-2.349l-0.016-2.954c-0.008-1.456,0.171-2.383,0.555-2.931
		s1.179-0.871,2.159-0.871c0.998,0,1.727,0.317,2.105,0.854C125.922,12.44,125.944,13.371,125.944,14.85L125.944,14.85z
		 M117.553,8.329l2.099,0.003l-0.04,11.491h-1.67l-0.057-1.048c-0.199,0.411-0.771,0.904-1.013,1.099
		c-0.24,0.193-0.512,0.289-0.817,0.289c-0.529,0-0.922-0.198-1.18-0.598c-0.256-0.396-0.398-1.201-0.398-2.025v-4.104
		c0-0.956,0.223-1.353,0.479-1.749c0.254-0.395,0.551-0.665,1.085-0.665c0.301,0,0.687,0.125,0.925,0.315
		c0.236,0.189,0.383,0.493,0.592,0.909L117.553,8.329L117.553,8.329z M117.516,13.793c0-0.451,0.008-1.016-0.578-1.026
		c-0.567-0.011-0.697,0.376-0.697,1.026v3.405c0,0.823,0.271,1.141,0.672,1.145c0.58,0.005,0.604-0.738,0.604-1.145V13.793
		L117.516,13.793z M110.225,13.269l-0.012,0.254l-1.707,0.002v-0.221c0-0.543,0.058-0.837-0.725-0.837
		c-0.787-0.04-0.76,0.476-0.76,0.839c0,0.204,0.058,0.379,0.172,0.529s0.35,0.335,0.71,0.556l1.025,0.615
		c0.403,0.241,0.8,0.552,1.001,0.927c0.201,0.373,0.303,0.811,0.303,1.314v0.439c0,0.793-0.287,1.411-0.719,1.776
		s-1.144,0.652-2.084,0.652c-0.625,0-0.974-0.223-1.296-0.476c-0.519-0.407-0.802-1.032-0.802-1.978v-0.305l1.574,0.006
		c0,0.354-0.008,0.933,0.197,1.224c0.092,0.131,0.404,0.195,0.648,0.195c0.452,0,0.743-0.262,0.743-1.146
		c0-0.261-0.077-0.416-0.201-0.62c-0.328-0.542-1.325-0.968-1.868-1.279c-0.528-0.303-0.699-0.542-0.904-0.846
		c-0.206-0.306-0.215-0.684-0.215-1.131v-0.646c0-0.638,0.132-1.133,0.583-1.49c0.45-0.356,0.884-0.602,1.7-0.602
		c0.857,0,1.472,0.181,1.838,0.544C109.793,11.927,110.225,12.404,110.225,13.269L110.225,13.269z"/>
	<path fill-rule="evenodd" clip-rule="evenodd" fill="#001689" d="M56.881,22.921L45.661,44.252h5.24l2.487-4.604h5.663l0.053,4.604
		h5.082l-0.582-21.224L56.881,22.921L56.881,22.921z M59.06,28.944l-3.796,6.915h3.796V28.944L59.06,28.944z M68.792,23.028h4.816
		l-1.059,6.934l0.398-0.018c0.924-0.414,2.301-0.732,3.354-0.643c1.302,0.11,3.42,0.754,3.303,2.423l-1.387,12.521h-4.9
		c0.412-3.193,0.824-6.518,1.236-9.711c0.169-1.031,0.081-1.79-0.798-1.83c-1.337-0.062-1.523,0.758-1.677,1.83l-1.321,9.717
		l-4.767-0.006L68.792,23.028L68.792,23.028z M82.417,32.53c1.354-2.33,3.767-3.356,6.033-3.38c2.777-0.029,3.996,0.982,4.89,2.661
		c0.893,1.679,0.442,5.891-0.682,8.134c-1.468,2.477-3.626,4.348-6.76,4.389c-3.134,0.042-4.386-0.896-5.02-3.392
		C80.245,38.445,81.065,34.859,82.417,32.53L82.417,32.53z M88.911,33.381c0.48,1.665-0.281,5.552-1.492,7.059
		c-0.557,0.695-1.43,0.831-1.893-0.073c-0.783-1.525,0.025-5.521,1.256-7.203C87.334,32.408,88.607,32.324,88.911,33.381
		L88.911,33.381z M117.312,32.53c1.353-2.33,3.766-3.356,6.033-3.38c2.776-0.029,3.996,0.982,4.889,2.661s0.441,5.891-0.681,8.134
		c-1.469,2.477-3.627,4.348-6.76,4.389c-3.135,0.042-4.385-0.896-5.02-3.392C115.139,38.445,115.959,34.859,117.312,32.53
		L117.312,32.53z M123.806,33.381c0.479,1.665-0.281,5.552-1.492,7.059c-0.558,0.695-1.43,0.831-1.894-0.073
		c-0.783-1.525,0.025-5.521,1.256-7.203C122.229,32.408,123.501,32.324,123.806,33.381L123.806,33.381z M96.404,29.238
		c1.589,0.015,3.178,0.029,4.767,0.044c0.005,0.212,0.01,0.424,0.014,0.635c0.001,0.01,0.286,0.004,0.666-0.054
		c0.985-0.148,2.369-0.482,3.072-0.557l-0.557,4.729c-0.359-0.041-3.568-0.092-4.033,2.044c-0.486,2.074-0.949,8.165-0.949,8.165
		H94.44L96.404,29.238L96.404,29.238z M106.887,29.211c1.589,0.015,3.178,0.029,4.767,0.044c0.005,0.212,0.009,0.423,0.015,0.635
		c0,0.009,0.285,0.004,0.664-0.054c0.986-0.148,2.369-0.483,3.074-0.558l-0.559,4.73c-0.359-0.041-3.568-0.092-4.033,2.044
		c-0.484,2.074-0.927,8.21-0.927,8.21h-4.944L106.887,29.211L106.887,29.211z"/>
	<path fill="#001689" d="M126.271,46.32v0.578h0.261c0.147,0,0.256-0.022,0.324-0.066c0.068-0.046,0.102-0.117,0.102-0.215
		c0-0.102-0.035-0.176-0.105-0.225c-0.072-0.048-0.184-0.072-0.338-0.072H126.271L126.271,46.32z M125.877,46.073h0.707
		c0.256,0,0.449,0.042,0.582,0.126c0.131,0.084,0.196,0.208,0.196,0.372c0,0.134-0.035,0.245-0.106,0.333
		c-0.07,0.088-0.172,0.146-0.303,0.174l0.409,0.832h-0.44l-0.365-0.768h-0.286v0.768h-0.394V46.073L125.877,46.073z M126.547,45.629
		c-0.189,0-0.367,0.033-0.53,0.101s-0.31,0.166-0.442,0.297c-0.135,0.139-0.238,0.293-0.312,0.464s-0.11,0.349-0.11,0.532
		c0,0.185,0.035,0.359,0.104,0.527c0.069,0.167,0.17,0.316,0.3,0.449c0.133,0.134,0.283,0.236,0.451,0.31
		c0.168,0.071,0.34,0.108,0.517,0.108c0.192,0,0.373-0.035,0.545-0.104c0.171-0.07,0.325-0.171,0.462-0.306
		c0.133-0.126,0.232-0.272,0.303-0.438c0.07-0.165,0.106-0.341,0.106-0.524c0-0.195-0.033-0.378-0.101-0.547
		c-0.066-0.169-0.166-0.319-0.297-0.453c-0.137-0.136-0.29-0.239-0.459-0.31C126.917,45.666,126.737,45.629,126.547,45.629
		L126.547,45.629z M126.545,45.384c0.227,0,0.439,0.041,0.639,0.124c0.2,0.083,0.379,0.204,0.535,0.365
		c0.152,0.153,0.268,0.328,0.348,0.524c0.08,0.195,0.119,0.402,0.119,0.623c0,0.227-0.041,0.438-0.123,0.636
		c-0.081,0.198-0.201,0.373-0.357,0.525c-0.159,0.155-0.339,0.273-0.539,0.356c-0.197,0.082-0.406,0.124-0.621,0.124
		c-0.218,0-0.426-0.042-0.627-0.128c-0.199-0.084-0.377-0.207-0.534-0.366c-0.155-0.156-0.272-0.333-0.354-0.528
		c-0.08-0.197-0.121-0.403-0.121-0.619c0-0.217,0.041-0.426,0.127-0.629c0.084-0.202,0.207-0.383,0.367-0.543
		c0.152-0.153,0.326-0.27,0.519-0.348S126.323,45.384,126.545,45.384L126.545,45.384z"/>
</g>
</svg>
