<?xml version="1.0" encoding="utf-8"?>
<!-- Generator: Adobe Illustrator 16.0.0, SVG Export Plug-In . SVG Version: 6.00 Build 0)  -->
<!DOCTYPE svg PUBLIC "-//W3C//DTD SVG 1.1//EN" "http://www.w3.org/Graphics/SVG/1.1/DTD/svg11.dtd">
<svg version="1.1" id="Layer_1" xmlns="http://www.w3.org/2000/svg" xmlns:xlink="http://www.w3.org/1999/xlink" x="0px" y="0px"
	 width="111.132px" height="95.853px" viewBox="0 0 111.132 95.853" enable-background="new 0 0 111.132 95.853"
	 xml:space="preserve">
<g>
	<polygon fill-rule="evenodd" clip-rule="evenodd" fill="#FFFFFF" points="1.978,93.449 94.463,93.449 94.463,1.995 1.978,1.995
		1.978,93.449 	"/>
	<polygon fill-rule="evenodd" clip-rule="evenodd" fill="#DF272A" points="4.815,90.869 91.497,90.869 91.497,4.317 4.815,4.317
		4.815,90.869 	"/>

		<path fill-rule="evenodd" clip-rule="evenodd" fill="#FFFFFF" stroke="#005386" stroke-width="1.7955" stroke-miterlimit="2.6131" d="
		M68.666,33.598c3.097-4.128,2.191-9.417-1.807-12.384c-3.87-2.967-9.287-2.321-12.253,1.807L44.158,36.952v-9.029
		c0-5.031-3.87-8.772-8.772-8.772c-4.9,0-8.9,3.741-8.9,8.772v39.342c0,5.03,4,8.771,8.9,8.771c4.902,0,8.772-3.61,8.772-8.771
		V55.526l21.025,23.605c-5.03,2.839-10.834,4.387-17.027,4.387c-19.735,0-35.859-16.124-35.859-35.989
		c0-19.735,16.124-35.859,35.859-35.859c19.864,0,35.86,16.124,35.86,35.859c0,7.354-2.193,14.06-5.805,19.736L59.378,46.11
		L68.666,33.598L68.666,33.598z"/>
	<path fill-rule="evenodd" clip-rule="evenodd" fill="#DF272A" d="M107.234,84.936c0.646,0.773,1.031,1.548,1.031,2.58
		c0,1.032-0.385,1.805-1.031,2.578c-0.646,0.646-1.548,1.034-2.581,1.034c-0.902,0-1.805-0.388-2.45-1.034
		c-0.646-0.773-1.033-1.546-1.033-2.578c0-1.032,0.387-1.807,1.033-2.58c0.645-0.645,1.548-1.032,2.45-1.032
		C105.686,83.904,106.588,84.291,107.234,84.936L107.234,84.936z M107.621,84.549c-0.774-0.774-1.806-1.161-2.968-1.161
		c-1.031,0-2.063,0.387-2.836,1.161c-0.775,0.903-1.291,1.806-1.291,2.967s0.516,2.064,1.291,2.967
		c0.773,0.773,1.805,1.161,2.836,1.161c1.162,0,2.194-0.388,2.968-1.161c0.773-0.903,1.29-1.806,1.29-2.967
		S108.394,85.452,107.621,84.549L107.621,84.549z M105.298,87.257c-0.128,0.129-0.387,0.129-0.773,0.129h-0.646v-1.548h0.646
		c0.386,0,0.773,0,1.031,0.129c0.13,0.128,0.259,0.257,0.259,0.646C105.815,87,105.686,87.257,105.298,87.257L105.298,87.257z
		 M103.105,89.709h0.774v-1.677h0.646c0.386,0,0.645,0,0.902,0.128c0.259,0.129,0.388,0.517,0.388,1.031v0.389v0.129l0,0l0,0h0.773
		l0,0c0,0-0.129-0.129-0.129-0.259c0-0.129,0-0.259,0-0.259v-0.385c0-0.259,0-0.517-0.259-0.646
		c-0.128-0.258-0.386-0.387-0.773-0.517c0.388,0,0.518-0.127,0.646-0.257c0.387-0.129,0.516-0.387,0.516-0.903
		s-0.259-0.903-0.773-1.032c-0.259-0.13-0.645-0.258-1.162-0.258h-1.548V89.709L103.105,89.709z"/>
</g>
</svg>
