<?xml version="1.0" encoding="utf-8"?>
<!-- Generator: Adobe Illustrator 16.0.0, SVG Export Plug-In . SVG Version: 6.00 Build 0)  -->
<!DOCTYPE svg PUBLIC "-//W3C//DTD SVG 1.1//EN" "http://www.w3.org/Graphics/SVG/1.1/DTD/svg11.dtd">
<svg version="1.1" id="Layer_1" xmlns="http://www.w3.org/2000/svg" xmlns:xlink="http://www.w3.org/1999/xlink" x="0px" y="0px"
	 width="153.833px" height="71.268px" viewBox="0 0 153.833 71.268" enable-background="new 0 0 153.833 71.268"
	 xml:space="preserve">
<g>
	<g>
		<path fill="#001689" d="M97.993,12.944c-0.05-0.09-0.105-0.179-0.174-0.26c-0.488-0.587-1.174-0.587-1.432-0.587h-4.159
			c-1.017,0-1.754,0.624-1.926,1.628l-0.026,0.139l-3.725,21.297c-0.127,0.731,0.123,1.214,0.354,1.489s0.662,0.604,1.402,0.604
			h4.599c0.014,0,0.045-0.002,0.076-0.004c0.973-0.033,1.68-0.654,1.846-1.622l2.246-12.819c0.034-0.202,0.096-0.401,0.18-0.595
			c0.442-1.017,1.486-1.699,2.594-1.699c0.356,0,0.521,0.08,0.731,0.182c0.228,0.109,0.538,0.26,0.954,0.26
			c0.108,0,0.358-0.054,0.463-0.079c0,0-0.12,0.029-0.186,0.045c0.831-0.123,1.5-0.771,1.654-1.637c0,0,0.867-4.961,0.868-4.969
			c0.017-0.101,0.024-0.201,0.024-0.3c0-0.835-0.554-1.552-1.38-1.736c-0.597-0.149-1.224-0.184-1.649-0.184
			C100.198,12.097,98.976,12.477,97.993,12.944z M92.469,37.25l-0.005,0.001c0.004,0,0.083-0.006,0.083-0.006
			C92.532,37.247,92.5,37.249,92.469,37.25z M92.465,37.251h0.004l0,0H92.465z"/>
		<path fill="#001689" d="M86.843,36.703c-0.198-0.234-0.408-0.616-0.408-1.156l0,0c0-0.126,0.011-0.259,0.036-0.401l0,0
			l3.725-21.297l0.025-0.136c0.174-1.04,0.955-1.701,2.007-1.698l0,0h4.159c0.259,0,0.98-0.001,1.494,0.617l0,0
			c0.056,0.065,0.104,0.135,0.146,0.205l0,0c0.979-0.454,2.179-0.82,3.302-0.822l0,0c0.43,0,1.063,0.035,1.666,0.186l0,0
			c0.865,0.193,1.446,0.945,1.445,1.817l0,0c0,0.104-0.008,0.208-0.025,0.311l0,0c-0.001,0.016-0.869,4.971-0.869,4.973l0,0
			c-0.16,0.9-0.855,1.575-1.723,1.704l0,0c-0.008,0.001-0.016,0.001-0.023,0l0,0c-0.096,0.018-0.197,0.033-0.266,0.033l0,0
			c-0.436,0.001-0.763-0.157-0.99-0.268l0,0c-0.211-0.101-0.352-0.172-0.695-0.173l0,0c-1.074,0-2.09,0.664-2.519,1.65l0,0
			c-0.081,0.188-0.14,0.381-0.175,0.575l0,0l-2.244,12.818c-0.17,1.003-0.916,1.659-1.924,1.691l0,0
			c-0.03,0.003-0.062,0.003-0.08,0.003l0,0h-4.599c-0.001,0-0.003,0-0.003,0l0,0C87.542,37.335,87.084,36.992,86.843,36.703
			L86.843,36.703z M92.907,37.172c0.012,0,0.043-0.003,0.073-0.005l0,0c0.938-0.034,1.604-0.62,1.768-1.554l0,0l2.247-12.819
			c0.035-0.209,0.096-0.414,0.184-0.613l0,0c0.457-1.047,1.527-1.748,2.67-1.748l0,0c0.367-0.002,0.559,0.087,0.768,0.189l0,0
			c0.227,0.109,0.521,0.251,0.918,0.251l0,0c0.082,0.001,0.31-0.045,0.421-0.071l0,0c0.015-0.003,0.022-0.005,0.022-0.005l0,0
			c0.012-0.002,0.023-0.002,0.035-0.001l0,0c0.695-0.188,1.236-0.769,1.371-1.524l0,0c0-0.005,0.814-4.656,0.867-4.954l0,0
			c0-0.008,0.002-0.012,0.002-0.014l0,0c0.016-0.098,0.023-0.193,0.023-0.287l0,0c-0.001-0.798-0.527-1.479-1.318-1.656l0,0
			c-0.586-0.147-1.207-0.181-1.629-0.181l0,0c-1.113-0.001-2.325,0.375-3.302,0.839l0,0c-0.038,0.019-0.087,0.003-0.108-0.036l0,0
			c-0.045-0.087-0.1-0.169-0.164-0.246l0,0c-0.46-0.556-1.111-0.557-1.367-0.557l0,0h-4.159c-0.981,0.004-1.675,0.59-1.845,1.562
			l0,0l-0.026,0.137l-3.724,21.296c-0.022,0.133-0.033,0.257-0.033,0.372l0,0c0,0.497,0.189,0.837,0.369,1.051l0,0
			c0.221,0.261,0.625,0.573,1.339,0.575l0,0h4.134c0.006-0.003,0.01-0.004,0.01-0.004h0.006l0.004-0.001v0.001h0.003l0,0v-0.001l0,0
			l0,0c0.028-0.001,0.055-0.003,0.073-0.004l0,0c0.002,0,0.004,0,0.004,0l0,0l0,0h0.002l0,0c0.014-0.001,0.027,0.002,0.039,0.009
			l0,0H92.907L92.907,37.172z M97.993,12.944l0.072-0.039L97.993,12.944L97.993,12.944z"/>
	</g>
	<g>
		<path fill="#001689" d="M105.877,15.816c-1.003,1.194-1.562,2.057-1.664,2.565c-0.002,0.008-0.002,0.019-0.004,0.025
			c-0.051,0.275-0.137,1.221,0.929,1.795c-0.013-0.006-0.024-0.013-0.036-0.019c0,0,2.301,1.335,2.951,1.712
			c-2.008,0.826-3.682,2.302-4.699,4.248c-0.447,0.843-0.758,1.756-0.921,2.707l-0.042,0.234c-0.087,0.498-0.131,0.987-0.131,1.463
			c0,1.633,0.506,3.113,1.48,4.273c1.316,1.568,3.359,2.434,5.751,2.434h1.858c0.879,0,1.809-0.092,2.82-0.498
			c0.004,0.006,0.008,0.013,0.012,0.018c0.333,0.393,0.813,0.48,1.426,0.48h4.158c0.017,0,0.049-0.002,0.08-0.004
			c0.97-0.035,1.676-0.654,1.846-1.618l2.414-13.804c0.119-0.686,0.178-1.351,0.178-1.991c0-2.044-0.608-3.836-1.801-5.256
			c-1.634-1.945-4.181-2.974-7.367-2.974C111.23,11.608,108.295,12.945,105.877,15.816z M114.215,19.486
			c0.604,0,1.097,0.189,1.385,0.532c0.219,0.26,0.283,0.569,0.283,0.847c0,0.104-0.012,0.197-0.026,0.288c-0.981,0-4.03,0-4.03,0
			c-0.043,0-0.083,0.008-0.125,0.008C112.624,20.065,113.486,19.486,114.215,19.486z M118.198,37.25
			c-0.003,0-0.006,0.001-0.006,0.001l0.09-0.006C118.264,37.246,118.231,37.249,118.198,37.25z M118.192,37.251h0.004l0,0H118.192z"
			/>
		<path fill="#001689" d="M114.145,36.856c-1.002,0.391-1.927,0.479-2.795,0.479l0,0h-1.858c-2.411,0.001-4.479-0.872-5.815-2.463
			l0,0c-0.986-1.174-1.5-2.676-1.5-4.325l0,0c0-0.48,0.045-0.975,0.133-1.478l0,0l0.042-0.235c0.164-0.957,0.478-1.879,0.929-2.729
			l0,0c1.002-1.914,2.633-3.378,4.59-4.221l0,0c-0.76-0.441-2.649-1.537-2.801-1.624l0,0c-0.816-0.454-0.972-1.137-0.969-1.558l0,0
			c0-0.134,0.016-0.242,0.027-0.313l0,0c0,0,0.002-0.013,0.006-0.024l0,0c0.111-0.544,0.676-1.403,1.682-2.603l0,0l0.063,0.053
			l-0.063-0.054c2.43-2.888,5.396-4.238,9.301-4.235l0,0c3.202-0.001,5.777,1.033,7.43,3.002l0,0
			c1.206,1.436,1.822,3.248,1.822,5.309l0,0c0,0.646-0.061,1.315-0.182,2.006l0,0l-2.414,13.804
			c-0.172,0.998-0.918,1.653-1.921,1.686l0,0c-0.033,0.002-0.063,0.003-0.085,0.003l0,0h-4.158c-0.002,0-0.004,0-0.004,0h-0.002
			C115,37.335,114.499,37.25,114.145,36.856L114.145,36.856z M119.766,37.17c0.012,0.002,0.044-0.001,0.077-0.003l0,0
			c0.933-0.036,1.6-0.62,1.767-1.55l0,0l2.414-13.804c0.119-0.682,0.178-1.341,0.178-1.977l0,0c0-2.028-0.604-3.799-1.781-5.202l0,0
			c-1.615-1.924-4.136-2.944-7.305-2.945l0,0c-3.867,0.002-6.77,1.325-9.176,4.179l0,0c-0.999,1.188-1.553,2.055-1.646,2.533l0,0
			c0,0-0.001,0.009-0.004,0.021l0,0c-0.012,0.061-0.024,0.159-0.024,0.28l0,0c0.003,0.383,0.126,0.98,0.87,1.403l0,0
			c0.003,0.003,0.006,0.004,0.006,0.004l0.002,0.001c0.006,0.003,0.012,0.007,0.018,0.01l0,0c0.005,0.005,0.011,0.007,0.017,0.01
			l0,0c0.003,0.002,0.007,0.003,0.009,0.006l0,0c0.321,0.187,2.311,1.341,2.908,1.688l0,0c0.027,0.016,0.043,0.045,0.041,0.076l0,0
			c-0.002,0.031-0.022,0.06-0.051,0.07l0,0c-1.99,0.818-3.649,2.281-4.66,4.21l0,0c-0.441,0.836-0.749,1.74-0.91,2.684l0,0
			l-0.043,0.233c-0.086,0.494-0.129,0.979-0.129,1.449l0,0c0,1.616,0.502,3.076,1.461,4.22l0,0c1.3,1.548,3.316,2.403,5.688,2.403
			l0,0h1.858c0.873,0,1.79-0.09,2.788-0.49l0,0c0.032-0.013,0.067-0.005,0.091,0.02l0,0c0.014,0.016,0.018,0.021,0.017,0.021l0,0
			c0.308,0.364,0.753,0.45,1.362,0.45l0,0h2.561c0.008-0.002,0.014-0.003,0.021-0.003l0,0l0,0l0,0h0.002l0,0l0,0
			c0.033-0.001,0.066-0.004,0.084-0.005l0,0c0.004,0,0.009,0,0.014,0l0,0h0.001l0,0c0,0,0.001,0,0.003,0.001l0,0h0.002l0,0h0.001
			l0,0l0.003,0.001l0,0l0,0l0,0l0.004,0.001l0,0l0,0l0,0l0.003,0.001l0,0h0.001l0,0h0.002l0,0h0.001l0,0
			c0,0,0.002,0.001,0.003,0.002l0,0h0.001l0,0l0.003,0.001l0,0l0,0l0,0c0.001,0.001,0.001,0.001,0.001,0.001l0,0H119.766
			L119.766,37.17z M111.625,21.197c-0.013-0.029-0.01-0.064,0.012-0.089l0,0c0.93-1.104,1.803-1.701,2.578-1.703l0,0v0.081v0.083
			c-0.654-0.004-1.461,0.507-2.328,1.502l0,0c0.421,0,2.939,0,3.898,0l0,0c0.009-0.066,0.017-0.134,0.017-0.206l0,0
			c0-0.267-0.063-0.554-0.267-0.794l0,0c-0.266-0.317-0.731-0.502-1.32-0.502l0,0v-0.083v-0.081c0.621,0,1.139,0.192,1.448,0.561
			l0,0c0.233,0.278,0.303,0.609,0.303,0.899l0,0c0,0.11-0.014,0.209-0.028,0.301l0,0c-0.006,0.04-0.041,0.069-0.081,0.069l0,0
			c-0.981,0-4.026,0-4.03,0l0,0c-0.033,0-0.072,0.008-0.125,0.009l0,0C111.668,21.244,111.64,21.225,111.625,21.197L111.625,21.197z
			"/>
	</g>
	<g>
		<path fill="#001689" d="M82.465,7.401h-2.133c-1.011,0-1.748,0.62-1.926,1.618l-0.049,0.256c0,0.004-0.007,0.021-0.007,0.024
			l-0.135,0.74c0,0-0.173,0.928-0.292,1.568c-0.829,0-2.58,0-2.58,0c-0.996,0-1.734,0.613-1.924,1.601l-0.031,0.156l-0.744,4.013
			c0.004-0.015,0.008-0.031,0.012-0.046c-0.058,0.254-0.064,0.502-0.023,0.759c0.002,0.014,0.004,0.027,0.008,0.042
			c0.121,0.625,0.652,1.355,1.749,1.355c0,0,0.716,0,1.416,0c-0.296,1.692-1.312,7.499-1.312,7.499
			c-0.118,0.677-0.176,1.331-0.176,1.959c0,3.355,1.668,5.966,4.751,7.314c1.593,0.684,3.478,0.994,4.556,0.994
			c0,0,0.157-0.015,0.215-0.02c0.883-0.09,1.548-0.701,1.709-1.598l0.736-4.215c0.021-0.122,0.03-0.241,0.03-0.358
			c0-0.438-0.138-0.833-0.403-1.145c-0.325-0.383-0.797-0.594-1.331-0.594c0.034,0,0.069,0.001,0.104,0.003
			c-0.819-0.063-1.41-0.297-1.706-0.679c-0.188-0.24-0.246-0.537-0.246-0.808c0-0.139,0.016-0.269,0.035-0.385
			c0,0,1.361-7.774,1.396-7.97c0.835,0,2.567,0,2.567,0c0.01,0,0.029-0.001,0.05-0.003c0.015-0.001,0.031-0.002,0.031-0.002
			s-0.002,0-0.006,0c0.978-0.03,1.685-0.651,1.851-1.623l0.727-4.156c0.063-0.364-0.013-0.944-0.229-1.245
			c-0.217-0.3-0.537-0.705-0.901-0.759l-0.622-0.092c0,0-1.135,0-2.088,0c0.166-0.96,0.367-2.115,0.367-2.115
			c0.025-0.141,0.037-0.272,0.037-0.396c0-0.504-0.195-0.861-0.382-1.085c-0.231-0.279-0.662-0.611-1.407-0.611H82.465z
			 M84.428,37.235c-0.044,0.005-0.085,0.014-0.129,0.016c0.021-0.001,0.15-0.018,0.172-0.02
			C84.471,37.231,84.44,37.234,84.428,37.235z"/>
		<path fill="#001689" d="M79.038,36.334c-3.111-1.355-4.805-4.006-4.801-7.389l0,0c0-0.633,0.058-1.292,0.177-1.974l0,0
			c0,0,0.978-5.595,1.294-7.402l0,0c-0.668,0-1.317,0-1.317,0l0,0c-1.138,0.003-1.706-0.766-1.83-1.423l0,0
			c-0.003-0.014-0.005-0.028-0.009-0.044l0,0c-0.018-0.114-0.027-0.226-0.027-0.337l0,0c0-0.141,0.016-0.28,0.045-0.421l0,0
			l0.74-3.997l0.03-0.156c0.192-1.021,0.973-1.67,2.005-1.665l0,0c0,0,1.657,0,2.512,0l0,0c0.117-0.638,0.278-1.5,0.278-1.502l0,0
			l0.136-0.741l0,0c0.003-0.021,0.005-0.016,0.008-0.024l0,0l0,0l0.047-0.256c0.181-1.031,0.961-1.688,2.008-1.685l0,0h2.133v0.082
			v0.083h-2.133c-0.976,0.004-1.67,0.586-1.845,1.55l0,0L78.439,9.29c-0.005,0.021-0.006,0.023-0.009,0.027l0,0l-0.134,0.738
			c0,0-0.173,0.926-0.292,1.568l0,0c-0.007,0.038-0.041,0.067-0.08,0.067l0,0c-0.415,0-1.059,0-1.6,0l0,0c-0.543,0-0.979,0-0.979,0
			h-0.001c-0.962,0.003-1.656,0.58-1.844,1.533l0,0l-0.029,0.156l-0.734,3.953c0,0.006,0,0.011-0.001,0.016l0,0
			c0,0.002,0,0.004-0.001,0.005l0,0c-0.002,0.01-0.004,0.019-0.006,0.027l0,0l-0.002,0.012c0,0.002,0,0.004-0.001,0.006l0,0
			c-0.025,0.124-0.036,0.245-0.036,0.367l0,0c0,0.103,0.008,0.205,0.025,0.312l0,0c0.002,0.013,0.004,0.025,0.007,0.039l0,0
			c0.119,0.595,0.612,1.287,1.668,1.288l0,0c0,0,0.716,0,1.416,0l0,0c0.024,0,0.046,0.012,0.063,0.03l0,0
			c0.016,0.018,0.022,0.042,0.019,0.066l0,0C75.59,21.194,74.576,27,74.576,27l0,0c-0.117,0.673-0.176,1.323-0.176,1.946l0,0
			c0.003,3.327,1.647,5.899,4.702,7.238l0,0c1.579,0.68,3.459,0.988,4.518,0.988l0,0c0,0,0.156-0.014,0.212-0.02l0,0
			c0.851-0.089,1.48-0.667,1.636-1.53l0,0l0.736-4.213c0.02-0.119,0.029-0.233,0.029-0.346l0,0c0-0.421-0.132-0.795-0.382-1.091l0,0
			c-0.287-0.337-0.692-0.534-1.157-0.563l0,0h-0.016l0,0h-0.001l0,0c-0.033-0.002-0.065-0.003-0.097-0.003l0,0
			c-0.013,0-0.025-0.003-0.037-0.008l0,0c-0.764-0.079-1.326-0.312-1.629-0.699l0,0c-0.204-0.262-0.264-0.577-0.264-0.859l0,0
			c0-0.143,0.016-0.278,0.035-0.397l0,0c0,0,0.34-1.944,0.687-3.912l0,0c0.343-1.969,0.692-3.962,0.709-4.059l0,0
			c0.007-0.039,0.042-0.068,0.082-0.068l0,0c0.835,0,2.567,0,2.567,0l0,0c0,0,0.023,0,0.047-0.002l0,0c0,0,0.012,0,0.017-0.002l0,0
			h0.007h0.003c0.942-0.031,1.608-0.618,1.771-1.555l0,0l0.729-4.157c0.013-0.076,0.02-0.165,0.02-0.26l0,0
			c0-0.324-0.085-0.716-0.235-0.923l0,0c-0.212-0.298-0.532-0.685-0.847-0.725l0,0l-0.613-0.091c-0.08,0-1.166,0-2.084,0l0,0
			c-0.025,0-0.048-0.011-0.063-0.03l0,0c-0.016-0.019-0.022-0.043-0.019-0.066l0,0c0.168-0.961,0.367-2.114,0.367-2.117l0,0
			c0.025-0.136,0.037-0.263,0.037-0.38l0,0c0-0.481-0.186-0.819-0.362-1.032l0,0c-0.222-0.265-0.626-0.58-1.345-0.581l0,0h-1.693
			V7.401V7.319h1.693c0.77-0.001,1.229,0.348,1.471,0.641l0,0c0.197,0.234,0.401,0.613,0.401,1.138l0,0
			c0,0.128-0.013,0.265-0.04,0.408l0,0c0,0-0.186,1.08-0.35,2.021l0,0c0.932,0,1.99,0,1.99,0l0,0h0.012l0.623,0.092
			c0.416,0.067,0.734,0.491,0.955,0.792l0,0c0.184,0.258,0.266,0.666,0.267,1.019l0,0c0,0.103-0.008,0.2-0.022,0.288l0,0
			l-0.729,4.156c-0.166,1.001-0.91,1.659-1.916,1.691l0,0c0,0-0.003,0-0.004,0l0,0c0,0-0.018,0.002-0.029,0.002l0,0
			c-0.021,0.002-0.04,0.003-0.057,0.003l0,0c0,0-1.641,0-2.498,0l0,0c-0.139,0.795-1.385,7.902-1.385,7.902l0,0
			c-0.02,0.111-0.033,0.238-0.033,0.369l0,0c0,0.261,0.057,0.537,0.229,0.759l0,0c0.268,0.346,0.822,0.578,1.607,0.645l0,0
			c0.527,0.017,0.998,0.236,1.325,0.622l0,0c0.276,0.326,0.423,0.742,0.423,1.197l0,0c0,0.12-0.012,0.245-0.031,0.373l0,0
			l-0.738,4.215c-0.123,0.698-0.548,1.235-1.143,1.499l0,0c0.006,0,0.012,0.002,0.018,0.005l0,0l0,0l0,0l0.002,0.001l0,0
			c0.012,0.006,0.021,0.014,0.03,0.025l0,0l0.001,0.001l0,0c0,0.001,0.002,0.001,0.002,0.002l0,0c0,0.001,0,0.001,0,0.002l0,0
			l0.001,0.001l0,0c0.001,0.001,0.001,0.002,0.001,0.002v0.001l0,0l0,0c0.006,0.01,0.009,0.021,0.012,0.032l0,0
			c0,0.008,0,0.015-0.002,0.021l0,0v0.002l0,0c0,0-0.001,0.001-0.001,0.002l0,0c0,0.001,0,0.001,0,0.001l0,0
			c0,0.001-0.001,0.003-0.001,0.004l0,0l0,0l0,0c0,0.002,0,0.003,0,0.004l0,0l0,0l0,0c-0.004,0.011-0.009,0.02-0.016,0.028l0,0
			c-0.009,0.009-0.02,0.018-0.031,0.022l0,0H84.5l0,0L84.5,37.308l0,0c0,0-0.001,0-0.002,0l0,0c0,0-0.001,0-0.001,0.002l0,0h-0.003
			l0,0h-0.001l0,0c-0.006,0.002-0.009,0.003-0.009,0.003l-0.006,0.001h-0.007l0,0c-0.016,0.002-0.057,0.008-0.094,0.011l0,0
			c-0.022,0.004-0.047,0.007-0.076,0.008l0,0h-0.006l0,0h-0.002l0,0h-0.002l0,0h-0.004l0,0l0,0l0,0l-0.004-0.001l0,0l0,0l0,0h-0.003
			l0,0c0-0.001-0.001-0.001-0.001-0.001l0,0c0,0-0.002,0-0.004-0.001l0,0l0,0l0,0c0,0-0.002,0-0.003-0.001l0,0h-0.001l0,0
			l-0.002-0.001l0,0l0,0l0,0c-0.002-0.001-0.004-0.001-0.004-0.002l0,0l0,0l0,0c-0.028-0.012-0.049-0.04-0.049-0.071l0,0
			c0-0.002,0-0.004,0-0.005l0,0v-0.001l0,0c0,0,0-0.001,0-0.002l0,0c-0.119,0.034-0.241,0.058-0.369,0.07l0,0
			c-0.059,0.005-0.215,0.019-0.223,0.02l0,0C82.532,37.335,80.645,37.024,79.038,36.334L79.038,36.334z"/>
	</g>
	<g>
		<path fill="#001689" d="M36.426,19.832L36.426,19.832c0.001,0.004-0.098,0.367-0.111,0.415c-0.016,0.1-0.026,0.198-0.026,0.297
			c0,0.399,0.138,0.786,0.393,1.093c0.345,0.413,0.857,0.64,1.443,0.64h5.825c0.986,0,1.795-0.642,1.962-1.561
			c0.001-0.004,0.003-0.008,0.003-0.013c0.131-0.747-0.163-2.007-0.976-2.973c-0.563-0.67-1.595-1.47-3.303-1.47
			C38.678,16.26,36.848,18.667,36.426,19.832z"/>
	</g>
	<g>
		<path fill="#001689" d="M31.653,17.769c-0.568,1.033-0.95,2.093-1.135,3.146l-1.063,6.07c-0.498,2.854,0.084,5.442,1.639,7.293
			c1.637,1.946,4.176,2.976,7.346,2.976l0,0c4.135,0,7.146-1.491,9.762-4.832c0-0.001,0.369-0.479,0.369-0.479
			c0.67-0.896,0.83-1.25,0.892-1.594c0.02-0.102,0.028-0.203,0.028-0.304c0-0.621-0.348-1.2-0.941-1.527
			c0,0-2.123-1.146-2.855-1.542c1.248,0,3.158,0,3.158,0c0.01,0,0.031-0.002,0.051-0.005c0.016,0,0.033-0.001,0.033-0.001h-0.007
			c0.971-0.029,1.679-0.652,1.847-1.62l0.693-3.963c0.443-2.535-0.273-5.216-1.916-7.17c-1.678-1.998-4.172-3.098-7.02-3.098
			C37.188,11.121,33.333,14.702,31.653,17.769z M42.28,26.977c-0.027,0.035-0.061,0.063-0.086,0.101
			c-0.019,0.025-0.035,0.053-0.052,0.08c-0.849,1.431-1.843,2.218-2.8,2.218c-0.533,0-0.967-0.178-1.249-0.514
			c-0.226-0.271-0.345-0.625-0.345-1.023c0-0.123,0.012-0.25,0.034-0.381c0,0,0.06-0.343,0.083-0.48
			C38.34,26.977,40.11,26.977,42.28,26.977z M50.424,32.422L50.424,32.422L50.424,32.422z"/>
		<path fill="#001689" d="M38.44,37.335c-3.186,0.001-5.754-1.035-7.408-3.004l0,0c-1.207-1.436-1.832-3.309-1.832-5.399l0,0
			c0-0.635,0.057-1.291,0.174-1.96l0,0l1.063-6.071c0.187-1.063,0.571-2.132,1.144-3.172l0,0c1.689-3.087,5.568-6.689,10.953-6.691
			l0,0c2.869,0,5.389,1.109,7.083,3.127l0,0c1.335,1.59,2.063,3.652,2.063,5.73l0,0c0,0.504-0.042,1.008-0.13,1.507l0,0
			l-0.692,3.963c-0.171,0.999-0.914,1.655-1.915,1.689l0,0l0,0l0,0h-0.005l0,0c-0.003,0-0.006,0-0.006,0h-0.003
			c-0.007,0-0.015,0-0.015,0h-0.004c-0.021,0.002-0.04,0.005-0.059,0.005l0,0c0,0-1.604,0-2.832,0l0,0
			c0.887,0.478,2.566,1.386,2.569,1.388l0,0c0.618,0.339,0.983,0.947,0.983,1.6l0,0c0,0.104-0.009,0.212-0.029,0.319l0,0
			c-0.064,0.362-0.236,0.731-0.908,1.628l0,0l-0.369,0.479c-2.623,3.355-5.666,4.864-9.816,4.863l0,0c-0.003,0-0.006,0-0.006,0
			H38.44z M31.725,17.809c-0.564,1.025-0.943,2.076-1.125,3.121l0,0L29.536,27c-0.115,0.661-0.172,1.309-0.172,1.933l0,0
			c0,2.058,0.615,3.891,1.795,5.293l0,0c1.617,1.924,4.129,2.945,7.281,2.947l0,0c4.114-0.004,7.09-1.476,9.695-4.801l0,0
			l0.369-0.478c0.669-0.894,0.818-1.235,0.877-1.559l0,0c0.019-0.097,0.027-0.193,0.027-0.289l0,0c0-0.591-0.33-1.143-0.898-1.456
			l0,0c0,0-2.123-1.146-2.855-1.541l0,0c-0.033-0.018-0.051-0.057-0.041-0.093l0,0c0.01-0.037,0.042-0.063,0.08-0.063l0,0
			c1.248,0,3.158,0,3.158,0l0,0c0,0,0.023-0.001,0.047-0.004l0,0h0.018l0,0c0.003,0,0.005,0,0.008-0.001l0,0
			c0.004,0,0.006,0,0.006,0h0.002c0.934-0.035,1.598-0.62,1.764-1.554l0,0l0.692-3.963c0.086-0.488,0.127-0.983,0.127-1.478l0,0
			c0.001-2.04-0.716-4.066-2.024-5.624l0,0c-1.662-1.978-4.13-3.067-6.957-3.067l0,0C37.227,11.202,33.393,14.761,31.725,17.809
			L31.725,17.809l-0.072-0.04L31.725,17.809L31.725,17.809z M38.03,28.915c-0.24-0.287-0.363-0.662-0.363-1.076l0,0
			c0-0.128,0.012-0.261,0.035-0.395l0,0c0,0,0.059-0.344,0.084-0.48l0,0c0.007-0.04,0.041-0.069,0.08-0.069l0,0
			c0.475,0,2.244,0,4.414,0l0,0v0.083v-0.083c0.032,0,0.061,0.019,0.074,0.047l0,0c0.014,0.027,0.012,0.062-0.008,0.086l0,0
			c-0.036,0.045-0.067,0.07-0.086,0.098l0,0c-0.016,0.023-0.031,0.049-0.047,0.074l0,0c-0.855,1.441-1.865,2.256-2.871,2.259l0,0
			h-0.004l0,0C38.79,29.458,38.331,29.272,38.03,28.915L38.03,28.915z M37.864,27.471c-0.021,0.126-0.032,0.249-0.032,0.367l0,0
			c0,0.382,0.112,0.717,0.325,0.969l0,0c0.265,0.315,0.669,0.484,1.186,0.486l0,0c0.908,0.003,1.889-0.758,2.729-2.179l0,0
			c0.012-0.02,0.023-0.036,0.035-0.056l0,0c-1.996,0-3.626,0-4.17,0l0,0C37.909,27.218,37.864,27.472,37.864,27.471L37.864,27.471z"
			/>
	</g>
	<g>
		<path fill="#001689" d="M51.84,10.627c-1.016,0-1.775,0.608-1.937,1.55c-0.018,0.096-0.026,0.189-0.026,0.28
			c0,0.302,0.084,0.577,0.165,0.796l0.148,0.374c0.021,0.051,0.022,0.053,0.05,0.1c0,0,4.718,8.714,5.393,9.963
			c-0.78,1.198-6.559,10.059-6.559,10.059c-0.046,0.07-0.086,0.146-0.119,0.224l-0.02,0.048l-0.121,0.305
			c-0.082,0.235-0.156,0.498-0.156,0.791c0,0.084,0.006,0.169,0.02,0.258c0.001,0.01,0.003,0.022,0.006,0.032
			c0.169,0.935,0.93,1.54,1.934,1.54h5.758c0.688,0,1.303-0.402,1.605-1.051c-0.029,0.063-0.063,0.122-0.1,0.178
			c0,0,1.26-1.899,2.326-3.511c1.428,2.772,4.785,9.284,4.807,9.329c0.02,0.041,0.084,0.179,0.084,0.179
			c0.012,0.026,0.006,0.015,0.02,0.041c0,0,0.021,0.039,0.039,0.071c0.324,0.59,0.922,0.941,1.603,0.941h51.491
			c0.734-0.008,1.346-0.404,1.65-1.062c0.041-0.087,0.072-0.178,0.093-0.272c0,0,0.579-2.545,0.585-2.567
			c0.07-0.214,0.117-0.43,0.117-0.64c0-0.598-0.279-1.15-0.803-1.509c-0.523-0.366-1.053-0.356-1.479-0.347c0,0-44.704,0-45.869,0
			c-0.555-1.052-6.11-11.58-6.758-12.81c0.776-1.187,6.587-10.063,6.587-10.063c0.03-0.047,0.064-0.108,0.089-0.158
			c0.152-0.31,0.335-0.68,0.335-1.153c0-0.111-0.011-0.23-0.034-0.354c-0.169-0.931-0.924-1.531-1.933-1.531h-5.757
			c-0.721,0-1.354,0.401-1.656,1.049c0.029-0.063,0.063-0.121,0.1-0.178c0,0-1.301,1.97-2.369,3.586
			c-0.906-1.611-1.974-3.503-1.974-3.503c-0.013-0.022,0.06,0.109,0.047,0.089c0,0-0.183-0.287-0.228-0.358
			c-0.336-0.445-0.85-0.714-1.396-0.714H51.84z M67.575,40.903l0.003,0.004L67.575,40.903L67.575,40.903z M58.965,11.295
			c0,0,0.023,0.038,0.029,0.046c0.012,0.018,0.028,0.029,0.04,0.046C59.03,11.382,58.965,11.293,58.965,11.295z M59.036,11.39
			l-0.001-0.003L59.036,11.39z M72.764,12.188c0,0.005,0.002,0.01,0.004,0.015c-0.002-0.01-0.004-0.018-0.006-0.027
			C72.762,12.179,72.762,12.184,72.764,12.188z M50.042,13.253L50.042,13.253L50.042,13.253z M65.151,42.174L65.151,42.174
			L65.151,42.174z M65.176,42.219c0,0-0.012-0.02-0.02-0.037c-0.002-0.002-0.004-0.005-0.006-0.008
			C65.151,42.174,65.177,42.221,65.176,42.219z"/>
		<path fill="#001689" d="M66.758,43.207c-0.688,0.001-1.301-0.35-1.646-0.937l0,0c-0.003-0.002-0.005-0.006-0.008-0.01l0,0
			l-0.025-0.045c-0.003-0.005-0.004-0.01-0.006-0.016l0,0c-0.015-0.025-0.027-0.05-0.027-0.05l0,0
			c-0.014-0.024-0.012-0.024-0.022-0.046l0,0c0,0-0.063-0.138-0.081-0.177l0,0c-0.023-0.043-3.281-6.364-4.742-9.202l0,0
			c-0.934,1.409-1.987,2.997-2.208,3.331l0,0c-0.332,0.601-0.941,0.972-1.616,0.971l0,0h-5.758
			c-1.038,0.002-1.841-0.633-2.016-1.606l0,0c-0.002-0.012-0.004-0.024-0.006-0.035l0,0c-0.014-0.092-0.021-0.183-0.021-0.27l0,0
			c0-0.308,0.079-0.579,0.163-0.821l0,0l0.121-0.306l0.021-0.049c0.034-0.082,0.077-0.163,0.126-0.237l0,0
			c0,0,5.654-8.671,6.531-10.017l0,0c-0.371-0.688-1.689-3.123-2.927-5.406l0,0c-1.264-2.334-2.441-4.509-2.444-4.514l0,0
			c-0.022-0.044-0.031-0.056-0.053-0.108l0,0l-0.148-0.376c-0.082-0.223-0.17-0.508-0.17-0.824l0,0c0-0.096,0.009-0.194,0.027-0.295
			l0,0c0.166-0.98,0.969-1.621,2.018-1.618l0,0v0.083v0.082c-0.982,0.003-1.699,0.58-1.855,1.482l0,0
			c-0.018,0.09-0.023,0.179-0.023,0.266l0,0c-0.001,0.286,0.079,0.553,0.156,0.766l0,0l0.149,0.373
			c0.021,0.049,0.017,0.04,0.045,0.092l0,0c0,0,4.719,8.714,5.395,9.962l0,0c0.015,0.026,0.013,0.06-0.004,0.085l0,0
			c-0.39,0.599-2.03,3.114-3.572,5.479l0,0c-1.542,2.364-2.986,4.58-2.986,4.58l0,0c-0.043,0.065-0.081,0.138-0.112,0.211l0,0
			l-0.02,0.047l-0.119,0.301c-0.081,0.231-0.152,0.485-0.152,0.764l0,0c0,0.079,0.006,0.161,0.018,0.243l0,0
			c0.002,0.012,0.004,0.022,0.006,0.032l0,0c0.165,0.896,0.882,1.468,1.854,1.471l0,0h5.758c0.584-0.001,1.113-0.303,1.426-0.808
			l0,0c0.002-0.009,0.006-0.019,0.011-0.027l0,0h0.001l0,0c0.025-0.038,0.049-0.077,0.069-0.118l0,0
			c0.008-0.016,0.017-0.031,0.023-0.048l0,0c0.001-0.003,0.003-0.007,0.005-0.01l0,0c0.008-0.013,0.021-0.024,0.035-0.03l0,0h0.002
			l0,0c0-0.001,0.002-0.001,0.002-0.001l0,0c0-0.001,0-0.001,0-0.001h0.001c0.355-0.537,1.333-2.011,2.188-3.302l0,0
			c0.016-0.024,0.045-0.039,0.074-0.037l0,0c0.029,0.002,0.055,0.019,0.068,0.044l0,0c1.428,2.771,4.784,9.283,4.809,9.332l0,0
			c0.019,0.041,0.081,0.179,0.081,0.179l0,0c0.016,0.031,0.005,0.009,0.019,0.036l0,0c0,0,0.021,0.04,0.039,0.071l0,0
			c0.311,0.563,0.878,0.899,1.529,0.899l0,0h51.49c0.705-0.008,1.285-0.384,1.578-1.014l0,0c0.037-0.082,0.066-0.168,0.086-0.257
			l0,0c0,0,0.579-2.542,0.588-2.574l0,0c0.068-0.209,0.113-0.417,0.113-0.614l0,0c-0.002-0.572-0.266-1.097-0.768-1.44l0,0
			c-0.424-0.296-0.846-0.336-1.224-0.336l0,0c-0.07,0-0.14,0-0.208,0.003l0,0c0,0-44.704,0-45.869,0l0,0
			c-0.031,0-0.06-0.018-0.074-0.045l0,0c-0.555-1.051-6.109-11.579-6.758-12.809l0,0c-0.014-0.025-0.012-0.058,0.006-0.083l0,0
			c0.775-1.187,6.586-10.063,6.586-10.063l0,0c0.028-0.043,0.063-0.104,0.084-0.15l0,0c0.153-0.31,0.326-0.664,0.326-1.116l0,0
			c0-0.106-0.01-0.219-0.033-0.34l0,0c-0.164-0.892-0.875-1.462-1.851-1.464l0,0h-5.757c-0.614,0-1.162,0.304-1.477,0.809l0,0
			c-0.003,0.009-0.006,0.018-0.012,0.025l0,0c-0.032,0.049-0.062,0.102-0.086,0.155l0,0c-0.003,0.003-0.006,0.008-0.007,0.012l0,0
			c-0.007,0.015-0.019,0.028-0.034,0.037l0,0l0,0l0,0l-0.002,0.001l0,0l0,0l0,0c-0.002,0.001-0.004,0.002-0.004,0.002h-0.001
			l-0.001,0.001l0,0h-0.001l0,0l-0.001,0.001l0,0c-0.363,0.549-1.373,2.076-2.231,3.377l0,0c-0.017,0.024-0.044,0.038-0.071,0.037
			l0,0c-0.029-0.001-0.056-0.017-0.07-0.041l0,0c-0.777-1.381-1.672-2.969-1.91-3.394l0,0c-0.002-0.002-0.004-0.004-0.006-0.005l0,0
			l0,0l0,0v-0.002l0,0c-0.002-0.002-0.004-0.004-0.006-0.006l0,0c-0.001-0.002-0.002-0.003-0.002-0.004l0,0
			c0-0.001-0.184-0.287-0.225-0.353l0,0c-0.321-0.426-0.813-0.683-1.33-0.683l0,0H51.84v-0.082v-0.083h5.758
			c0.542,0.001,1.053,0.253,1.406,0.678l0,0c0.002,0.001,0.004,0.004,0.006,0.005l0,0l0,0l0,0l0,0l0,0
			c0.002,0.002,0.004,0.004,0.004,0.004h0.002c0.008,0.007,0.014,0.014,0.02,0.022l0,0l0,0c-0.004-0.007-0.008-0.011-0.012-0.016
			l0,0c0.002,0.002,0.004,0.003,0.004,0.005l0,0c0.002,0.002,0.003,0.003,0.004,0.004l0,0c0.002,0.003,0.004,0.007,0.008,0.01l0,0
			c0.005,0.007,0.012,0.016,0.019,0.025l0,0c0.015,0.019,0.031,0.041,0.037,0.05l0,0l0,0c0.001,0.001,0.002,0.002,0.003,0.003l0,0
			c0.001,0.002,0.002,0.003,0.004,0.004l0,0v0.001l0,0v0.001l0,0l0,0l0,0l0.002,0.003c0.009,0.012,0.014,0.025,0.014,0.04l0,0
			c0.03,0.048,0.066,0.104,0.098,0.152l0,0c0,0,0.002,0.002,0.004,0.002l0,0c0.01,0.007,0.02,0.015,0.025,0.025l0,0
			c0,0.003,0,0.004,0,0.004l0,0c0,0,0.002,0.002,0.002,0.004l0,0c0,0,0.001,0,0.002,0.001l0,0v-0.001v0.001
			c0.031,0.058,1.027,1.825,1.906,3.384l0,0c0.941-1.426,2.035-3.082,2.256-3.414l0,0c0.335-0.6,0.962-0.969,1.664-0.969l0,0h5.757
			c1.031-0.001,1.825,0.62,2.009,1.575l0,0c0.001,0.003,0.002,0.007,0.002,0.011l0,0v0.002l0,0h0.002
			c0.001,0.007,0.002,0.017,0.004,0.027l0,0c0.001,0.005,0.001,0.01,0.001,0.015l0,0c0.021,0.118,0.032,0.231,0.032,0.34l0,0
			c0,0.495-0.191,0.88-0.344,1.188l0,0c-0.025,0.054-0.063,0.117-0.094,0.168l0,0c0,0-5.689,8.689-6.561,10.023l0,0
			c0.734,1.393,6.048,11.465,6.711,12.722l0,0c1.006,0,12.234,0,23.322,0l0,0c11.322,0,22.498,0,22.498,0l-0.002,0.001
			c0.068-0.003,0.137-0.005,0.21-0.005l0,0c0.389,0,0.856,0.044,1.317,0.366l0,0c0.545,0.373,0.839,0.952,0.839,1.576l0,0
			c-0.001,0.223-0.05,0.446-0.12,0.658l0,0c-0.005,0.021-0.584,2.564-0.584,2.566l0,0c-0.022,0.101-0.056,0.196-0.1,0.29l0,0
			c-0.314,0.684-0.96,1.103-1.725,1.109l0,0H66.758L66.758,43.207z M59.206,11.783c-0.006-0.002-0.013-0.003-0.018-0.006l0,0l0,0
			l0,0l0,0h-0.001C59.194,11.78,59.2,11.781,59.206,11.783L59.206,11.783z M59.154,11.747c-0.003-0.004-0.005-0.009-0.006-0.012l0,0
			C59.15,11.739,59.152,11.743,59.154,11.747L59.154,11.747z M59.305,11.689c-0.001-0.003-0.002-0.006-0.002-0.01l0,0
			c0,0.001,0,0.004,0,0.006l0,0C59.304,11.686,59.305,11.688,59.305,11.689L59.305,11.689z M59.299,11.669
			c0-0.001-0.001-0.001-0.002-0.002l0,0C59.298,11.669,59.298,11.669,59.299,11.669L59.299,11.669z M59.042,11.267L59.042,11.267
			L59.042,11.267L59.042,11.267L59.042,11.267L59.042,11.267L59.042,11.267z M59.042,11.263L59.042,11.263L59.042,11.263
			c-0.002-0.004-0.004-0.005-0.004-0.006l0,0v-0.001l0,0l-0.001-0.002h-0.001l0,0C59.038,11.257,59.04,11.259,59.042,11.263
			L59.042,11.263z M59.004,11.223L59.004,11.223L59.004,11.223L59.004,11.223L59.004,11.223L59.004,11.223L59.004,11.223z
			 M67.506,40.947l-0.002-0.003l-0.002-0.002l0,0c-0.02-0.035-0.01-0.08,0.021-0.104l0,0c0.034-0.024,0.08-0.022,0.109,0.007l0,0
			l0,0l0.014,0.018v-0.001l0.002,0.004l0,0l0.001,0.002c0.021,0.04,0.007,0.089-0.032,0.11l0,0c-0.014,0.008-0.027,0.012-0.04,0.012
			l0,0C67.548,40.989,67.521,40.974,67.506,40.947L67.506,40.947z M67.517,40.961l0.048-0.049L67.517,40.961L67.517,40.961z
			 M67.575,40.903L67.575,40.903L67.575,40.903L67.575,40.903z M59.023,11.238c-0.001-0.002-0.003-0.004-0.007-0.007l0,0l0,0l0,0
			c-0.002-0.001-0.004-0.002-0.006-0.004l0,0C59.015,11.23,59.02,11.233,59.023,11.238L59.023,11.238L59.023,11.238L59.023,11.238z"
			/>
	</g>
	<g>
		<path fill="#FFFFFF" d="M39.42,19.86c0.604-0.638,1.367-1.096,2.293-1.096c0.931,0,1.472,0.482,1.801,1.096H39.42z"/>
	</g>
	<g>
		<path fill="#FFFFFF" d="M110.592,28.559c0.023-0.135,0.201-0.297,0.285-0.313c0,0,1.973,0,3.859,0
			c-0.694,0.608-1.598,1.14-2.301,1.14c0,0-1.452,0-2.01,0C110.473,29.117,110.592,28.559,110.592,28.559z"/>
	</g>
	<g>
		<path fill="#E2231A" d="M92.934,35.78c0.32-0.01,0.489-0.157,0.545-0.486l2.246-12.825c0.055-0.314,0.148-0.616,0.273-0.905l0,0
			c0.648-1.485,2.163-2.521,3.85-2.521c1.027,0,1.391,0.441,1.686,0.441c0.011,0,0.018-0.005,0.027-0.006
			c0.238-0.014,0.497-0.203,0.555-0.533l0.866-4.942c0.037-0.245-0.072-0.439-0.308-0.49c-0.375-0.098-0.858-0.147-1.346-0.147
			c-1.567,0-3.392,0.932-3.977,1.47c-0.115,0.098-0.17,0.146-0.37,0.146c-0.194,0-0.354-0.194-0.302-0.489l0.117-0.686
			c0.074-0.392-0.068-0.441-0.41-0.441h-4.159c-0.342,0-0.517,0.147-0.576,0.49l-0.03,0.159l0,0l-3.72,21.28
			c-0.06,0.34,0.062,0.487,0.406,0.487h4.599C92.917,35.781,92.923,35.78,92.934,35.78L92.934,35.78z"/>
		<path fill="#121413" d="M92.907,36.271h-4.599c-0.2-0.003-0.419-0.029-0.625-0.189l0,0c-0.212-0.165-0.292-0.439-0.286-0.638l0,0
			c0-0.083,0.01-0.16,0.023-0.234l0,0l3.721-21.286l0.028-0.151c0.04-0.235,0.136-0.485,0.349-0.665l0,0
			c0.211-0.18,0.475-0.233,0.71-0.233l0,0h4.159c0.12,0.003,0.238,0.003,0.389,0.042l0,0c0.145,0.032,0.356,0.157,0.449,0.357l0,0
			c0.064,0.128,0.079,0.252,0.079,0.359l0,0c0,0.089-0.01,0.174-0.024,0.255l0,0l-0.073,0.433c0.376-0.293,0.925-0.602,1.579-0.875
			l0,0c0.768-0.316,1.662-0.568,2.543-0.571l0,0c0.518,0.002,1.025,0.051,1.459,0.161l0,0c0.192,0.042,0.383,0.153,0.508,0.318l0,0
			c0.129,0.165,0.184,0.366,0.182,0.556l0,0c0,0.054-0.003,0.111-0.012,0.168l0,0l-0.002,0.009l-0.865,4.942
			c-0.096,0.529-0.504,0.881-0.95,0.932l0,0c-0.03,0.007-0.069,0.013-0.114,0.013l0,0c-0.199-0.003-0.334-0.063-0.445-0.112l0,0
			c-0.111-0.051-0.207-0.101-0.314-0.148l0,0c-0.219-0.091-0.48-0.179-0.926-0.18l0,0c-1.484-0.003-2.833,0.92-3.401,2.228l0,0
			c-0.11,0.253-0.192,0.519-0.239,0.794l0,0l-2.246,12.822c-0.037,0.229-0.133,0.47-0.332,0.647l0,0
			c-0.195,0.173-0.442,0.235-0.666,0.244l0,0c-0.012,0.001-0.029,0.004-0.054,0.004l0,0H92.907L92.907,36.271z M92.937,35.907
			l-0.003-0.127l0.002,0.112L92.937,35.907L92.937,35.907z M92.887,35.292c0.008,0,0.018-0.002,0.029-0.002l0,0l0,0
			c0.028-0.001,0.05-0.003,0.063-0.007l0,0c0.006-0.014,0.014-0.038,0.02-0.074l0,0l2.244-12.824
			c0.062-0.355,0.168-0.696,0.308-1.018l0,0c0.728-1.663,2.409-2.812,4.298-2.814l0,0c0.512-0.001,0.908,0.101,1.198,0.214l0,0
			c0.24,0.097,0.421,0.192,0.488,0.222l0,0c0.013-0.003,0.083-0.027,0.1-0.129l0,0l0.856-4.891
			c-0.314-0.074-0.736-0.117-1.162-0.115l0,0c-0.687-0.003-1.486,0.21-2.17,0.494l0,0c-0.68,0.278-1.26,0.642-1.475,0.846l0,0
			l-0.018,0.015c-0.053,0.042-0.127,0.114-0.26,0.179l0,0c-0.138,0.064-0.289,0.083-0.425,0.082l0,0
			c-0.227,0.002-0.447-0.104-0.589-0.271l0,0c-0.145-0.164-0.213-0.379-0.212-0.595l0,0c-0.001-0.064,0.005-0.133,0.019-0.202l0,0
			l0.094-0.548h-4.065c-0.036-0.001-0.061,0.002-0.075,0.004l0,0c-0.005,0.015-0.014,0.043-0.021,0.086l0,0l-0.028,0.154
			l-3.706,21.194H92.887L92.887,35.292z"/>
	</g>
	<g>
		<path fill="#E2231A" d="M87.84,12.903c-0.061-0.006-0.127-0.029-0.209-0.029h-3.232c-0.339,0-0.462-0.146-0.398-0.487l0.561-3.231
			c0.064-0.341-0.059-0.487-0.402-0.487h-1.693H81.09h-0.758c-0.342,0-0.518,0.146-0.578,0.487l-0.051,0.271l-0.006,0.015l0,0
			l-0.135,0.741l-0.41,2.204c-0.064,0.33-0.232,0.474-0.551,0.483c-0.01,0-0.02,0.004-0.027,0.004h-3.23
			c-0.344,0-0.514,0.149-0.579,0.49l-0.032,0.161l0,0l-0.74,3.999c-0.021,0.097-0.019,0.175-0.008,0.242l0,0
			c0.033,0.17,0.16,0.249,0.405,0.249h2.556c0.004,0,0.004,0,0.004,0c0.035,0,0.061,0.007,0.092,0.011l0,0
			c0.262,0.031,0.361,0.174,0.307,0.479l-1.504,8.615c-0.626,3.571,0.639,6.41,3.773,7.783c1.366,0.586,3.078,0.878,4.008,0.878
			c0.011,0,0.02-0.001,0.029-0.003v0.002c0.277-0.013,0.488-0.16,0.545-0.486l0.736-4.209c0.049-0.295-0.061-0.493-0.354-0.493
			c-2.513-0.192-3.47-1.71-3.163-3.472l1.414-8.071l0.094-0.544c0.061-0.343,0.234-0.489,0.578-0.489h3.227
			c0.012,0,0.018-0.003,0.035-0.003c0.313-0.011,0.484-0.156,0.541-0.485c0,0,0.729-4.17,0.729-4.174
			C88.036,13.353,88.182,12.931,87.84,12.903z"/>
		<path fill="#121413" d="M79.421,35.35c-1.383-0.604-2.452-1.498-3.161-2.614l0,0c-0.713-1.118-1.061-2.448-1.061-3.904l0,0
			c0-0.579,0.055-1.18,0.162-1.797l0,0l1.49-8.53H74.39c-0.175-0.001-0.356-0.024-0.54-0.135l0,0
			c-0.186-0.107-0.314-0.324-0.346-0.508l0,0l-0.002-0.014c-0.01-0.055-0.016-0.118-0.016-0.184l0,0c0-0.075,0.01-0.154,0.025-0.235
			l0,0l0.742-4l0.029-0.158c0.045-0.229,0.141-0.474,0.35-0.652l0,0c0.211-0.179,0.475-0.235,0.711-0.233l0,0h3.195
			c0.012-0.002,0.027-0.002,0.047-0.003l0,0l0,0c0.031-0.002,0.051-0.005,0.063-0.007l0,0c0.006-0.015,0.016-0.04,0.023-0.078l0,0
			l0.41-2.203l0.133-0.741c0.006-0.021,0.01-0.042,0.018-0.062l0,0l0.04-0.223c0.04-0.233,0.14-0.481,0.351-0.66l0,0
			c0.211-0.178,0.474-0.231,0.709-0.23l0,0h0.758h1.375h1.693c0.196,0.002,0.41,0.026,0.619,0.184l0,0
			c0.211,0.16,0.295,0.437,0.288,0.636l0,0c0,0.085-0.009,0.165-0.023,0.24l0,0l-0.545,3.147h3.134c0.131,0,0.225,0.025,0.248,0.029
			l0,0l0.002,0.001l-0.041,0.487l-0.033,0.414l0.033-0.414l0.041-0.487c0.199,0.009,0.432,0.127,0.544,0.303l0,0
			c0.114,0.171,0.13,0.329,0.131,0.445l0,0c-0.003,0.14-0.026,0.242-0.044,0.3l0,0c0,0.006-0.002,0.013-0.003,0.021l0,0
			c-0.005,0.03-0.013,0.075-0.022,0.133l0,0c-0.021,0.114-0.049,0.277-0.083,0.474l0,0c-0.069,0.391-0.159,0.912-0.251,1.435l0,0
			c-0.182,1.043-0.364,2.085-0.364,2.083l0,0c-0.037,0.229-0.133,0.471-0.332,0.647l0,0c-0.191,0.17-0.435,0.234-0.653,0.243l0,0
			c-0.021,0.003-0.046,0.005-0.072,0.005l0,0h-3.227c-0.037,0-0.062,0.003-0.075,0.006l0,0c-0.006,0.015-0.013,0.041-0.021,0.078
			l0,0l-0.096,0.545l-1.414,8.07c-0.031,0.185-0.047,0.363-0.047,0.537l0,0c0.004,0.633,0.205,1.154,0.629,1.565l0,0
			c0.424,0.406,1.104,0.715,2.119,0.797l0,0c0.208,0.001,0.445,0.072,0.611,0.249l0,0c0.172,0.181,0.226,0.412,0.225,0.604l0,0
			c0,0.068-0.006,0.138-0.018,0.211l0,0l-0.736,4.212c-0.043,0.249-0.163,0.488-0.359,0.649l0,0
			c-0.191,0.161-0.424,0.229-0.64,0.238l0,0c-0.017,0.002-0.034,0.004-0.058,0.004l0,0C82.604,36.266,80.875,35.969,79.421,35.35
			L79.421,35.35z M77.631,17.781c0.166,0.166,0.225,0.397,0.221,0.578l0,0c0,0.08-0.009,0.154-0.021,0.229l0,0l-1.506,8.615
			c-0.099,0.565-0.147,1.11-0.147,1.628l0,0c0.001,1.303,0.308,2.436,0.907,3.378l0,0c0.6,0.941,1.498,1.703,2.727,2.242l0,0
			c1.266,0.549,2.938,0.838,3.786,0.841l0,0c0.021-0.003,0.04-0.004,0.062-0.004l0,0c0.021-0.003,0.034-0.008,0.034-0.008
			l0.003-0.001c0-0.001,0.002-0.001,0.004-0.007l0,0c0.004-0.008,0.014-0.028,0.02-0.063l0,0l0.723-4.139
			c-1.136-0.103-2.025-0.472-2.637-1.059l0,0c-0.633-0.602-0.935-1.422-0.932-2.271l0,0c0-0.233,0.021-0.469,0.063-0.706l0,0
			l1.414-8.071l0.096-0.543c0.039-0.232,0.135-0.482,0.347-0.662l0,0c0.212-0.18,0.476-0.233,0.712-0.232l0,0H86.7
			c0.018-0.002,0.039-0.004,0.058-0.004l0,0c0.023-0.001,0.038-0.002,0.05-0.005l0,0c0.005-0.015,0.012-0.038,0.018-0.074l0,0
			c0-0.001,0.182-1.032,0.361-2.07l0,0c0.15-0.86,0.305-1.735,0.352-2.009l0,0h-3.139c-0.193-0.002-0.408-0.026-0.616-0.186l0,0
			c-0.212-0.161-0.295-0.436-0.286-0.636l0,0c0-0.084,0.009-0.166,0.022-0.239l0,0l0.544-3.147h-1.598H81.09h-0.758
			c-0.037,0-0.061,0.004-0.076,0.007l0,0c-0.006,0.015-0.014,0.041-0.021,0.082l0,0l-0.052,0.271
			c-0.004,0.021-0.008,0.039-0.014,0.058l0,0l-0.127,0.698l-0.41,2.207c-0.043,0.227-0.139,0.463-0.338,0.638l0,0
			c-0.191,0.168-0.432,0.231-0.648,0.241l0,0c-0.017,0.002-0.04,0.005-0.072,0.006l0,0h-3.23c-0.036,0-0.061,0.003-0.075,0.005l0,0
			c-0.006,0.016-0.015,0.045-0.024,0.091l0,0l-0.03,0.154l-0.726,3.912h2.457c0.004,0,0.004,0,0.004,0l0,0
			c0.051,0,0.094,0.006,0.121,0.01l0,0c0.016,0.003,0.025,0.004,0.029,0.005l0,0C77.268,17.561,77.467,17.617,77.631,17.781
			L77.631,17.781z M87.8,13.39l0.006-0.065L87.8,13.39L87.8,13.39z"/>
	</g>
	<g>
		<path fill="#E2231A" d="M44.566,20.365c-0.045,0.241-0.274,0.438-0.616,0.438h-0.072h-5.753c-0.343,0-0.503-0.197-0.46-0.438
			c0.008-0.048,0.025-0.104,0.049-0.169c0.285-0.786,1.701-2.669,3.923-2.669C44.083,17.527,44.668,19.776,44.566,20.365
			L44.566,20.365z M36.536,26.538l0.094-0.545c0.062-0.343,0.234-0.488,0.574-0.488h11.648c0.014,0,0.021-0.005,0.033-0.005l0,0
			c0.318-0.01,0.484-0.152,0.542-0.486l0.694-3.965c0.709-4.06-2.059-8.662-7.588-8.662c-4.34,0-7.955,2.787-9.68,5.937l0,0
			c-0.493,0.897-0.83,1.824-0.986,2.726l-1.064,6.071c-0.888,5.088,2.061,8.661,7.637,8.661c4.258,0,6.729-1.811,8.684-4.307
			c0.123-0.152,0.238-0.307,0.352-0.454c0.001-0.031,0.001-0.063-0.003-0.093c0.004,0.03,0.004,0.062,0.003,0.093
			c0.345-0.463,0.613-0.865,0.641-1.016c0.026-0.146-0.047-0.291-0.227-0.39l-3.354-1.811c-0.358-0.195-0.627-0.341-0.773-0.341
			c-0.145,0-0.309,0.097-0.441,0.29c-1.249,2.104-2.711,2.889-3.979,2.889c-2.008,0-3.241-1.615-2.908-3.522L36.536,26.538z"/>
		<path fill="#121413" d="M38.44,36.271c-2.549,0.001-4.628-0.724-6.07-2.037l0,0c-1.443-1.311-2.215-3.197-2.211-5.381l0,0
			c0-0.585,0.054-1.192,0.164-1.818l0,0l1.063-6.07c0.168-0.962,0.523-1.938,1.039-2.876l0,0c1.803-3.286,5.55-6.184,10.108-6.191
			l0,0c2.602-0.002,4.672,0.982,6.065,2.467l0,0c1.395,1.484,2.121,3.45,2.121,5.415l0,0c0,0.453-0.039,0.905-0.117,1.354l0,0
			l-0.693,3.964c-0.039,0.229-0.129,0.469-0.33,0.647l0,0c-0.191,0.17-0.431,0.232-0.646,0.243l0,0
			c-0.021,0.003-0.049,0.006-0.079,0.006l0,0H37.204c-0.034,0-0.059,0.002-0.072,0.006l0,0c-0.006,0.015-0.014,0.041-0.021,0.077
			l0,0l-0.094,0.544l-0.481-0.083l0.48,0.085l-0.1,0.582c-0.033,0.181-0.047,0.357-0.047,0.529l0,0c0,0.696,0.246,1.293,0.668,1.722
			l0,0c0.424,0.425,1.026,0.696,1.805,0.698l0,0c1.055-0.002,2.357-0.639,3.557-2.648l0,0l0.02-0.03
			c0.193-0.278,0.477-0.494,0.844-0.5l0,0c0.229,0.008,0.357,0.075,0.514,0.143l0,0c0.152,0.071,0.313,0.16,0.492,0.257l0,0
			l3.355,1.813c0.264,0.136,0.489,0.425,0.486,0.76l0,0c0,0.049-0.004,0.097-0.014,0.146l0,0c-0.027,0.133-0.066,0.205-0.109,0.296
			l0,0c-0.045,0.085-0.1,0.175-0.16,0.271l0,0c-0.125,0.193-0.283,0.416-0.461,0.654l0,0c-0.002,0.002-0.004,0.005-0.006,0.007l0,0
			c-0.11,0.146-0.229,0.304-0.352,0.456l0,0c-1.003,1.28-2.158,2.411-3.627,3.217l0,0c-1.467,0.806-3.239,1.278-5.432,1.278l0,0
			c-0.004,0-0.008,0-0.008,0H38.44z M33.282,18.559c-0.469,0.854-0.785,1.732-0.934,2.573l0,0l-1.063,6.071
			c-0.1,0.573-0.149,1.125-0.149,1.649l0,0c0.004,1.963,0.67,3.542,1.892,4.657l0,0c1.225,1.115,3.041,1.782,5.412,1.782l0,0
			c2.061,0,3.65-0.435,4.971-1.157l0,0c1.318-0.724,2.376-1.747,3.33-2.968l0,0c0.085-0.104,0.168-0.211,0.248-0.316l0,0
			c0.025-0.159,0.127-0.294,0.27-0.363l0,0c0.076-0.107,0.146-0.208,0.205-0.297l0,0c0.047-0.07,0.086-0.134,0.117-0.187l0,0
			l-3.279-1.771c-0.229-0.129-0.434-0.229-0.524-0.267l0,0c-0.013,0.011-0.028,0.028-0.047,0.054l0,0
			c-1.294,2.188-2.91,3.112-4.388,3.111l0,0c-1.011,0.001-1.89-0.369-2.5-0.99l0,0c-0.612-0.619-0.953-1.478-0.951-2.408l0,0
			c0-0.229,0.02-0.464,0.061-0.698l0,0l0.102-0.581l0,0l0.095-0.547c0.041-0.234,0.138-0.481,0.348-0.66l0,0
			c0.211-0.178,0.475-0.233,0.708-0.232l0,0h11.609c0.017-0.001,0.035-0.004,0.057-0.004l0,0l0,0c0.025,0,0.045-0.002,0.057-0.005
			l0,0c0.006-0.016,0.014-0.041,0.02-0.077l0,0l0.692-3.964c0.068-0.391,0.103-0.788,0.103-1.186l0,0
			c0-1.726-0.641-3.455-1.855-4.745l0,0c-1.217-1.289-2.994-2.156-5.353-2.158l0,0c-0.006,0-0.011,0-0.017,0l0,0
			C38.403,12.875,34.926,15.547,33.282,18.559L33.282,18.559z M43.95,21.293h-0.072h-5.754c-0.233,0-0.469-0.061-0.658-0.217l0,0
			c-0.192-0.154-0.301-0.406-0.297-0.636l0,0c0-0.051,0.005-0.105,0.015-0.159l0,0c0.017-0.097,0.043-0.177,0.071-0.253l0,0
			c0.188-0.503,0.644-1.202,1.377-1.834l0,0c0.729-0.623,1.751-1.157,3.005-1.157l0,0c1.28-0.007,2.188,0.573,2.708,1.254l0,0
			c0.527,0.687,0.716,1.422,0.721,1.926l0,0c0,0.08-0.005,0.154-0.018,0.229l0,0l-0.483-0.082l0.483,0.088
			c-0.088,0.494-0.555,0.841-1.076,0.841l0,0c-0.007,0-0.014,0-0.014,0H43.95z M43.877,20.315h0.072
			c0.109-0.004,0.131-0.036,0.135-0.039l0,0c0.002-0.012,0.003-0.033,0.003-0.059l0,0c0.006-0.242-0.138-0.853-0.515-1.324l0,0
			c-0.381-0.479-0.942-0.87-1.937-0.877l0,0c-0.968,0-1.766,0.408-2.37,0.923l0,0c-0.568,0.478-0.95,1.069-1.074,1.376l0,0H43.877
			L43.877,20.315z"/>
	</g>
	<g>
		<path fill="#FFDD00" d="M64.2,23.74L71.229,13c0.151-0.307,0.229-0.462,0.189-0.668c-0.045-0.256-0.225-0.41-0.587-0.41h-5.757
			c-0.205,0-0.342,0.101-0.414,0.256l-3.604,5.457l-3.073-5.457c-0.02-0.038-0.041-0.075-0.068-0.107
			c-0.077-0.109-0.189-0.177-0.316-0.177H51.84c-0.361,0-0.543,0.153-0.588,0.411c-0.016,0.092,0.021,0.225,0.075,0.372
			c0.034,0.095,0.073,0.194,0.116,0.295l5.783,10.679l-7.005,10.741c-0.042,0.101-0.085,0.2-0.119,0.295
			c-0.052,0.146-0.087,0.278-0.072,0.37c0.047,0.261,0.226,0.414,0.587,0.414h5.758c0.155,0,0.292-0.103,0.365-0.258l3.615-5.457
			l5.891,11.431l0.095,0.207c0.006,0.008,0.009,0.016,0.012,0.021c0.079,0.145,0.211,0.236,0.406,0.236h6.3h0.002h45.189
			c0.171-0.002,0.322-0.083,0.408-0.269l0.588-2.58c0.074-0.377,0.088-0.554-0.127-0.702c-0.172-0.121-0.346-0.116-0.686-0.108
			H71.945c-0.122-0.008-0.22-0.055-0.292-0.125L64.2,23.74z"/>
		<path fill="#121413" d="M66.257,42.005c-0.149-0.09-0.261-0.221-0.335-0.358l0,0c-0.006-0.01-0.008-0.016-0.01-0.018l0,0
			c0-0.002,0-0.002,0-0.002l0,0l0,0l0,0v-0.001l-0.016-0.028L65.805,41.4l-5.502-10.679l-3.137,4.733
			c-0.139,0.274-0.425,0.505-0.791,0.506l0,0h-5.758c-0.246,0-0.494-0.052-0.703-0.205l0,0c-0.209-0.151-0.328-0.394-0.367-0.617
			l0,0c-0.008-0.049-0.01-0.091-0.01-0.124l0,0c0.004-0.205,0.057-0.344,0.105-0.495l0,0c0.041-0.111,0.086-0.217,0.127-0.313l0,0
			l0.042-0.081l6.847-10.497l-5.645-10.423l-0.018-0.036c-0.051-0.113-0.092-0.224-0.128-0.322l0,0
			c-0.05-0.144-0.104-0.283-0.108-0.491l0,0c0-0.044,0.003-0.089,0.011-0.133l0,0c0.034-0.22,0.156-0.463,0.367-0.614l0,0
			c0.209-0.152,0.456-0.204,0.702-0.203l0,0h5.758c0.302-0.001,0.561,0.165,0.707,0.371l0,0c0.045,0.058,0.08,0.115,0.109,0.172l0,0
			l2.674,4.75l3.147-4.763c0.068-0.134,0.175-0.262,0.315-0.353l0,0c0.153-0.102,0.342-0.15,0.523-0.148l0,0h5.757
			c0.249,0,0.495,0.051,0.702,0.204l0,0c0.211,0.151,0.332,0.394,0.365,0.604l0,0c0.012,0.062,0.02,0.127,0.018,0.194l0,0
			c0.002,0.158-0.039,0.302-0.085,0.423l0,0c-0.048,0.122-0.103,0.23-0.164,0.356l0,0l-0.03,0.052l-6.87,10.499l7.246,13.736h46.42
			c0.071-0.002,0.138-0.003,0.2-0.003l0,0c0.121,0,0.241,0.003,0.373,0.03l0,0c0.132,0.026,0.275,0.085,0.391,0.167l0,0
			c0.109,0.074,0.223,0.186,0.295,0.326l0,0c0.072,0.141,0.094,0.29,0.092,0.414l0,0c0,0.163-0.027,0.304-0.059,0.462l0,0
			l-0.003,0.013l-0.586,2.579l-0.034,0.097c-0.076,0.167-0.2,0.316-0.356,0.413l0,0c-0.155,0.097-0.331,0.138-0.495,0.14l0,0H73.061
			h-0.002h-6.3c-0.002,0-0.005,0-0.005,0l0,0C66.583,42.141,66.405,42.096,66.257,42.005L66.257,42.005z M66.784,41.184
			c0,0,0,0-0.002-0.002l0,0C66.782,41.182,66.782,41.182,66.784,41.184L66.784,41.184z M73.059,41.163h0.002h45.146l0.56-2.463
			c0.019-0.092,0.031-0.166,0.035-0.213l0,0c-0.023-0.004-0.078-0.009-0.169-0.009l0,0c-0.053,0-0.115,0.001-0.186,0.003l0,0h-0.014
			H71.945l-0.032-0.002c-0.225-0.012-0.449-0.108-0.604-0.264l0,0c-0.035-0.036-0.065-0.074-0.088-0.12l0,0l-7.454-14.128
			L64.2,23.74l0.41,0.268L64.2,23.74l-0.433,0.228c-0.083-0.157-0.074-0.347,0.024-0.495l0,0l7.012-10.714
			c0.055-0.113,0.096-0.198,0.115-0.25l0,0c0.022-0.059,0.021-0.069,0.021-0.071l0,0c0-0.001,0-0.003-0.002-0.016l0,0
			c-0.02-0.005-0.055-0.011-0.105-0.011l0,0h-5.743l-0.021,0.038l-3.604,5.456c-0.092,0.142-0.254,0.226-0.424,0.219l0,0
			c-0.17-0.006-0.326-0.1-0.41-0.248l0,0l-3.072-5.457l-0.016-0.028c0-0.003-0.002-0.005-0.002-0.006l0,0l-0.002-0.001H51.84
			c-0.041-0.001-0.072,0.003-0.094,0.007l0,0c0.008,0.029,0.021,0.07,0.041,0.12l0,0c0.029,0.082,0.061,0.164,0.095,0.244l0,0
			l5.774,10.664c0.085,0.157,0.076,0.35-0.02,0.5l0,0l-6.982,10.703c-0.035,0.087-0.068,0.164-0.09,0.228l0,0
			c-0.018,0.049-0.031,0.095-0.04,0.126l0,0c0.021,0.004,0.052,0.008,0.093,0.008l0,0h5.692l0.022-0.039l3.617-5.456
			c0.095-0.146,0.262-0.229,0.434-0.219l0,0c0.174,0.009,0.328,0.11,0.408,0.265l0,0l5.89,11.43l0.011,0.02l0.081,0.18H73.059
			L73.059,41.163z M70.932,12.399L70.932,12.399L70.932,12.399L70.932,12.399L70.932,12.399L70.932,12.399z M51.713,12.399
			L51.713,12.399L51.713,12.399L51.713,12.399z"/>
	</g>
	<g>
		<path fill="#E2231A" d="M92.934,35.295c0.32-0.011,0.489-0.156,0.545-0.486l2.246-12.824c0.055-0.315,0.148-0.618,0.273-0.905l0,0
			c0.648-1.486,2.163-2.521,3.85-2.521c1.027,0,1.391,0.44,1.686,0.44c0.011,0,0.018-0.004,0.027-0.007
			c0.238-0.013,0.497-0.203,0.555-0.533l0.866-4.941c0.037-0.245-0.072-0.44-0.308-0.491c-0.375-0.098-0.858-0.147-1.346-0.147
			c-1.567,0-3.392,0.932-3.977,1.47c-0.115,0.098-0.17,0.147-0.37,0.147c-0.194,0-0.354-0.194-0.302-0.488l0.117-0.688
			c0.074-0.392-0.068-0.441-0.41-0.441h-4.159c-0.342,0-0.517,0.147-0.576,0.49l-0.03,0.16l0,0l-3.72,21.279
			c-0.06,0.34,0.062,0.489,0.406,0.489h4.599C92.917,35.298,92.923,35.295,92.934,35.295L92.934,35.295z"/>
	</g>
	<g>
		<path fill="#E2231A" d="M87.84,12.419c-0.059-0.019-0.127-0.029-0.209-0.029h-3.232c-0.339,0-0.462-0.146-0.398-0.487l0.561-3.231
			c0.064-0.341-0.059-0.488-0.402-0.488h-1.693H81.09h-0.758c-0.342,0-0.518,0.147-0.578,0.488l-0.051,0.271l-0.006,0.014l0,0
			l-0.135,0.741l-0.41,2.205c-0.064,0.33-0.232,0.474-0.551,0.484c-0.01,0-0.02,0.003-0.027,0.003h-3.23
			c-0.344,0-0.514,0.149-0.579,0.489l-0.032,0.161l0,0l-0.74,4c-0.021,0.098-0.019,0.175-0.008,0.243l0,0
			c0.033,0.168,0.16,0.248,0.405,0.248h2.556c0.004,0,0.004,0,0.004,0c0.035,0,0.061,0.007,0.092,0.011l0,0
			c0.262,0.03,0.361,0.173,0.307,0.479l-1.504,8.614c-0.626,3.572,0.639,6.412,3.773,7.782c1.366,0.588,3.078,0.881,4.008,0.881
			c0.011,0,0.02-0.003,0.029-0.004v0.001c0.277-0.012,0.488-0.158,0.545-0.486l0.736-4.209c0.049-0.295-0.061-0.491-0.354-0.491
			c-2.513-0.193-3.47-1.711-3.163-3.474l1.414-8.07l0.094-0.544c0.061-0.343,0.234-0.489,0.578-0.489h3.227
			c0.012,0,0.018-0.004,0.035-0.004c0.313-0.01,0.484-0.155,0.541-0.484c0,0,0.728-4.171,0.729-4.174
			C88.122,12.416,87.84,12.419,87.84,12.419z"/>
	</g>
	<g>
		<path fill="#E2231A" d="M44.566,19.881c-0.045,0.241-0.274,0.438-0.616,0.438h-0.072h-5.753c-0.343,0-0.503-0.197-0.46-0.438
			c0.008-0.049,0.025-0.104,0.049-0.17c0.285-0.784,1.701-2.668,3.923-2.668C44.083,17.043,44.668,19.292,44.566,19.881
			 M36.536,26.053l0.094-0.544c0.062-0.343,0.234-0.489,0.574-0.489h11.648c0.014,0,0.021-0.004,0.033-0.004l0,0
			c0.318-0.011,0.484-0.151,0.542-0.486l0.694-3.965c0.709-4.061-2.059-8.662-7.588-8.662c-4.34,0-7.955,2.786-9.68,5.938l0,0
			c-0.493,0.896-0.83,1.824-0.986,2.725l-1.064,6.07c-0.888,5.089,2.061,8.663,7.637,8.663c4.258,0,6.729-1.812,8.684-4.308
			c0.123-0.152,0.238-0.307,0.352-0.455c0.001-0.031,0.001-0.063-0.003-0.091c0.004,0.028,0.004,0.06,0.003,0.091
			c0.345-0.462,0.613-0.865,0.641-1.015c0.026-0.146-0.047-0.291-0.227-0.39l-3.354-1.811c-0.358-0.195-0.627-0.341-0.773-0.341
			c-0.145,0-0.309,0.096-0.441,0.289c-1.249,2.105-2.711,2.89-3.979,2.89c-2.008,0-3.241-1.615-2.908-3.523L36.536,26.053z"/>
	</g>
	<g>
		<path fill="#FFDD00" d="M64.2,23.256l7.029-10.739c0.151-0.307,0.229-0.462,0.189-0.668c-0.045-0.257-0.225-0.411-0.587-0.411
			h-5.757c-0.205,0-0.342,0.102-0.414,0.257l-3.604,5.457l-3.073-5.457c-0.02-0.039-0.041-0.075-0.068-0.107
			c-0.077-0.109-0.189-0.178-0.316-0.178H51.84c-0.361,0-0.543,0.153-0.588,0.412c-0.016,0.093,0.021,0.226,0.075,0.371
			c0.034,0.095,0.073,0.196,0.116,0.296l5.783,10.68l-7.005,10.739c-0.042,0.102-0.085,0.201-0.119,0.295
			c-0.052,0.147-0.087,0.28-0.072,0.371c0.047,0.26,0.226,0.415,0.587,0.415h5.758c0.155,0,0.292-0.104,0.365-0.259l3.615-5.457
			l5.891,11.431l0.095,0.207c0.006,0.009,0.009,0.016,0.012,0.022c0.079,0.143,0.211,0.235,0.406,0.235h6.3h0.002h45.189
			c0.171-0.002,0.322-0.082,0.408-0.269l0.588-2.579c0.069-0.38,0.088-0.556-0.127-0.704c-0.172-0.12-0.346-0.114-0.686-0.108
			H71.945c-0.122-0.008-0.22-0.053-0.292-0.124L64.2,23.256z"/>
	</g>
	<path fill="#E2231A" d="M148.305,27.78l0.579,0.006c-7.228,0-13.618,3.581-17.497,9.065c-0.191,0.302-1.247,1.877-1.416,1.978
		c-3.926,4.874-9.941,7.995-16.688,7.995H40.542c-6.81,0-12.877-3.18-16.8-8.135c-0.149-0.091-1.047-1.441-1.116-1.547
		c-3.856-5.648-10.344-9.356-17.698-9.356L4.799,27.78H1.69c0,0-0.107,1.416,0,11.91c0.107,10.493,10.233,9.513,10.233,9.513
		l128.315-0.124c0,0,11.788,0.124,11.789-9.389c0-6.996,0-11.91,0-11.91H148.305z"/>
	<path fill="#001689" d="M140.604,1.63C106.61,1.767,21.592,1.774,12.292,1.608C0.509,1.397,1.69,10.602,1.69,10.602v12.424h3.109
		h0.129c7.371,0,13.871-3.727,17.725-9.396c0.066-0.1,1.057-1.593,1.252-1.71c3.928-4.838,9.921-7.932,16.638-7.932h72.741
		c6.732,0,12.738,3.108,16.664,7.966c0.17,0.095,1.248,1.702,1.449,2.022c3.877,5.471,10.255,9.043,17.469,9.05h3.162V11.707
		C152.028,11.707,152.756,1.582,140.604,1.63z"/>
	<g>
		<path fill="#E2231A" d="M115.364,29.055c-0.779,0.906-1.994,1.587-3.117,1.587h-1.857c-0.784,0-1.209-0.638-1.072-1.419
			l0.127-0.729v-0.004c0.131-0.737,0.828-1.371,1.559-1.371h5.19l-0.137,0.782C115.915,28.302,115.676,28.696,115.364,29.055z
			 M119.793,35.78c0.322-0.01,0.49-0.156,0.548-0.486l2.415-13.805c0.892-5.089-2.066-8.615-7.641-8.615
			c-3.771,0-6.213,1.372-8.191,3.721c-0.613,0.732-1.316,1.702-1.368,1.954c0,0.001,0,0.001,0,0.005
			c-0.027,0.146,0.052,0.244,0.232,0.342l3.377,1.96c0.175,0.096,0.349,0.243,0.544,0.243c0.148,0,0.309-0.098,0.445-0.295
			c1.531-2.054,2.884-2.79,4.061-2.79c2.007,0,3.32,1.421,2.984,3.329l-0.102,0.588c-0.049,0.284-0.219,0.473-0.545,0.485
			c-0.01,0-0.018,0.003-0.03,0.003h-4.696c-3.061,0-5.285,1.602-6.674,4.256c-0.369,0.7-0.641,1.469-0.783,2.304l-0.045,0.245
			c-0.687,3.916,1.296,6.558,5.167,6.558h1.858c0.929,0,1.961-0.292,3.136-0.878c0.168-0.102,0.323-0.147,0.47-0.147
			c0.242,0,0.299,0.243,0.229,0.634c-0.049,0.293,0.078,0.392,0.424,0.392h4.158C119.778,35.781,119.784,35.78,119.793,35.78z"/>
		<path fill="#121413" d="M119.766,36.271h-4.158c-0.143-0.002-0.279-0.011-0.433-0.063l0,0c-0.15-0.048-0.333-0.181-0.417-0.366
			l0,0c-0.057-0.119-0.073-0.238-0.073-0.343l0,0c0-0.054,0.004-0.104,0.011-0.155l0,0c-1.214,0.605-2.314,0.926-3.346,0.928l0,0
			h-1.858c-1.775,0.001-3.241-0.533-4.253-1.524l0,0c-1.015-0.988-1.541-2.406-1.538-4.051l0,0c0-0.497,0.048-1.018,0.144-1.559l0,0
			l0.043-0.242c0.152-0.887,0.439-1.706,0.834-2.447l0,0c0.724-1.385,1.68-2.521,2.873-3.306l0,0
			c1.192-0.785,2.617-1.213,4.232-1.212l0,0h4.664c0.012-0.002,0.026-0.003,0.043-0.004l0,0l0,0c0.038-0.001,0.057-0.006,0.063-0.01
			l0,0c0-0.001,0.001-0.002,0.002-0.005l0,0c0.004-0.01,0.012-0.03,0.018-0.064l0,0l0.104-0.588c0.029-0.175,0.044-0.342,0.044-0.5
			l0,0c-0.003-0.679-0.252-1.218-0.686-1.613l0,0c-0.433-0.395-1.067-0.643-1.862-0.644l0,0c-0.484,0.001-1.018,0.147-1.631,0.546
			l0,0c-0.611,0.397-1.293,1.05-2.031,2.04l0,0c-0.191,0.275-0.479,0.494-0.844,0.498l0,0c-0.225-0.001-0.394-0.081-0.514-0.145l0,0
			c-0.121-0.067-0.209-0.13-0.265-0.158l0,0l-0.011-0.005l-3.371-1.957c-0.105-0.059-0.212-0.127-0.311-0.242l0,0
			c-0.104-0.114-0.182-0.302-0.178-0.474l0,0c0-0.053,0.006-0.102,0.014-0.146l0,0l0,0l0.001-0.008
			c0.048-0.198,0.117-0.302,0.21-0.464l0,0c0.092-0.155,0.209-0.331,0.345-0.521l0,0c0.269-0.378,0.604-0.811,0.921-1.188l0,0
			c2.035-2.437,4.674-3.906,8.564-3.894l0,0c2.547-0.001,4.625,0.713,6.07,2.014l0,0c1.445,1.3,2.219,3.176,2.215,5.355l0,0
			c0,0.584-0.054,1.192-0.164,1.819l0,0l-2.414,13.804c-0.039,0.229-0.132,0.469-0.332,0.646l0,0
			c-0.197,0.174-0.443,0.237-0.666,0.244l0,0c-0.014,0.002-0.033,0.004-0.055,0.004l0,0H119.766L119.766,36.271z M119.798,35.901
			l-0.005-0.121l0.003,0.105L119.798,35.901L119.798,35.901z M119.747,35.292c0.008,0,0.02-0.002,0.031-0.002l0,0l0,0
			c0.028-0.001,0.049-0.003,0.063-0.007l0,0c0.006-0.014,0.014-0.039,0.02-0.074l0,0l2.414-13.804
			c0.102-0.576,0.149-1.127,0.149-1.651l0,0c-0.003-1.957-0.671-3.522-1.892-4.629l0,0c-1.228-1.104-3.047-1.762-5.416-1.762l0,0
			c-3.652,0.013-5.896,1.283-7.816,3.545l0,0c-0.279,0.332-0.582,0.721-0.824,1.058l0,0c-0.152,0.21-0.285,0.414-0.365,0.55l0,0
			l3.293,1.91c0.14,0.079,0.239,0.147,0.289,0.172l0,0c0.016-0.015,0.037-0.038,0.061-0.072l0,0l0.01-0.015
			c0.791-1.06,1.547-1.8,2.289-2.282l0,0c0.738-0.483,1.473-0.705,2.164-0.704l0,0c1-0.001,1.885,0.319,2.521,0.897l0,0
			c0.638,0.574,1.009,1.407,1.006,2.337l0,0c0,0.219-0.02,0.441-0.06,0.667l0,0l-0.102,0.586c-0.035,0.217-0.13,0.444-0.315,0.619
			l0,0c-0.179,0.17-0.424,0.259-0.666,0.271l0,0c-0.021,0.003-0.048,0.005-0.076,0.005l0,0h-4.696
			c-1.445,0.002-2.664,0.374-3.695,1.053l0,0c-1.031,0.678-1.881,1.673-2.547,2.943l0,0c-0.346,0.655-0.6,1.374-0.734,2.16l0,0
			l-0.044,0.243c-0.085,0.489-0.128,0.953-0.128,1.389l0,0c0.004,1.445,0.447,2.572,1.244,3.353l0,0
			c0.797,0.779,1.982,1.242,3.569,1.244l0,0h1.858c0.82,0.001,1.777-0.261,2.903-0.821l0,0c0.218-0.127,0.456-0.205,0.702-0.205l0,0
			c0.205-0.011,0.477,0.111,0.6,0.309l0,0c0.125,0.191,0.145,0.374,0.146,0.54l0,0c0,0.06-0.003,0.118-0.009,0.178l0,0H119.747
			L119.747,35.292z M109.224,30.649c-0.284-0.305-0.422-0.717-0.422-1.14l0,0c0-0.122,0.011-0.246,0.033-0.369l0,0l0.126-0.729
			v-0.007c0.089-0.493,0.354-0.924,0.712-1.242l0,0c0.358-0.317,0.819-0.531,1.329-0.532l0,0h5.19c0.145,0,0.281,0.063,0.374,0.174
			l0,0c0.093,0.11,0.133,0.256,0.108,0.399l0,0l-0.138,0.782l-0.021,0.079c-0.166,0.468-0.438,0.911-0.783,1.311l0,0l0,0
			c-0.867,0.997-2.166,1.745-3.487,1.756l0,0h-1.857c-0.005,0-0.01,0-0.013,0l0,0C109.922,31.131,109.504,30.956,109.224,30.649
			L109.224,30.649z M109.926,28.578l-0.128,0.732c-0.013,0.068-0.019,0.135-0.019,0.199l0,0c0.002,0.219,0.069,0.375,0.161,0.475
			l0,0c0.095,0.098,0.22,0.166,0.448,0.169l0,0h1.857c0.926,0.01,2.055-0.602,2.746-1.416l0,0l0.371,0.318l-0.369-0.319
			c0.268-0.31,0.467-0.64,0.588-0.962l0,0l0.028-0.165h-4.608c-0.221-0.002-0.474,0.102-0.68,0.285l0,0
			c-0.205,0.181-0.354,0.434-0.396,0.676l0,0L109.926,28.578L109.926,28.578z"/>
	</g>
	<g>
		<path fill="#E2231A" d="M115.364,28.573c-0.779,0.906-1.994,1.586-3.117,1.586h-1.857c-0.784,0-1.209-0.638-1.072-1.419
			l0.127-0.729v-0.003c0.131-0.738,0.828-1.372,1.559-1.372h5.19l-0.137,0.781C115.915,27.819,115.676,28.211,115.364,28.573z
			 M119.793,35.295c0.322-0.011,0.49-0.155,0.548-0.486l2.415-13.803c0.892-5.09-2.066-8.616-7.641-8.616
			c-3.771,0-6.213,1.371-8.191,3.721c-0.613,0.731-1.316,1.7-1.368,1.954c0,0.001,0,0.001,0,0.004
			c-0.027,0.146,0.052,0.244,0.232,0.343l3.377,1.96c0.175,0.096,0.349,0.242,0.544,0.242c0.148,0,0.309-0.096,0.445-0.294
			c1.531-2.054,2.884-2.789,4.061-2.789c2.007,0,3.32,1.42,2.984,3.329l-0.102,0.587c-0.049,0.283-0.219,0.474-0.545,0.485
			c-0.01,0-0.018,0.004-0.03,0.004h-4.696c-3.061,0-5.871,1.6-7.26,4.255c-0.371,0.699-0.642,1.468-0.785,2.304l-0.043,0.245
			c-0.688,3.915,1.882,6.559,5.753,6.559h1.858c0.929,0,1.961-0.293,3.136-0.881c0.168-0.099,0.323-0.146,0.47-0.146
			c0.242,0,0.299,0.243,0.229,0.634c-0.049,0.294,0.078,0.393,0.424,0.393h4.158C119.778,35.298,119.784,35.295,119.793,35.295z"/>
	</g>
	<g>
		<g>
			<path fill="#001689" d="M123.856,33.354c0.86,0,1.528,0.669,1.528,1.501c0,0.852-0.668,1.511-1.538,1.511
				c-0.859,0-1.547-0.659-1.547-1.511c0-0.832,0.688-1.501,1.547-1.501H123.856z M123.838,33.657c-0.66,0-1.154,0.54-1.154,1.198
				c0,0.668,0.494,1.199,1.172,1.199c0.658,0.009,1.145-0.531,1.145-1.199c0-0.658-0.486-1.198-1.154-1.198H123.838z
				 M123.609,35.633h-0.348v-1.491c0.138-0.028,0.329-0.056,0.577-0.056c0.283,0,0.411,0.046,0.521,0.119
				c0.083,0.064,0.147,0.183,0.147,0.32c0,0.174-0.129,0.302-0.313,0.357v0.018c0.146,0.046,0.229,0.165,0.275,0.366
				c0.045,0.229,0.072,0.32,0.109,0.366h-0.375c-0.045-0.055-0.073-0.183-0.119-0.357c-0.027-0.164-0.119-0.237-0.311-0.237h-0.165
				V35.633z M123.618,34.792h0.165c0.192,0,0.348-0.064,0.348-0.22c0-0.138-0.101-0.229-0.32-0.229
				c-0.092,0-0.155,0.009-0.192,0.018V34.792z"/>
		</g>
	</g>
	<g>
		<path fill="#001689" d="M128.283,60.09c0.86,0,1.528,0.668,1.528,1.5c0,0.852-0.668,1.511-1.537,1.511
			c-0.861,0-1.547-0.659-1.547-1.511c0-0.832,0.686-1.5,1.547-1.5H128.283z M128.264,60.392c-0.658,0-1.152,0.54-1.152,1.198
			c0,0.668,0.494,1.199,1.171,1.199c0.659,0.01,1.144-0.531,1.144-1.199c0-0.658-0.484-1.198-1.152-1.198H128.264z M128.036,62.369
			h-0.348v-1.491c0.137-0.027,0.33-0.055,0.576-0.055c0.284,0,0.412,0.045,0.521,0.119c0.082,0.063,0.146,0.183,0.146,0.319
			c0,0.175-0.128,0.302-0.311,0.357v0.019c0.146,0.046,0.229,0.164,0.274,0.365c0.046,0.229,0.073,0.32,0.109,0.366h-0.374
			c-0.047-0.054-0.074-0.183-0.12-0.356c-0.027-0.164-0.118-0.238-0.312-0.238h-0.164V62.369z M128.045,61.527h0.164
			c0.191,0,0.348-0.063,0.348-0.22c0-0.137-0.101-0.229-0.32-0.229c-0.092,0-0.155,0.01-0.191,0.018V61.527z"/>
	</g>
	<path fill="#001689" d="M34.735,63.934c-0.084,1.007-0.461,1.796-1.133,2.366c-0.688,0.554-1.594,0.831-2.719,0.831
		c-1.309,0-2.307-0.395-2.994-1.184c-0.688-0.755-1.032-1.87-1.032-3.348c0-1.51,0.353-2.643,1.058-3.397
		c0.721-0.788,1.762-1.183,3.121-1.183c1.107,0,1.988,0.276,2.643,0.83c0.62,0.537,0.973,1.293,1.057,2.266h-1.082
		c-0.402,0-0.688-0.176-0.855-0.529c-0.118-0.217-0.261-0.41-0.428-0.578c-0.336-0.252-0.781-0.378-1.334-0.378
		c-0.772,0-1.369,0.252-1.787,0.755c-0.403,0.504-0.604,1.242-0.604,2.215c0,0.94,0.201,1.662,0.604,2.165
		c0.385,0.521,0.964,0.78,1.736,0.78c0.537,0,0.981-0.135,1.334-0.402c0.318-0.252,0.545-0.654,0.68-1.209H34.735z"/>
	<path fill="#001689" d="M35.943,66.326c-0.353-0.302-0.604-0.709-0.755-1.221s-0.227-1.045-0.227-1.599
		c0-0.453,0.063-0.906,0.189-1.359c0.125-0.452,0.322-0.83,0.592-1.132c0.436-0.504,0.998-0.802,1.686-0.894
		s1.309-0.038,1.862,0.163c0.638,0.252,1.107,0.688,1.409,1.31c0.285,0.553,0.428,1.199,0.428,1.938
		c0,0.537-0.059,0.998-0.176,1.385c-0.117,0.386-0.269,0.713-0.453,0.981c-0.402,0.554-0.914,0.897-1.535,1.032
		c-0.553,0.15-1.111,0.163-1.674,0.037S36.278,66.627,35.943,66.326z M37.151,61.896c-0.352,0.386-0.512,0.96-0.479,1.724
		c0.034,0.764,0.177,1.297,0.428,1.599c0.102,0.134,0.277,0.247,0.529,0.34s0.508,0.101,0.768,0.024
		c0.26-0.075,0.49-0.264,0.692-0.565c0.201-0.303,0.311-0.789,0.327-1.46c0-0.604-0.097-1.058-0.289-1.359
		c-0.193-0.302-0.416-0.495-0.668-0.579c-0.251-0.083-0.502-0.088-0.754-0.013C37.454,61.682,37.268,61.779,37.151,61.896z"/>
	<path fill="#001689" d="M47.245,66.93h-0.881c-0.252,0-0.458-0.08-0.617-0.239c-0.16-0.159-0.239-0.365-0.239-0.617v-3.423
		c0-0.402-0.122-0.696-0.364-0.881c-0.244-0.185-0.517-0.277-0.818-0.277c-0.303,0-0.57,0.093-0.806,0.277s-0.353,0.479-0.353,0.881
		v4.279h-1.762v-3.927c0-1.142,0.298-1.904,0.894-2.29c0.595-0.387,1.255-0.596,1.976-0.63c0.738,0,1.418,0.193,2.039,0.579
		s0.932,1.166,0.932,2.341V66.93z"/>
	<path fill="#001689" d="M50.491,66.93c-0.554,0.033-1.154,0.024-1.799-0.025c-0.646-0.051-0.97-0.462-0.97-1.233v-7.399h0.906
		c0.218,0,0.411,0.084,0.579,0.251c0.168,0.168,0.252,0.369,0.252,0.604v1.133h1.031v0.352c0,0.252-0.084,0.458-0.252,0.617
		s-0.369,0.238-0.604,0.238h-0.176v3.726c0,0.286,0.167,0.428,0.503,0.428h0.528V66.93z"/>
	<path fill="#001689" d="M50.793,58.272H51.7c0.234,0,0.436,0.084,0.604,0.251c0.168,0.168,0.252,0.369,0.252,0.604v0.528h-1.762
		V58.272z M50.793,60.235H51.7c0.234,0,0.436,0.084,0.604,0.252c0.168,0.167,0.252,0.369,0.252,0.604v5.84h-1.762V60.235z"/>
	<path fill="#001689" d="M57.06,66.527v-0.428c-0.302,0.47-0.709,0.764-1.221,0.881s-1.019,0.075-1.522-0.126
		s-0.936-0.574-1.297-1.12c-0.361-0.545-0.541-1.263-0.541-2.151c0-1.041,0.239-1.884,0.718-2.53
		c0.478-0.646,1.245-0.969,2.303-0.969c0.806,0,1.552,0.218,2.241,0.654c0.688,0.437,1.031,1.242,1.031,2.416v3.55
		c0,1.174-0.344,1.976-1.031,2.403c-0.689,0.428-1.436,0.642-2.241,0.642c-1.544,0-2.5-0.722-2.869-2.164h1.837
		c0.135,0.234,0.34,0.415,0.617,0.541c0.277,0.125,0.554,0.159,0.83,0.101c0.277-0.06,0.529-0.223,0.756-0.491
		S57.026,67.064,57.06,66.527z M54.191,63.632c0,1.158,0.335,1.8,1.007,1.926s1.166-0.029,1.484-0.466
		c0.152-0.185,0.261-0.474,0.328-0.868c0.066-0.395,0.07-0.784,0.012-1.171c-0.059-0.386-0.197-0.729-0.415-1.031
		c-0.218-0.303-0.537-0.453-0.956-0.453c-0.57,0-0.957,0.21-1.158,0.629C54.292,62.618,54.191,63.095,54.191,63.632z"/>
	<path fill="#001689" d="M59.905,66.326c-0.354-0.302-0.604-0.709-0.756-1.221c-0.15-0.512-0.227-1.045-0.227-1.599
		c0-0.453,0.063-0.906,0.189-1.359c0.125-0.452,0.322-0.83,0.592-1.132c0.436-0.504,0.998-0.802,1.686-0.894
		s1.309-0.038,1.863,0.163c0.637,0.252,1.107,0.688,1.408,1.31c0.285,0.553,0.429,1.199,0.429,1.938c0,0.537-0.06,0.998-0.177,1.385
		c-0.117,0.386-0.268,0.713-0.453,0.981c-0.402,0.554-0.914,0.897-1.535,1.032c-0.553,0.15-1.111,0.163-1.674,0.037
		S60.241,66.627,59.905,66.326z M61.112,61.896c-0.352,0.386-0.512,0.96-0.478,1.724c0.033,0.764,0.177,1.297,0.428,1.599
		c0.101,0.134,0.276,0.247,0.528,0.34s0.508,0.101,0.768,0.024c0.26-0.075,0.491-0.264,0.692-0.565
		c0.202-0.303,0.311-0.789,0.327-1.46c0-0.604-0.097-1.058-0.289-1.359c-0.193-0.302-0.416-0.495-0.667-0.579
		c-0.252-0.083-0.503-0.088-0.755-0.013C61.415,61.682,61.23,61.779,61.112,61.896z"/>
	<path fill="#001689" d="M72.69,58.247h0.855c0.235,0,0.438,0.088,0.604,0.264c0.168,0.177,0.252,0.374,0.252,0.592v4.908
		c0,1.191-0.345,1.997-1.032,2.416c-0.688,0.42-1.434,0.629-2.24,0.629c-0.436,0-0.863-0.071-1.283-0.214
		c-0.419-0.143-0.755-0.373-1.007-0.692c-0.487-0.62-0.729-1.468-0.729-2.541c0-1.058,0.242-1.905,0.729-2.543
		c0.503-0.654,1.149-0.981,1.938-0.981c0.419,0,0.788,0.084,1.107,0.252c0.335,0.201,0.604,0.462,0.805,0.78V58.247z M69.821,63.532
		c0,0.672,0.126,1.183,0.379,1.535c0.25,0.353,0.611,0.529,1.081,0.529c0.453,0,0.806-0.177,1.058-0.529
		c0.234-0.353,0.352-0.863,0.352-1.535c0-0.604-0.125-1.082-0.377-1.435c-0.269-0.335-0.629-0.503-1.082-0.503
		c-0.438,0-0.781,0.176-1.031,0.528C69.947,62.458,69.821,62.928,69.821,63.532z"/>
	<path fill="#001689" d="M74.855,60.235h0.906c0.234,0,0.437,0.084,0.604,0.252c0.167,0.167,0.251,0.369,0.251,0.604v5.84h-1.762
		V60.235z M77.523,58.07l-1.536,1.561h-0.805l0.68-1.283c0.033-0.051,0.092-0.109,0.176-0.177c0.084-0.066,0.201-0.101,0.353-0.101
		H77.523z"/>
	<path fill="#001689" d="M81.273,66.653c-0.353,0.185-0.726,0.298-1.12,0.34s-0.742,0.063-1.045,0.063
		c-0.604,0-1.132-0.163-1.585-0.49s-0.68-0.869-0.68-1.624c0-0.704,0.206-1.208,0.616-1.51c0.412-0.302,0.936-0.503,1.574-0.604
		c0.083,0,0.184-0.012,0.301-0.037s0.252-0.046,0.403-0.063c0.738-0.101,1.107-0.318,1.107-0.654c0-0.251-0.13-0.415-0.39-0.491
		c-0.261-0.075-0.5-0.113-0.718-0.113c-0.235,0-0.444,0.034-0.63,0.102c-0.184,0.066-0.318,0.193-0.402,0.377H77.02
		c0.066-0.52,0.302-0.947,0.704-1.283c0.453-0.386,1.099-0.579,1.938-0.579c0.939,0,1.645,0.159,2.113,0.479
		c0.486,0.335,0.73,0.806,0.73,1.409v2.291c0,0.671-0.122,1.195-0.365,1.572C81.898,66.212,81.609,66.485,81.273,66.653z
		 M80.871,63.557c-0.235,0.117-0.563,0.227-0.981,0.327L79.31,64.01c-0.302,0.084-0.521,0.193-0.655,0.327
		c-0.117,0.185-0.176,0.369-0.176,0.554c0,0.252,0.076,0.453,0.227,0.604c0.151,0.135,0.369,0.201,0.654,0.201
		c0.47,0,0.84-0.134,1.107-0.402c0.269-0.268,0.403-0.638,0.403-1.107V63.557z"/>
	<path fill="#001689" d="M86.609,69.295v-1.385h0.479c0.335,0,0.6-0.079,0.792-0.238c0.193-0.16,0.23-0.416,0.114-0.768l-2.341-6.67
		h1.938l1.359,4.731l1.184-4.128c0.1-0.402,0.369-0.604,0.805-0.604h1.209l-2.568,7.626c-0.201,0.554-0.453,0.948-0.754,1.183
		c-0.303,0.201-0.798,0.303-1.486,0.303c-0.049,0-0.109,0-0.176,0s-0.125,0-0.176,0c-0.051-0.018-0.113-0.029-0.189-0.038
		C86.722,69.299,86.659,69.295,86.609,69.295z"/>
	<path fill="#001689" d="M101.182,66.93h-0.881c-0.252,0-0.457-0.08-0.617-0.239c-0.159-0.159-0.238-0.365-0.238-0.617v-3.423
		c0-0.402-0.121-0.696-0.365-0.881s-0.516-0.277-0.818-0.277c-0.302,0-0.57,0.093-0.805,0.277c-0.236,0.185-0.353,0.479-0.353,0.881
		v4.279h-1.763v-3.927c0-1.142,0.299-1.904,0.895-2.29c0.595-0.387,1.254-0.596,1.975-0.63c0.738,0,1.418,0.193,2.039,0.579
		s0.932,1.166,0.932,2.341V66.93z"/>
	<path fill="#001689" d="M102.29,66.326c-0.353-0.302-0.604-0.709-0.755-1.221s-0.227-1.045-0.227-1.599
		c0-0.453,0.063-0.906,0.188-1.359c0.127-0.452,0.323-0.83,0.592-1.132c0.436-0.504,0.998-0.802,1.686-0.894
		c0.688-0.092,1.31-0.038,1.863,0.163c0.638,0.252,1.107,0.688,1.409,1.31c0.285,0.553,0.429,1.199,0.429,1.938
		c0,0.537-0.06,0.998-0.177,1.385c-0.117,0.386-0.269,0.713-0.453,0.981c-0.403,0.554-0.915,0.897-1.535,1.032
		c-0.554,0.15-1.112,0.163-1.674,0.037S102.625,66.627,102.29,66.326z M103.498,61.896c-0.353,0.386-0.512,0.96-0.478,1.724
		c0.033,0.764,0.176,1.297,0.428,1.599c0.101,0.134,0.276,0.247,0.528,0.34s0.507,0.101,0.768,0.024
		c0.26-0.075,0.491-0.264,0.692-0.565c0.201-0.303,0.311-0.789,0.326-1.46c0-0.604-0.096-1.058-0.289-1.359
		s-0.415-0.495-0.666-0.579c-0.252-0.083-0.504-0.088-0.756-0.013C103.799,61.682,103.616,61.779,103.498,61.896z"/>
	<path fill="#001689" d="M112.409,64.866h1.258c-0.186,0.705-0.537,1.242-1.058,1.611c-0.521,0.386-1.175,0.578-1.963,0.578
		c-0.956,0-1.704-0.311-2.239-0.931c-0.538-0.604-0.807-1.469-0.807-2.593c0-1.074,0.26-1.913,0.78-2.517
		c0.537-0.621,1.284-0.932,2.241-0.932c1.006,0,1.787,0.302,2.34,0.906c0.302,0.369,0.52,0.797,0.654,1.284h-1.762
		c-0.084-0.168-0.168-0.294-0.252-0.378c-0.219-0.235-0.527-0.353-0.932-0.353c-0.369,0-0.67,0.117-0.906,0.353
		c-0.301,0.336-0.452,0.89-0.452,1.661s0.151,1.317,0.452,1.636c0.219,0.269,0.546,0.403,0.982,0.403
		c0.285,0,0.528-0.059,0.73-0.177c0.05-0.017,0.096-0.046,0.139-0.088c0.041-0.042,0.088-0.088,0.138-0.139
		c0.034-0.05,0.101-0.117,0.202-0.201C112.055,64.908,112.207,64.866,112.409,64.866z"/>
	<path fill="#001689" d="M118.147,62.123c-0.252-0.353-0.597-0.528-1.033-0.528c-0.469,0-0.83,0.168-1.082,0.503
		c-0.252,0.336-0.377,0.797-0.377,1.384v3.449h-1.712v-8.658h0.856c0.234,0,0.436,0.084,0.604,0.251
		c0.168,0.168,0.252,0.369,0.252,0.604v1.988c0.302-0.504,0.729-0.822,1.283-0.957c0.554-0.134,1.082-0.101,1.586,0.102
		c0.47,0.201,0.863,0.52,1.184,0.956c0.318,0.437,0.478,1.04,0.478,1.812v3.902h-1.687v-3.474c0-0.252-0.021-0.482-0.063-0.692
		C118.393,62.554,118.297,62.34,118.147,62.123z"/>
	<path fill="#001689" d="M125.143,64.866h1.259c-0.185,0.705-0.536,1.242-1.058,1.611c-0.52,0.386-1.174,0.578-1.963,0.578
		c-0.956,0-1.703-0.311-2.24-0.931c-0.537-0.604-0.805-1.469-0.805-2.593c0-1.074,0.26-1.913,0.779-2.517
		c0.537-0.621,1.284-0.932,2.24-0.932c1.008,0,1.787,0.302,2.342,0.906c0.536,0.621,0.805,1.485,0.805,2.593
		c0,0.066,0,0.125,0,0.176s0,0.084,0,0.101c0,0.084-0.008,0.143-0.025,0.177h-4.354c0.017,0.52,0.143,0.905,0.377,1.157
		c0.218,0.269,0.545,0.403,0.982,0.403c0.285,0,0.527-0.059,0.729-0.177c0.051-0.017,0.098-0.046,0.139-0.088
		c0.042-0.042,0.089-0.088,0.139-0.139c0.017-0.05,0.08-0.117,0.189-0.201C124.787,64.908,124.942,64.866,125.143,64.866z
		 M122.124,62.903h2.566c-0.033-0.453-0.15-0.789-0.352-1.007c-0.219-0.235-0.529-0.353-0.932-0.353
		c-0.369,0-0.672,0.117-0.906,0.353S122.14,62.466,122.124,62.903z"/>
</g>
</svg>
