<?xml version="1.0" encoding="utf-8"?>
<!-- Generator: Adobe Illustrator 16.0.0, SVG Export Plug-In . SVG Version: 6.00 Build 0)  -->
<!DOCTYPE svg PUBLIC "-//W3C//DTD SVG 1.1//EN" "http://www.w3.org/Graphics/SVG/1.1/DTD/svg11.dtd">
<svg version="1.1" id="Layer_1" xmlns="http://www.w3.org/2000/svg" xmlns:xlink="http://www.w3.org/1999/xlink" x="0px" y="0px"
	 width="143.4px" height="28.167px" viewBox="0 0 143.4 28.167" enable-background="new 0 0 143.4 28.167" xml:space="preserve">
<g>
	<g>
		<path fill="#20140F" d="M19.16,13.636V5.714c0-1.03-0.535-2.169-3.129-2.169V2.87h9.875v0.675c-2.593,0-3.125,1.139-3.125,2.169
			v17.833c0,1.029,0.532,2.167,3.125,2.167v0.675h-9.875v-0.675c2.594,0,3.129-1.138,3.129-2.167v-8.456H8.394v8.456
			c0,1.029,0.531,2.167,3.126,2.167v0.675H1.644v-0.675c2.594,0,3.126-1.138,3.126-2.167V5.714c0-1.03-0.532-2.169-3.126-2.169V2.87
			h9.876v0.675c-2.595,0-3.126,1.139-3.126,2.169v7.922H19.16"/>
		<path fill="#20140F" d="M26.74,19.249h0.816c1.103,3.304,3.589,6.29,7.354,6.29c2.878,0,4.83-2.488,4.015-5.26
			c-1.459-4.974-11.154-5.188-11.154-11.972c0-3.519,2.805-5.935,6.287-5.935c3.766,0,5.47,2.629,6.323,0h0.745l0.781,7.569h-0.887
			c-0.817-3.305-3.163-6.111-6.467-6.111c-2.131,0-3.729,1.171-3.729,3.412c0,2.059,2.236,3.515,3.764,4.438
			c4.832,2.915,8.1,4.442,8.1,8.704c0,3.198-2.665,6.501-7.493,6.501c-3.694,0-6.254-2.59-6.61,0h-0.781L26.74,19.249"/>
		<path fill="#20140F" d="M54.433,13.388c3.588,0,5.684-1.529,5.684-4.404c0-2.703-1.704-4.159-4.191-4.619
			c-3.27-0.215-4.406-0.284-4.406,0.958v8.065H54.433 M51.519,23.191c0,1.245,0.32,1.884,2.914,1.884
			c3.695,0,6.431-1.102,6.431-5.258c0-4.228-4.229-5.011-7.567-5.011h-1.777V23.191z M47.896,5.714c0-1.03-0.533-2.169-3.409-2.169
			V2.87h9.519c5.473,0,9.736,1.457,9.736,6.006c0,2.982-1.992,4.512-4.725,5.115v0.072c3.053,0.566,5.93,2.448,5.93,5.861
			c0,4.264-3.692,6.464-9.27,6.464h-11.19v-0.675c2.876,0,3.409-1.138,3.409-2.167V5.714z"/>
		<path fill="#20140F" d="M86.269,10.187h-0.852c-1.029-3.909-3.622-6.572-7.674-6.572c-5.859,0-8.383,4.724-8.383,11.117
			c0,4.975,2.593,10.337,8.42,10.337c3.482,0,5.861-1.136,8.313-3.551l0.604,0.711c-2.167,2.664-5.827,4.442-9.237,4.442
			c-6.927,0-12.22-4.442-12.22-12.224c0-7.068,5.008-12.293,12.149-12.293c4.867,0,6.645,2.917,7.818,0.038h0.742L86.269,10.187"/>
		<rect x="105.458" y="2.23" fill="#FFFFFF" width="23.894" height="23.895"/>
		<polyline fill="#C23D27" points="105.458,2.212 129.351,2.212 117.405,14.159 105.458,2.212 		"/>
		<polyline fill="#C23D27" points="105.458,26.105 129.351,26.105 117.405,14.159 105.458,26.105 		"/>
		<polyline fill="#C23D27" points="105.458,2.212 105.458,26.105 93.509,14.159 105.458,2.212 		"/>
		<polyline fill="#C23D27" points="129.351,2.212 129.351,26.105 141.298,14.159 129.351,2.212 		"/>
	</g>
</g>
</svg>
