<?xml version="1.0" encoding="utf-8"?>
<!-- Generator: Adobe Illustrator 16.0.0, SVG Export Plug-In . SVG Version: 6.00 Build 0)  -->
<!DOCTYPE svg PUBLIC "-//W3C//DTD SVG 1.1//EN" "http://www.w3.org/Graphics/SVG/1.1/DTD/svg11.dtd">
<svg version="1.1" id="Layer_1" xmlns="http://www.w3.org/2000/svg" xmlns:xlink="http://www.w3.org/1999/xlink" x="0px" y="0px"
	 width="189.692px" height="37.402px" viewBox="0 0 189.692 37.402" enable-background="new 0 0 189.692 37.402"
	 xml:space="preserve">
<g>
	<path fill="#C2303C" d="M22.961,3.762c0,4.057,6.805,8.564,6.805,13.197c0,0,0,0.447-0.189,0.925
		c6.363,1.343,10.869,4.508,10.869,8.216c0,4.984-8.034,9.108-17.99,9.108c-10.168,0-18.049-4.056-18.049-8.917
		c0-3.706,4.883-6.714,10.775-8.309c0,2.045,6.704,8.533,6.865,11.152c0.02,0.3,0.078,0.554,0,0.863
		c1.45-0.767,1.45-3.165,1.45-3.165c0-5.688-6.521-8.212-6.521-13.805c0-2.175,1.009-3.771,1.92-4.218v1.565
		c0,4.059,7.057,8.597,7.057,12.304v1.215c1.64-0.638,1.64-3.676,1.64-3.676c0-5.113-6.553-7.958-6.553-13.807
		c0-2.171,1.007-3.769,1.921-4.218V3.762z"/>
	<path fill="#C2303C" d="M54.745,33.637c-3.433,0-5.919-0.989-5.919-0.989v-6.038h0.85c0.441,3.193,2.834,5.62,5.572,5.62
		c2.74,0,4.66-1.532,4.66-3.959c0-2.587-2.551-3.768-4.25-4.63l-2.456-1.246c-2.329-1.182-4.218-3.1-4.218-5.78
		c0-3.354,2.456-6.228,7.145-6.228c3.212,0,5.855,1.086,5.855,1.086v5.396h-0.85c-0.503-2.874-2.076-5.142-5.288-5.142
		c-2.394,0-3.809,1.662-3.809,3.354c0,2.204,1.51,3.192,3.272,4.088l2.457,1.243c2.234,1.152,5.006,3.068,5.006,6.326
		C62.773,30.889,59.938,33.637,54.745,33.637"/>
	<path fill="#C2303C" d="M70.611,27.056c-0.662,0.29-1.827,0.832-1.827,2.364c0,0.83,0.474,2.173,2.112,2.173
		c0.787,0,1.887-0.448,2.675-1.087v-4.728L70.611,27.056z M69.32,33.507c-2.141,0-3.526-1.437-3.526-3.574
		c0-1.534,1.103-2.716,3.526-3.61l4.251-1.563v-1.345c0-2.01-0.913-3.256-2.299-3.256c-0.946,0-1.89,0.48-2.362,1.246
		c-0.188,0.286-0.219,0.704-0.219,1.021c0,0.542,0.345,1.181,0.345,1.181l-2.076,0.959c-0.253-0.445-0.567-1.116-0.567-1.788
		c0-0.127,0.031-0.255,0.031-0.352c0.158-1.149,1.135-1.916,2.456-2.713c1.291-0.798,2.393-1.023,3.179-1.023
		c3.968,0,4.66,3.192,4.66,4.247v6.611c0,1.052,0.095,1.726,0.943,1.726c0.252,0,0.41,0,0.757-0.129l0.757-0.256v0.958l-4.41,1.66
		c-0.66-0.477-0.977-1.341-1.1-2.074C72.627,32.328,70.833,33.507,69.32,33.507"/>
	<path fill="#C2303C" d="M80.15,33.188v-0.763l1.039-0.195c0.629-0.129,1.068-0.605,1.068-1.247v-8.525
		c0-0.732-0.344-1.118-0.977-1.118c-0.217,0-0.471,0.034-0.723,0.129l-0.408,0.159v-0.958l4.531-1.979h0.663v2.364
		c1.382-1.568,3.021-2.364,4.47-2.364c3.211,0,4.752,2.332,4.752,5.045v7.248c0,0.642,0.474,1.152,1.104,1.247l1.069,0.195v0.763
		h-7.492v-0.763l1.038-0.195c0.63-0.129,1.135-0.605,1.135-1.247v-7.214c0-0.96-0.254-3.1-2.771-3.1
		c-1.385,0-2.55,0.864-3.242,1.502v8.812c0,0.642,0.504,1.118,1.133,1.247l1.039,0.195v0.763H80.15z"/>
	<path fill="#C2303C" d="M107.601,20.639h-4.409v7.922c0,1.755,0.915,2.713,2.235,2.713c0.536,0,1.386-0.16,2.174-0.607l0.345,0.767
		l-2.834,1.82c0,0-0.565,0.095-0.847,0.095c-2.739,0-4.22-1.627-4.22-5.077v-7.632h-2.298v-0.797c0,0,3.462-1.344,4.815-4.634h0.629
		v4.055h4.976L107.601,20.639z"/>
	<path fill="#C2303C" d="M114.203,27.056c-0.66,0.29-1.825,0.832-1.825,2.364c0,0.83,0.47,2.173,2.108,2.173
		c0.787,0,1.891-0.448,2.676-1.087v-4.728L114.203,27.056z M112.912,33.507c-2.143,0-3.525-1.437-3.525-3.574
		c0-1.534,1.102-2.716,3.525-3.61l4.25-1.563v-1.345c0-2.01-0.912-3.256-2.298-3.256c-0.944,0-1.892,0.48-2.36,1.246
		c-0.189,0.286-0.223,0.704-0.223,1.021c0,0.542,0.35,1.181,0.35,1.181l-2.079,0.959c-0.253-0.445-0.565-1.116-0.565-1.788
		c0-0.127,0.031-0.255,0.031-0.352c0.155-1.149,1.131-1.916,2.453-2.713c1.293-0.798,2.394-1.023,3.178-1.023
		c3.971,0,4.664,3.192,4.664,4.247v6.611c0,1.052,0.094,1.726,0.942,1.726c0.251,0,0.411,0,0.755-0.129l0.756-0.256v0.958
		l-4.405,1.66c-0.662-0.477-0.976-1.341-1.103-2.074C116.219,32.328,114.424,33.507,112.912,33.507"/>
	<path fill="#C2303C" d="M123.74,33.188v-0.763l1.041-0.195c0.627-0.129,1.07-0.605,1.07-1.247v-8.525
		c0-0.732-0.349-1.118-0.978-1.118c-0.22,0-0.472,0.034-0.724,0.129l-0.41,0.159v-0.958l4.535-1.979h0.662v2.364
		c1.385-1.568,3.02-2.364,4.468-2.364c3.21,0,4.755,2.332,4.755,5.045v7.248c0,0.642,0.471,1.152,1.101,1.247l1.069,0.195v0.763
		h-7.49v-0.763l1.039-0.195c0.629-0.129,1.132-0.605,1.132-1.247v-7.214c0-0.96-0.252-3.1-2.77-3.1c-1.388,0-2.55,0.864-3.243,1.502
		v8.812c0,0.642,0.506,1.118,1.133,1.247l1.04,0.195v0.763H123.74z"/>
	<path fill="#C2303C" d="M149.744,20.033c-2.266,0-4.597,1.466-4.597,5.745c0,3.578,1.765,5.749,4.534,5.749
		c1.668,0,2.708-0.99,2.959-1.501v-8.302C152.232,20.669,151.068,20.033,149.744,20.033 M148.327,33.507
		c-2.958,0-6.517-2.233-6.517-7.088c0-4.248,3.241-7.729,7.588-7.729c1.448,0,2.488,0.288,3.242,0.608v-7.314
		c0-0.768-0.408-0.99-0.912-0.99c-0.285,0-0.599,0.064-0.882,0.159l-0.631,0.224v-0.96l4.914-2.105h0.659v21.046
		c0,1.216,0.188,1.917,1.039,1.917c0.252,0,0.408,0,0.754-0.129l0.757-0.256v0.958l-4.407,1.66
		c-0.691-0.477-1.039-1.372-1.195-2.105C151.916,32.295,150.438,33.507,148.327,33.507"/>
	<path fill="#C2303C" d="M169.388,23.641v-0.063c0-2.396-1.32-3.549-2.896-3.549c-1.763,0-3.085,1.184-3.463,3.611H169.388z
		 M162.936,24.949v0.16c-0.033,4.247,2.361,6.386,5.35,6.386c1.512,0,2.896-0.575,4-1.435v1.275
		c-1.261,1.184-3.18,2.171-5.541,2.171c-4.91,0-7.083-3.734-7.083-7.279c0-4.155,3.117-7.538,7.144-7.538
		c3.307,0,5.889,2.364,5.889,5.845v0.415H162.936z"/>
	<path fill="#C2303C" d="M174.551,33.188v-0.763l1.037-0.195c0.602-0.129,1.072-0.605,1.072-1.247v-8.525
		c0-0.732-0.347-1.118-0.977-1.118c-0.219,0-0.473,0.034-0.723,0.129l-0.41,0.159v-0.958l4.469-1.979h0.664v3.098
		c1.133-2.234,2.486-3.161,4.028-3.161c1.26,0,1.573,0.32,1.573,0.32v3.385h-0.627c-0.158-0.895-0.758-1.341-1.7-1.341
		c-1.009,0-2.267,0.286-3.149,2.138v7.854c0,0.642,0.629,1.152,1.229,1.247l1.512,0.195v0.763H174.551z"/>
</g>
</svg>
