<?xml version="1.0" encoding="utf-8"?>
<!-- Generator: Adobe Illustrator 16.0.0, SVG Export Plug-In . SVG Version: 6.00 Build 0)  -->
<!DOCTYPE svg PUBLIC "-//W3C//DTD SVG 1.1//EN" "http://www.w3.org/Graphics/SVG/1.1/DTD/svg11.dtd">
<svg version="1.1" id="Layer_1" xmlns="http://www.w3.org/2000/svg" xmlns:xlink="http://www.w3.org/1999/xlink" x="0px" y="0px"
	 width="180.833px" height="33.833px" viewBox="0 0 180.833 33.833" enable-background="new 0 0 180.833 33.833"
	 xml:space="preserve">
<g>
	<polygon fill-rule="evenodd" clip-rule="evenodd" fill="#3A54A5" points="1.378,28.861 4.624,28.861 4.624,29.544 2.321,29.544
		2.321,30.287 4.506,30.287 4.506,30.938 2.321,30.938 2.321,31.763 4.643,31.763 4.643,32.444 1.378,32.444 1.378,28.861 	"/>
	<polygon fill-rule="evenodd" clip-rule="evenodd" fill="#3A54A5" points="8.764,28.861 9.707,28.861 9.707,31.732 11.823,31.732
		11.823,32.444 8.764,32.444 8.764,28.861 	"/>
	<path fill-rule="evenodd" clip-rule="evenodd" fill="#3A54A5" d="M22.22,30.908h1.295c0.331,0,0.501,0.15,0.501,0.432
		c0,0.227-0.111,0.423-0.403,0.423H22.22V30.908L22.22,30.908z M21.276,32.444h2.477c1.051,0,1.266-0.607,1.266-1.083
		c0-0.387-0.215-0.799-0.619-0.869v-0.01c0.326-0.104,0.463-0.441,0.463-0.718c0-0.663-0.471-0.903-0.977-0.903h-2.609V32.444
		L21.276,32.444z M22.22,29.515h1.183c0.39,0,0.487,0.159,0.487,0.386c0,0.266-0.137,0.387-0.354,0.387H22.22V29.515L22.22,29.515z"
		/>
	<path fill-rule="evenodd" clip-rule="evenodd" fill="#3A54A5" d="M31.444,31.055h-1.089l0.544-1.42L31.444,31.055L31.444,31.055z
		 M31.979,32.444h1.018l-1.527-3.583h-1.139l-1.527,3.583h1.016l0.283-0.737h1.596L31.979,32.444L31.979,32.444z"/>
	<polygon fill-rule="evenodd" clip-rule="evenodd" fill="#3A54A5" points="39.79,28.861 40.704,28.861 40.704,32.444 39.677,32.444
		37.784,29.946 37.774,29.946 37.774,32.444 36.858,32.444 36.858,28.861 37.954,28.861 39.78,31.361 39.79,31.361 39.79,28.861
		"/>
	<path fill-rule="evenodd" clip-rule="evenodd" fill="#3A54A5" d="M47.899,30.217c-0.087-0.518-0.501-0.774-0.992-0.774
		c-0.896,0-1.084,0.724-1.084,1.211c0,0.485,0.188,1.209,1.084,1.209c0.457,0,0.9-0.226,0.992-0.792h1.027
		c-0.117,1.043-0.95,1.475-2.053,1.475c-1.267,0-2.055-0.563-2.055-1.892c0-1.33,0.788-1.893,2.055-1.893
		c0.836,0,1.9,0.222,2.043,1.456H47.899L47.899,30.217z"/>
	<path fill-rule="evenodd" clip-rule="evenodd" fill="#3A54A5" d="M53.786,30.653c0-0.558,0.302-1.211,1.158-1.211
		c0.855,0,1.158,0.653,1.158,1.211c0,0.557-0.303,1.209-1.158,1.209C54.088,31.862,53.786,31.21,53.786,30.653L53.786,30.653z
		 M52.784,30.653c0,0.747,0.292,1.892,2.16,1.892c1.867,0,2.16-1.145,2.16-1.892c0-0.748-0.293-1.893-2.16-1.893
		C53.076,28.761,52.784,29.905,52.784,30.653L52.784,30.653z"/>
	<polygon fill-rule="evenodd" clip-rule="evenodd" fill="#3A54A5" points="66.572,28.861 69.677,28.861 69.677,29.544
		67.517,29.544 67.517,30.326 69.54,30.326 69.54,31.01 67.517,31.01 67.517,32.444 66.572,32.444 66.572,28.861 	"/>
	<path fill-rule="evenodd" clip-rule="evenodd" fill="#3A54A5" d="M73.646,28.861h0.945v2.058c0,0.352,0.014,0.943,0.88,0.943
		s0.881-0.592,0.881-0.943v-2.058h0.944v2.299c0,0.4-0.049,1.385-1.825,1.385s-1.825-0.984-1.825-1.385V28.861L73.646,28.861z"/>
	<polygon fill-rule="evenodd" clip-rule="evenodd" fill="#3A54A5" points="81.519,28.861 84.763,28.861 84.763,29.544
		82.462,29.544 82.462,30.287 84.646,30.287 84.646,30.938 82.462,30.938 82.462,31.763 84.783,31.763 84.783,32.444 81.519,32.444
		81.519,28.861 	"/>
	<path fill-rule="evenodd" clip-rule="evenodd" fill="#3A54A5" d="M89.848,29.544h1.202c0.229,0,0.5,0.091,0.5,0.447
		c0,0.335-0.242,0.456-0.451,0.456h-1.251V29.544L89.848,29.544z M88.903,32.444h0.944V31.13h1.173c0.291,0,0.5,0.126,0.5,0.627
		c0,0.377,0.006,0.521,0.094,0.688h1.031c-0.166-0.181-0.18-0.602-0.18-0.778c0-0.35-0.064-0.892-0.478-0.959v-0.01
		c0.394-0.146,0.565-0.426,0.565-0.861c0-0.367-0.161-0.975-1.125-0.975h-2.525V32.444L88.903,32.444z"/>
	<polygon fill-rule="evenodd" clip-rule="evenodd" fill="#3A54A5" points="97.603,29.544 96.313,29.544 96.313,28.861
		99.837,28.861 99.837,29.544 98.547,29.544 98.547,32.444 97.603,32.444 97.603,29.544 	"/>
	<polygon fill-rule="evenodd" clip-rule="evenodd" fill="#3A54A5" points="103.763,28.861 107.009,28.861 107.009,29.544
		104.706,29.544 104.706,30.287 106.891,30.287 106.891,30.938 104.706,30.938 104.706,31.763 107.027,31.763 107.027,32.444
		103.763,32.444 103.763,28.861 	"/>
	<path fill-rule="evenodd" clip-rule="evenodd" fill="#3A54A5" d="M117.492,29.544h0.964c0.719,0,0.992,0.411,0.992,1.074
		c0,0.759-0.283,1.145-0.906,1.145h-1.05V29.544L117.492,29.544z M116.548,32.444h2.247c1.091,0,1.626-0.712,1.626-1.791
		c0-1.078-0.516-1.792-1.708-1.792h-2.165V32.444L116.548,32.444z"/>
	<polygon fill-rule="evenodd" clip-rule="evenodd" fill="#3A54A5" points="124.562,28.861 127.806,28.861 127.806,29.544
		125.505,29.544 125.505,30.287 127.688,30.287 127.688,30.938 125.505,30.938 125.505,31.763 127.825,31.763 127.825,32.444
		124.562,32.444 124.562,28.861 	"/>
	<polygon fill-rule="evenodd" clip-rule="evenodd" fill="#3A54A5" points="140.797,28.861 142.183,28.861 142.183,32.444
		141.269,32.444 141.269,29.575 141.259,29.575 140.159,32.444 139.372,32.444 138.272,29.575 138.261,29.575 138.261,32.444
		137.348,32.444 137.348,28.861 138.733,28.861 139.765,31.441 140.797,28.861 	"/>
	<polygon fill-rule="evenodd" clip-rule="evenodd" fill="#3A54A5" points="146.445,28.861 149.69,28.861 149.69,29.544
		147.389,29.544 147.389,30.287 149.572,30.287 149.572,30.938 147.389,30.938 147.389,31.763 149.71,31.763 149.71,32.444
		146.445,32.444 146.445,28.861 	"/>
	<polygon fill-rule="evenodd" clip-rule="evenodd" fill="#3A54A5" points="154.89,30.598 153.54,28.861 154.673,28.861
		155.437,29.977 156.198,28.861 157.334,28.861 155.98,30.598 157.456,32.444 156.282,32.444 155.437,31.235 154.589,32.444
		153.417,32.444 154.89,30.598 	"/>
	<polygon fill-rule="evenodd" clip-rule="evenodd" fill="#3A54A5" points="161.303,28.861 162.249,28.861 162.249,32.444
		161.303,32.444 161.303,28.861 	"/>
	<path fill-rule="evenodd" clip-rule="evenodd" fill="#3A54A5" d="M169.442,30.217c-0.088-0.518-0.5-0.774-0.99-0.774
		c-0.896,0-1.088,0.724-1.088,1.211c0,0.485,0.191,1.209,1.088,1.209c0.456,0,0.898-0.226,0.99-0.792h1.026
		c-0.115,1.043-0.948,1.475-2.052,1.475c-1.266,0-2.054-0.563-2.054-1.892c0-1.33,0.788-1.893,2.054-1.893
		c0.838,0,1.902,0.222,2.043,1.456H169.442L169.442,30.217z"/>
	<path fill-rule="evenodd" clip-rule="evenodd" fill="#3A54A5" d="M175.329,30.653c0-0.558,0.303-1.211,1.158-1.211
		c0.857,0,1.158,0.653,1.158,1.211c0,0.557-0.301,1.209-1.158,1.209C175.632,31.862,175.329,31.21,175.329,30.653L175.329,30.653z
		 M174.329,30.653c0,0.747,0.289,1.892,2.158,1.892s2.161-1.145,2.161-1.892c0-0.748-0.292-1.893-2.161-1.893
		S174.329,29.905,174.329,30.653L174.329,30.653z"/>
	<path fill-rule="evenodd" clip-rule="evenodd" fill="#3A54A5" d="M159.497,8.029v3.338h-6.244V24.26c-0.023,0-3.77,0-3.795,0
		V11.452h-6.242V8.029H159.497L159.497,8.029z"/>
	<polygon fill-rule="evenodd" clip-rule="evenodd" fill="#3A54A5" points="178.054,8.002 178.054,11.282 165.063,11.282
		165.063,14.707 175.354,14.707 175.354,17.531 165.063,17.531 165.063,20.783 178.054,20.783 178.065,24.26 161.518,24.26
		161.518,8.002 178.054,8.002 	"/>
	<path fill-rule="evenodd" clip-rule="evenodd" fill="#3A54A5" d="M85.858,14.106V24.26h-3.459V8.029h3.289l12.146,10.528V8.029
		h3.121l-0.006,16.23h-3.135C97.815,24.185,85.858,14.106,85.858,14.106L85.858,14.106z"/>
	<path fill-rule="evenodd" clip-rule="evenodd" fill="#3A54A5" d="M60.444,19.623v-0.506c0-1.316-0.988-2.854-0.988-2.871
		c0-0.18,1.012-1.02,1.012-2.652v-0.479v-0.462c0-3.184-3.098-4.65-4.094-4.65H41.993l0.002,16.291h14.93
		c0.531-0.033,0.65-0.188,1.435-0.599c0.606-0.317,2.085-1.782,2.085-3.357v-0.686V19.623L60.444,19.623z M56.745,19.886
		c-0.021,0.559-0.258,1.187-0.823,1.211c-0.702,0.029-10.337-0.013-10.649-0.013V17.79c0,0,10.24-0.021,10.768,0.008
		c0.441,0.024,0.695,0.5,0.705,1.146l0.01,0.68L56.745,19.886L56.745,19.886z M56.773,13.114l-0.017,0.482
		c0,0.562-0.26,1.188-0.822,1.211c-0.705,0.03-10.338-0.013-10.649-0.013v-3.294c0,0,10.239-0.021,10.767,0.008
		c0.441,0.026,0.705,0.499,0.705,1.146v0.46H56.773L56.773,13.114z"/>
	<path fill-rule="evenodd" clip-rule="evenodd" fill="#3A54A5" d="M73.637,17.217h-5.313l2.688-4.907L73.637,17.217L73.637,17.217z
		 M72.192,8.029h-2.613l-8.871,16.23h3.514l2.234-3.818h8.689l2.227,3.818h3.486L72.192,8.029L72.192,8.029z"/>
	<path fill-rule="evenodd" clip-rule="evenodd" fill="#3A54A5" d="M119.434,15.99c-0.005,2.97-2.812,4.451-3.884,4.451h-5.904
		c-0.848,0-3.965-0.797-3.965-4.623c0-2.97,3.145-4.451,4.049-4.451h5.736c1.365,0,3.963,1.807,3.963,4.623H119.434L119.434,15.99z
		 M123.063,15.943l-0.008-0.382c-0.078-3.833-3.794-7.56-6.583-7.56h-7.497c-4.365,0-7.092,4.824-7.092,7.217v2.313
		c0.209,4.708,4.521,6.6,5.99,6.762c1.042,0.115,8.855,0,8.855,0c0.71-0.033,5.572-1.104,6.326-7.019L123.063,15.943L123.063,15.943
		z"/>
	<path fill-rule="evenodd" clip-rule="evenodd" fill="#3A54A5" d="M138.907,12.965c0,0.813-0.322,1.547-1.023,1.665
		c-0.355,0-10.433,0.008-10.526-0.01l0.011-3.2h10.207C138.44,11.42,138.907,12.186,138.907,12.965L138.907,12.965z M141.95,12.31
		c-0.126-2.611-2.645-4.28-5.313-4.28h-12.653v16.23h3.459v-6.729h5.23c0.279,0,5.121,6.729,5.121,6.729h4.16l-4.979-6.558
		c0.265,0.02,1.288-0.041,1.288-0.041c1.984-0.043,3.688-0.918,3.688-3.811C141.95,13.69,141.96,12.523,141.95,12.31L141.95,12.31z"
		/>
	<path fill-rule="evenodd" clip-rule="evenodd" fill="#3A54A5" d="M17.889,12.452C11.378,11.766,6.618,9.67,6.618,7.195
		c0-3.032,7.114-5.49,15.891-5.49c8.777,0,15.892,2.458,15.892,5.49c0,3.033-7.114,5.491-15.892,5.491
		c-0.477,0-0.945-0.013-1.412-0.027V3.537L17.889,12.452L17.889,12.452z"/>
	<path fill-rule="evenodd" clip-rule="evenodd" fill="#3A54A5" d="M17.477,13.801l-3.729,10.728
		C7.313,23.826,2.458,21.745,2.458,19.29C2.458,16.34,9.034,13.931,17.477,13.801L17.477,13.801z"/>
	<path fill-rule="evenodd" clip-rule="evenodd" fill="#3A54A5" d="M21.097,13.88c7.467,0.45,13.143,2.701,13.143,5.41
		c0,2.708-5.676,4.943-13.143,5.393V13.88L21.097,13.88z"/>
</g>
</svg>
