<?xml version="1.0" encoding="utf-8"?>
<!-- Generator: Adobe Illustrator 16.0.0, SVG Export Plug-In . SVG Version: 6.00 Build 0)  -->
<!DOCTYPE svg PUBLIC "-//W3C//DTD SVG 1.1//EN" "http://www.w3.org/Graphics/SVG/1.1/DTD/svg11.dtd">
<svg version="1.1" id="Layer_1" xmlns="http://www.w3.org/2000/svg" xmlns:xlink="http://www.w3.org/1999/xlink" x="0px" y="0px"
	 width="118.302px" height="43.834px" viewBox="0 0 118.302 43.834" enable-background="new 0 0 118.302 43.834"
	 xml:space="preserve">
<g>
	<path fill-rule="evenodd" clip-rule="evenodd" fill="#273076" d="M99.601,4.981c2.662,0,3.17,0.66,4.104,3.451l10.279,30.422h-9.16
		l-2.232-7.312H90.263l-2.221,7.314h-5.287L93.126,4.975L99.601,4.981L99.601,4.981z M101.063,26.581h-9.314l4.625-15.456
		L101.063,26.581L101.063,26.581z"/>
	<path fill-rule="evenodd" clip-rule="evenodd" fill="#273076" d="M47.706,38.865H33.474V4.969h14.751
		c6.915,0,9.325,5.637,5.822,10.838l-1.654,2.454C63.993,24.287,60.222,38.865,47.706,38.865L47.706,38.865z M46.015,19.884
		l2.825-4.22c0.715-1.057,0.866-1.722,0.866-2.463c0-2.07-1.821-3.809-3.918-3.809h-4.345v24.922h2.407
		c4.029,0,7.086-2.178,7.086-7.271C50.937,22.841,48.963,20.598,46.015,19.884L46.015,19.884z"/>
	<path fill-rule="evenodd" clip-rule="evenodd" fill="#273076" d="M19.042,38.865H4.808V4.969H19.56
		c6.914,0,9.325,5.637,5.822,10.838l-1.654,2.454C35.329,24.287,31.558,38.865,19.042,38.865L19.042,38.865z M17.349,19.884
		l2.826-4.22c0.716-1.057,0.867-1.722,0.867-2.463c0-2.07-1.82-3.809-3.916-3.809H12.78v24.922h2.406
		c4.029,0,7.086-2.178,7.086-7.271C22.272,22.841,20.3,20.598,17.349,19.884L17.349,19.884z"/>
	<path fill-rule="evenodd" clip-rule="evenodd" fill="#273076" d="M81.374,4.969h5.349L76.396,38.853l-8.133-0.005L57.185,4.975
		l5.986-0.006c2.313,0,2.919,0.598,4.127,4.434l6.415,21.303L81.374,4.969L81.374,4.969z"/>
</g>
</svg>
