<?xml version="1.0" encoding="utf-8"?>
<!-- Generator: Adobe Illustrator 16.0.0, SVG Export Plug-In . SVG Version: 6.00 Build 0)  -->
<!DOCTYPE svg PUBLIC "-//W3C//DTD SVG 1.1//EN" "http://www.w3.org/Graphics/SVG/1.1/DTD/svg11.dtd">
<svg version="1.1" id="Layer_1" xmlns="http://www.w3.org/2000/svg" xmlns:xlink="http://www.w3.org/1999/xlink" x="0px" y="0px"
	 width="207.816px" height="35.5px" viewBox="0 0 207.816 35.5" enable-background="new 0 0 207.816 35.5" xml:space="preserve">
<g>
	<path id="XMLID_82_" fill="#FFFFFF" d="M22.734,6.365c-1.118,0.997-2.295,2.031-2.893,3.444c1.209,0.014,2.42,0.08,3.629-0.007
		c1.113-0.694,1.976-1.746,3.145-2.371c4.285-2.719,10.09-2.667,14.326,0.118c1.094,0.604,1.882,1.628,2.959,2.239
		c1.173,0.09,2.354,0.014,3.527,0.042L47.24,9.195c-2.053-2.94-5.205-5.045-8.601-6.132c-2.323-0.813-4.815-0.549-7.226-0.538
		C28.213,2.831,25.203,4.34,22.734,6.365z"/>
	<path id="XMLID_81_" fill="#FFFFFF" d="M31.49,9.083c0,1.143,0,2.284,0.021,3.427c-0.928,0.153-1.865,0.111-2.789-0.038
		c-0.295,1.087-0.166,2.216-0.172,3.323c0.984-0.004,1.975,0,2.964,0.038c-0.042,3.197-0.017,6.396-0.017,9.597
		c-0.035,1.565,0.617,3.291,2.072,4.049c1.552,0.843,3.438,0.476,4.938-0.31c0.281-1.104,0.545-2.212,0.809-3.319
		c-1.076,0.656-2.375,1.16-3.643,0.777c-0.658-0.392-0.742-1.218-0.735-1.909c-0.007-2.976,0.003-5.947,0-8.92
		c1.173,0,2.351,0,3.524,0c0.004-1.056,0.006-2.114,0.018-3.17c-1.178-0.014-2.354-0.014-3.531-0.042
		c-0.021-1.78-0.004-3.565-0.018-5.35C33.779,7.837,32.633,8.458,31.49,9.083z"/>
	<path fill="#FFFFFF" d="M65.139,15.984c-0.96-2.19-3.2-3.78-5.61-3.74c-1.87-0.15-3.59,0.75-4.98,1.899
		c-0.01-2.29,0.01-4.569-0.01-6.859c-1.18,0.55-2.31,1.189-3.45,1.819v20.57c1.15,0.01,2.3,0.01,3.46,0.01v-1.489
		c1.65,1.38,3.88,2.27,6.03,1.68c2.7-0.57,4.7-2.95,5.28-5.58C66.429,21.543,66.299,18.564,65.139,15.984z M61.999,25.083
		c-0.77,1.49-2.66,2.17-4.24,1.7c-1.28-0.28-2.33-1.13-3.24-2.04c0.01-2.44,0-4.88,0.01-7.311c1.2-1.27,2.86-2.33,4.68-2.04
		c1.83,0.091,3.01,1.851,3.34,3.5C62.939,20.933,63.039,23.213,61.999,25.083z"/>
	<path fill="#FFFFFF" d="M81.999,18.454c-0.01-1.07-0.06-2.18-0.58-3.14c-0.82-1.721-2.65-2.711-4.48-2.971
		c-2.58-0.39-5.37,0-7.6,1.42c0.44,0.82,0.88,1.65,1.28,2.5c2.01-0.939,4.48-1.529,6.58-0.569c1.37,0.689,1.44,2.319,1.36,3.649
		c-2.2-0.75-4.63-0.83-6.87-0.22c-1.61,0.44-3.13,1.57-3.67,3.2c-0.73,2.13-0.27,4.779,1.51,6.27c2.58,2.181,6.67,1.8,9.01-0.569
		c0,0.56,0.01,1.109,0.03,1.659c1.14,0,2.29,0,3.44-0.01C81.989,25.933,81.999,22.194,81.999,18.454z M78.459,24.914
		c-1.42,1.79-4.09,2.689-6.2,1.62c-1.39-0.69-1.84-2.87-0.64-3.94c1.02-1.01,2.55-0.96,3.88-0.91c1.05,0.011,2.06,0.28,3.04,0.65
		C78.529,23.194,78.659,24.074,78.459,24.914z"/>
	<path id="XMLID_78_" fill="#FFFFFF" d="M21.939,12.608c0,5.688,0,11.378,0,17.065c1.193,0.01,2.392,0.014,3.586,0.007
		c-0.076-1.076-0.132-2.156-0.069-3.232c0.226-3.701-0.111-7.413,0.079-11.114c0.025-0.944-0.006-1.889-0.142-2.826
		C24.24,12.49,23.085,12.49,21.939,12.608z"/>
	<path id="XMLID_77_" fill="#FFFFFF" d="M42.021,12.51c-0.024,5.723-0.004,11.447-0.008,17.173c1.156-0.003,2.313-0.003,3.473,0.018
		c0.063-5.719,0.004-11.434,0.031-17.152C44.352,12.497,43.188,12.5,42.021,12.51z"/>
	<g id="XMLID_57_">
		<path id="XMLID_67_" fill="#EE3134" d="M22.734,6.365c2.469-2.024,5.479-3.534,8.68-3.84c2.41-0.011,4.902-0.274,7.226,0.538
			c3.396,1.087,6.548,3.191,8.601,6.132l0.188,0.636c-1.174-0.028-2.354,0.048-3.527-0.042c-1.077-0.611-1.865-1.636-2.959-2.239
			C36.705,4.764,30.9,4.712,26.615,7.431c-1.169,0.625-2.031,1.677-3.145,2.371c-1.209,0.087-2.42,0.021-3.629,0.007
			C20.439,8.396,21.616,7.362,22.734,6.365z"/>
		<g id="XMLID_58_">
			<path id="XMLID_59_" fill="#EE3134" d="M203.399,19.353c-1.01-1.109-2.66-1.17-4.01-1.619c0.86-1.301,2.03-2.381,2.65-3.82
				c0.54-1.57-0.56-3.05-1.46-4.23c-1.45-1.67-3.34-3.359-5.68-3.439c-1.75,0.24-2.29,2.17-3.38,3.28c-0.94-1.4-1.72-3.07-3.26-3.91
				c-1.65-0.59-3.42,0.14-4.91,0.85c-1.6,0.86-3.36,1.91-4.05,3.68c-0.47,1.79,1.34,2.98,2.15,4.36c-1.6,0.48-3.39,0.68-4.74,1.74
				c-1.25,1.31-1.01,3.31-0.84,4.95c0.34,1.729,0.79,3.59,2.07,4.88c1.53,1.33,3.47-0.11,5.08-0.54c-0.08,1.5-0.24,3.02,0.06,4.51
				c0.36,1.62,2.09,2.3,3.54,2.68c2.08,0.45,4.41,0.721,6.39-0.229c1.75-1.03,0.96-3.33,1.08-4.97c1.79,0.569,3.7,1.79,5.62,1.119
				c1.5-0.869,2.41-2.439,3.15-3.949C203.549,23.053,204.369,21.043,203.399,19.353z M184.909,11.553c1.81-1.37,4.16-1.79,6.39-1.58
				c-0.54,0.92-1.02,1.87-1.38,2.87c-1.38-1.399-3.18-0.08-4.75,0.13C184.439,12.944,184.329,11.874,184.909,11.553z
				 M182.059,22.183c-1.01-0.649-1.1-1.939-1.18-3.02c-0.1-1.47,0.36-2.89,0.85-4.25c0.77,0.75,1.51,1.52,2.37,2.18
				C181.829,17.984,183.779,20.973,182.059,22.183z M183.469,25.383c0.96-0.45,1.91-0.93,2.79-1.53c0.16,1.811,2.24,1.95,3.55,2.54
				c0.63,0.141,0.53,0.811,0.55,1.301C187.849,28.263,185.309,27.024,183.469,25.383z M192.929,23.114
				c-1.83-1.021-4.14-0.82-6.04-0.13c0.18-2-0.55-4.04-1.83-5.561c2.04-0.42,3.71-1.84,4.91-3.49c0.96,1.811,2.83,3.051,4.8,3.511
				C193.309,18.923,192.749,21.083,192.929,23.114z M198.179,22.463c-0.74,1.98-2.32,3.5-4.1,4.57c-0.15-1.04-0.3-2.09-0.51-3.13
				c2.35,0.51,2.5-3.03,4.66-2.91C198.259,21.484,198.389,21.994,198.179,22.463z M195.779,17.093c0.78-1.439-0.48-2.689-1.24-3.819
				c-0.4-0.48-0.43-1.551,0.41-1.551c2.21,1.11,3.5,3.5,3.96,5.851C197.879,17.333,196.829,17.173,195.779,17.093z"/>
		</g>
	</g>
	<g id="XMLID_2_">
		<path id="XMLID_56_" fill="#044D81" d="M31.49,9.083c1.143-0.625,2.289-1.246,3.441-1.847c0.014,1.784-0.004,3.569,0.018,5.35
			c1.177,0.028,2.354,0.028,3.531,0.042c-0.012,1.056-0.014,2.114-0.018,3.17c-1.174,0-2.352,0-3.524,0
			c0.003,2.973-0.007,5.944,0,8.92c-0.007,0.691,0.077,1.518,0.735,1.909c1.268,0.383,2.566-0.121,3.643-0.777
			c-0.264,1.107-0.527,2.215-0.809,3.319c-1.5,0.785-3.386,1.152-4.938,0.31c-1.455-0.758-2.107-2.483-2.072-4.049
			c0-3.201-0.025-6.399,0.017-9.597c-0.989-0.038-1.979-0.042-2.964-0.038c0.006-1.107-0.123-2.236,0.172-3.323
			c0.924,0.149,1.861,0.191,2.789,0.038C31.49,11.368,31.49,10.226,31.49,9.083z"/>
		<g id="XMLID_21_">
			<path id="XMLID_22_" fill="#044D81" d="M65.139,15.984c-0.96-2.19-3.2-3.78-5.61-3.74c-1.87-0.15-3.59,0.75-4.98,1.899
				c-0.01-2.29,0.01-4.569-0.01-6.859c-1.18,0.55-2.31,1.189-3.45,1.819v20.57c1.15,0.01,2.3,0.01,3.46,0.01v-1.489
				c1.65,1.38,3.88,2.27,6.03,1.68c2.7-0.57,4.7-2.95,5.28-5.58C66.429,21.543,66.299,18.564,65.139,15.984z M61.999,25.083
				c-0.77,1.49-2.66,2.17-4.24,1.7c-1.28-0.28-2.33-1.13-3.24-2.04c0.01-2.44,0-4.88,0.01-7.311c1.2-1.27,2.86-2.33,4.68-2.04
				c1.83,0.091,3.01,1.851,3.34,3.5C62.939,20.933,63.039,23.213,61.999,25.083z"/>
		</g>
		<path id="XMLID_20_" fill="#044D81" d="M6.117,16.535c2.565-4.819,10.343-5.902,13.752-1.44c-0.268,1.014-1.242,1.701-1.85,2.534
			c-0.796-0.743-1.671-1.455-2.736-1.761c-2.323-0.815-5.118,0.399-6.152,2.622c-1.396,2.715-0.338,6.635,2.648,7.76
			c2.209,1,4.646-0.018,6.303-1.573c0.648,0.796,1.305,1.584,1.912,2.41c-1.35,1.587-3.246,2.743-5.354,2.909
			c-3.084,0.226-6.416-1.017-8.163-3.663C4.596,23.468,4.506,19.538,6.117,16.535z"/>
		<g id="XMLID_16_">
			<path id="XMLID_17_" fill="#044D81" d="M81.999,18.454c-0.01-1.07-0.06-2.18-0.58-3.14c-0.82-1.721-2.65-2.711-4.48-2.971
				c-2.58-0.39-5.37,0-7.6,1.42c0.44,0.82,0.88,1.65,1.28,2.5c2.01-0.939,4.48-1.529,6.58-0.569c1.37,0.689,1.44,2.319,1.36,3.649
				c-2.2-0.75-4.63-0.83-6.87-0.22c-1.61,0.44-3.13,1.57-3.67,3.2c-0.73,2.13-0.27,4.779,1.51,6.27c2.58,2.181,6.67,1.8,9.01-0.569
				c0,0.56,0.01,1.109,0.03,1.659c1.14,0,2.29,0,3.44-0.01C81.989,25.933,81.999,22.194,81.999,18.454z M78.459,24.914
				c-1.42,1.79-4.09,2.689-6.2,1.62c-1.39-0.69-1.84-2.87-0.64-3.94c1.02-1.01,2.55-0.96,3.88-0.91c1.05,0.011,2.06,0.28,3.04,0.65
				C78.529,23.194,78.659,24.074,78.459,24.914z"/>
		</g>
		<path id="XMLID_15_" fill="#044D81" d="M88.537,13.99c2.065-2.007,5.482-2.33,7.951-0.913c1.874,1.232,2.485,3.61,2.531,5.729
			c0.045,3.618-0.018,7.239,0.031,10.857c-1.122,0.024-2.24,0.024-3.361,0.018c-0.004-3.16,0.014-6.323-0.004-9.482
			c-0.101-1.473-0.152-3.208-1.379-4.239c-1.086-0.806-2.628-0.816-3.829-0.271c-1.364,0.715-1.966,2.343-1.935,3.812
			c-0.023,3.396,0.018,6.795-0.018,10.19c-1.145-0.007-2.287-0.007-3.43-0.007c-0.014-5.687,0.021-11.371-0.018-17.055
			c1.156-0.094,2.32-0.069,3.476,0.004C88.551,12.972,88.54,13.649,88.537,13.99z"/>
		<g id="XMLID_11_">
			<path id="XMLID_12_" fill="#044D81" d="M115.409,17.753c0.06-2.15-1.33-4.2-3.34-4.939c-3-1.141-6.43-0.641-9.23,0.81
				c0.34,0.9,0.75,1.76,1.17,2.62c2.03-0.87,4.44-1.51,6.56-0.58c1.39,0.66,1.49,2.31,1.43,3.65c-1.94-0.591-4.01-0.78-6-0.4
				c-1.57,0.26-3.15,1.03-4.06,2.39c-1.16,1.83-1.06,4.28,0.01,6.13c1.07,1.73,3.17,2.58,5.14,2.62c1.82,0.04,3.51-0.84,4.87-1.979
				c0.01,0.54,0.01,1.08,0.02,1.609h3.44C115.409,25.704,115.439,21.734,115.409,17.753z M111.349,25.503
				c-1.45,1.33-3.67,1.96-5.52,1.1c-1.25-0.539-1.81-2.17-1.27-3.399c0.4-0.74,1.18-1.22,1.98-1.41c1.77-0.229,3.7-0.229,5.35,0.56
				C111.959,23.383,112.339,24.784,111.349,25.503z"/>
		</g>
		<path id="XMLID_10_" fill="#044D81" d="M121.931,14.017c2.306-2.53,7.065-2.476,8.878,0.601c1.031-1.201,2.41-2.229,4.045-2.326
			c1.813-0.139,3.906-0.128,5.306,1.219c1.469,1.476,1.698,3.684,1.765,5.66c0.03,3.503,0.002,7.006,0.01,10.513
			c-1.143,0-2.288,0-3.431,0.004c-0.038-3.399,0.018-6.802-0.024-10.204c-0.049-1.393-0.273-3.077-1.617-3.837
			c-1.191-0.507-2.719-0.486-3.727,0.399c-1.002,0.989-1.117,2.492-1.125,3.822c0,3.271,0.004,6.541,0.004,9.813
			c-1.149,0.003-2.299,0.003-3.444,0.003c-0.007-3.277,0.007-6.555-0.003-9.833c-0.028-1.305-0.119-2.767-1.031-3.784
			c-1.375-1.212-3.91-0.982-4.875,0.646c-0.633,1.031-0.723,2.288-0.74,3.469c0.014,3.167,0,6.33,0.011,9.493
			c-1.153,0.014-2.302,0.014-3.454-0.004c0.003-5.677-0.004-11.354,0.003-17.03c1.146-0.031,2.296-0.031,3.444-0.028
			C121.928,13.08,121.931,13.548,121.931,14.017z"/>
		<g id="XMLID_6_">
			<path id="XMLID_7_" fill="#044D81" d="M159.289,22.343c0.32-2.89-0.23-6.1-2.37-8.22c-3.1-3.06-8.92-2.38-11.23,1.31
				c-1.51,2.42-1.85,5.5-1.22,8.25c0.5,2.44,2.1,4.721,4.42,5.721c2.99,1.33,6.69,0.569,9.12-1.58c-0.61-0.75-1.25-1.49-1.88-2.23
				c-1.78,1.23-4.28,1.9-6.27,0.78c-1.44-0.82-2.14-2.45-2.33-4.04C151.449,22.364,155.369,22.343,159.289,22.343z M150.469,19.574
				c-1,0-2.01,0.09-2.96-0.23c0.35-0.99,0.59-2.08,1.35-2.859c1.62-1.841,4.95-1.58,6.29,0.449c0.55,0.75,0.7,1.69,0.87,2.591
				C154.169,19.614,152.319,19.543,150.469,19.574z"/>
		</g>
		<path id="XMLID_5_" fill="#044D81" d="M21.939,12.608c1.146-0.118,2.301-0.118,3.454-0.101c0.136,0.938,0.167,1.882,0.142,2.826
			c-0.19,3.701,0.146,7.413-0.079,11.114c-0.063,1.076-0.007,2.156,0.069,3.232c-1.194,0.007-2.393,0.003-3.586-0.007
			C21.939,23.986,21.939,18.295,21.939,12.608z"/>
		<path id="XMLID_4_" fill="#044D81" d="M42.021,12.51c1.166-0.01,2.33-0.014,3.496,0.038c-0.027,5.719,0.031,11.434-0.031,17.152
			c-1.16-0.021-2.316-0.021-3.473-0.018C42.018,23.958,41.997,18.233,42.021,12.51z"/>
		<path id="XMLID_3_" fill="#044D81" d="M164.571,20.854c-1.497-2.823-3.431-5.427-4.716-8.347c1.271,0.101,2.546,0.118,3.824,0.132
			c0.947,1.871,2.033,3.663,2.923,5.565c1.389-1.677,1.923-3.944,3.319-5.583c1.177-0.083,2.361,0.038,3.538-0.087
			c-1.216,2.934-3.171,5.503-4.674,8.299c1.765,2.937,3.504,5.888,5.243,8.84c-1.348,0.017-2.697,0.017-4.041-0.007
			c-1.108-2.125-2.25-4.232-3.386-6.344c-1.063,2.18-2.268,4.281-3.485,6.375c-1.254-0.018-2.504-0.015-3.75-0.024
			C161.09,26.729,162.801,23.774,164.571,20.854z"/>
	</g>
</g>
</svg>
